<?xml version="1.0" encoding="us-ascii" standalone="no"?><svg xmlns="http://www.w3.org/2000/svg" xmlns:xlink="http://www.w3.org/1999/xlink" contentStyleType="text/css" height="555px" preserveAspectRatio="none" style="width:738px;height:555px;background:#FFFFFF;" version="1.1" viewBox="0 0 738 555" width="738px" zoomAndPan="magnify"><defs/><g><rect fill="#FFFFFF" height="390.4609" style="stroke:#181818;stroke-width:1.0;" width="10" x="62" y="77.2969"/><rect fill="#FFFFFF" height="129.5313" style="stroke:#181818;stroke-width:1.0;" width="10" x="207" y="98.4297"/><rect fill="#FFFFFF" height="29.1328" style="stroke:#181818;stroke-width:1.0;" width="10" x="351.5" y="127.5625"/><rect fill="#FFFFFF" height="30" style="stroke:#181818;stroke-width:1.0;" width="10" x="452" y="328.3594"/><rect fill="#FFFFFF" height="29.1328" style="stroke:#181818;stroke-width:1.0;" width="10" x="452" y="387.4922"/><rect fill="#FFFFFF" height="71.2656" style="stroke:#181818;stroke-width:1.0;" width="10" x="499" y="227.9609"/><line style="stroke:#181818;stroke-width:0.5;stroke-dasharray:5.0,5.0;" x1="67" x2="67" y1="67.2969" y2="476.7578"/><line style="stroke:#181818;stroke-width:0.5;stroke-dasharray:5.0,5.0;" x1="212" x2="212" y1="67.2969" y2="476.7578"/><line style="stroke:#181818;stroke-width:0.5;stroke-dasharray:5.0,5.0;" x1="356" x2="356" y1="67.2969" y2="476.7578"/><line style="stroke:#181818;stroke-width:0.5;stroke-dasharray:5.0,5.0;" x1="457" x2="457" y1="67.2969" y2="476.7578"/><line style="stroke:#181818;stroke-width:0.5;stroke-dasharray:5.0,5.0;" x1="504" x2="504" y1="67.2969" y2="476.7578"/><text fill="#000000" font-family="sans-serif" font-size="14" lengthAdjust="spacing" textLength="118" x="5" y="63.9951">Ablaufsteuerung</text><ellipse cx="67" cy="35" fill="#E2E2F0" rx="12" ry="12" style="stroke:#181818;stroke-width:0.5;"/><polygon fill="#181818" points="63,23,69,18,67,23,69,28,63,23" style="stroke:#181818;stroke-width:1.0;"/><text fill="#000000" font-family="sans-serif" font-size="14" lengthAdjust="spacing" textLength="118" x="5" y="488.7529">Ablaufsteuerung</text><ellipse cx="67" cy="508.0547" fill="#E2E2F0" rx="12" ry="12" style="stroke:#181818;stroke-width:0.5;"/><polygon fill="#181818" points="63,496.0547,69,491.0547,67,496.0547,69,501.0547,63,496.0547" style="stroke:#181818;stroke-width:1.0;"/><rect fill="#E2E2F0" height="30.2969" rx="2.5" ry="2.5" style="stroke:#181818;stroke-width:0.5;" width="134" x="145" y="36"/><text fill="#000000" font-family="sans-serif" font-size="14" lengthAdjust="spacing" textLength="120" x="152" y="55.9951">Bildverarbeitung</text><rect fill="#E2E2F0" height="30.2969" rx="2.5" ry="2.5" style="stroke:#181818;stroke-width:0.5;" width="134" x="145" y="475.7578"/><text fill="#000000" font-family="sans-serif" font-size="14" lengthAdjust="spacing" textLength="120" x="152" y="495.7529">Bildverarbeitung</text><text fill="#000000" font-family="sans-serif" font-size="14" lengthAdjust="spacing" textLength="129" x="289" y="63.9951">Datenbank_Bilder</text><path d="M338.5,15 C338.5,5 356.5,5 356.5,5 C356.5,5 374.5,5 374.5,15 L374.5,41 C374.5,51 356.5,51 356.5,51 C356.5,51 338.5,51 338.5,41 L338.5,15 " fill="#E2E2F0" style="stroke:#181818;stroke-width:1.5;"/><path d="M338.5,15 C338.5,25 356.5,25 356.5,25 C356.5,25 374.5,25 374.5,15 " fill="none" style="stroke:#181818;stroke-width:1.5;"/><text fill="#000000" font-family="sans-serif" font-size="14" lengthAdjust="spacing" textLength="129" x="289" y="488.7529">Datenbank_Bilder</text><path d="M338.5,502.0547 C338.5,492.0547 356.5,492.0547 356.5,492.0547 C356.5,492.0547 374.5,492.0547 374.5,502.0547 L374.5,528.0547 C374.5,538.0547 356.5,538.0547 356.5,538.0547 C356.5,538.0547 338.5,538.0547 338.5,528.0547 L338.5,502.0547 " fill="#E2E2F0" style="stroke:#181818;stroke-width:1.5;"/><path d="M338.5,502.0547 C338.5,512.0547 356.5,512.0547 356.5,512.0547 C356.5,512.0547 374.5,512.0547 374.5,502.0547 " fill="none" style="stroke:#181818;stroke-width:1.5;"/><text fill="#000000" font-family="sans-serif" font-size="14" lengthAdjust="spacing" textLength="40" x="434" y="63.9951">Cloud</text><path d="M439,15 C439,5 457,5 457,5 C457,5 475,5 475,15 L475,41 C475,51 457,51 457,51 C457,51 439,51 439,41 L439,15 " fill="#E2E2F0" style="stroke:#181818;stroke-width:1.5;"/><path d="M439,15 C439,25 457,25 457,25 C457,25 475,25 475,15 " fill="none" style="stroke:#181818;stroke-width:1.5;"/><text fill="#000000" font-family="sans-serif" font-size="14" lengthAdjust="spacing" textLength="40" x="434" y="488.7529">Cloud</text><path d="M439,502.0547 C439,492.0547 457,492.0547 457,492.0547 C457,492.0547 475,492.0547 475,502.0547 L475,528.0547 C475,538.0547 457,538.0547 457,538.0547 C457,538.0547 439,538.0547 439,528.0547 L439,502.0547 " fill="#E2E2F0" style="stroke:#181818;stroke-width:1.5;"/><path d="M439,502.0547 C439,512.0547 457,512.0547 457,512.0547 C457,512.0547 475,512.0547 475,502.0547 " fill="none" style="stroke:#181818;stroke-width:1.5;"/><rect fill="#E2E2F0" height="30.2969" rx="2.5" ry="2.5" style="stroke:#181818;stroke-width:0.5;" width="28" x="490" y="36"/><text fill="#000000" font-family="sans-serif" font-size="14" lengthAdjust="spacing" textLength="14" x="497" y="55.9951">KI</text><rect fill="#E2E2F0" height="30.2969" rx="2.5" ry="2.5" style="stroke:#181818;stroke-width:0.5;" width="28" x="490" y="475.7578"/><text fill="#000000" font-family="sans-serif" font-size="14" lengthAdjust="spacing" textLength="14" x="497" y="495.7529">KI</text><rect fill="#FFFFFF" height="390.4609" style="stroke:#181818;stroke-width:1.0;" width="10" x="62" y="77.2969"/><rect fill="#FFFFFF" height="129.5313" style="stroke:#181818;stroke-width:1.0;" width="10" x="207" y="98.4297"/><rect fill="#FFFFFF" height="29.1328" style="stroke:#181818;stroke-width:1.0;" width="10" x="351.5" y="127.5625"/><rect fill="#FFFFFF" height="30" style="stroke:#181818;stroke-width:1.0;" width="10" x="452" y="328.3594"/><rect fill="#FFFFFF" height="29.1328" style="stroke:#181818;stroke-width:1.0;" width="10" x="452" y="387.4922"/><rect fill="#FFFFFF" height="71.2656" style="stroke:#181818;stroke-width:1.0;" width="10" x="499" y="227.9609"/><polygon fill="#181818" points="195,94.4297,205,98.4297,195,102.4297,199,98.4297" style="stroke:#181818;stroke-width:1.0;"/><line style="stroke:#181818;stroke-width:1.0;" x1="72" x2="201" y1="98.4297" y2="98.4297"/><text fill="#000000" font-family="sans-serif" font-size="13" lengthAdjust="spacing" textLength="65" x="79" y="93.3638">neues Bild</text><polygon fill="#181818" points="339.5,123.5625,349.5,127.5625,339.5,131.5625,343.5,127.5625" style="stroke:#181818;stroke-width:1.0;"/><line style="stroke:#181818;stroke-width:1.0;" x1="217" x2="345.5" y1="127.5625" y2="127.5625"/><text fill="#000000" font-family="sans-serif" font-size="13" lengthAdjust="spacing" textLength="61" x="224" y="122.4966">Bild laden</text><polygon fill="#181818" points="228,152.6953,218,156.6953,228,160.6953,224,156.6953" style="stroke:#181818;stroke-width:1.0;"/><line style="stroke:#181818;stroke-width:1.0;stroke-dasharray:2.0,2.0;" x1="222" x2="355.5" y1="156.6953" y2="156.6953"/><text fill="#000000" font-family="sans-serif" font-size="13" lengthAdjust="spacing" textLength="22" x="234" y="151.6294">Bild</text><line style="stroke:#181818;stroke-width:1.0;" x1="217" x2="259" y1="185.8281" y2="185.8281"/><line style="stroke:#181818;stroke-width:1.0;" x1="259" x2="259" y1="185.8281" y2="198.8281"/><line style="stroke:#181818;stroke-width:1.0;" x1="218" x2="259" y1="198.8281" y2="198.8281"/><polygon fill="#181818" points="228,194.8281,218,198.8281,228,202.8281,224,198.8281" style="stroke:#181818;stroke-width:1.0;"/><text fill="#000000" font-family="sans-serif" font-size="13" lengthAdjust="spacing" textLength="100" x="224" y="180.7622">Bild verarbeiten</text><polygon fill="#181818" points="487,223.9609,497,227.9609,487,231.9609,491,227.9609" style="stroke:#181818;stroke-width:1.0;"/><line style="stroke:#181818;stroke-width:1.0;" x1="212" x2="493" y1="227.9609" y2="227.9609"/><text fill="#000000" font-family="sans-serif" font-size="13" lengthAdjust="spacing" textLength="112" x="219" y="222.895">verarbeitetes Bild</text><line style="stroke:#181818;stroke-width:1.0;" x1="509" x2="551" y1="257.0938" y2="257.0938"/><line style="stroke:#181818;stroke-width:1.0;" x1="551" x2="551" y1="257.0938" y2="270.0938"/><line style="stroke:#181818;stroke-width:1.0;" x1="510" x2="551" y1="270.0938" y2="270.0938"/><polygon fill="#181818" points="520,266.0938,510,270.0938,520,274.0938,516,270.0938" style="stroke:#181818;stroke-width:1.0;"/><text fill="#000000" font-family="sans-serif" font-size="13" lengthAdjust="spacing" textLength="215" x="516" y="252.0278">Farbe und Koordinanten ermitteln</text><polygon fill="#181818" points="83,295.2266,73,299.2266,83,303.2266,79,299.2266" style="stroke:#181818;stroke-width:1.0;"/><line style="stroke:#181818;stroke-width:1.0;" x1="77" x2="503" y1="299.2266" y2="299.2266"/><text fill="#000000" font-family="sans-serif" font-size="13" lengthAdjust="spacing" textLength="214" x="89" y="294.1606">Farbe und Koordinaten der Tafeln</text><line style="stroke:#181818;stroke-width:1.0;" x1="450" x2="440" y1="328.3594" y2="324.3594"/><line style="stroke:#181818;stroke-width:1.0;" x1="450" x2="440" y1="328.3594" y2="332.3594"/><line style="stroke:#181818;stroke-width:1.0;" x1="72" x2="451" y1="328.3594" y2="328.3594"/><text fill="#000000" font-family="sans-serif" font-size="13" lengthAdjust="spacing" textLength="139" x="79" y="323.2935">Anzahl Tafeln melden</text><polygon fill="#181818" points="440,383.4922,450,387.4922,440,391.4922,444,387.4922" style="stroke:#181818;stroke-width:1.0;"/><line style="stroke:#181818;stroke-width:1.0;" x1="72" x2="446" y1="387.4922" y2="387.4922"/><text fill="#000000" font-family="sans-serif" font-size="13" lengthAdjust="spacing" textLength="135" x="79" y="382.4263">Auftragsliste abrufen</text><polygon fill="#181818" points="83,412.625,73,416.625,83,420.625,79,416.625" style="stroke:#181818;stroke-width:1.0;"/><line style="stroke:#181818;stroke-width:1.0;stroke-dasharray:2.0,2.0;" x1="77" x2="456" y1="416.625" y2="416.625"/><text fill="#000000" font-family="sans-serif" font-size="13" lengthAdjust="spacing" textLength="48" x="89" y="411.5591">Auftrag</text><line style="stroke:#181818;stroke-width:1.0;" x1="72" x2="114" y1="445.7578" y2="445.7578"/><line style="stroke:#181818;stroke-width:1.0;" x1="114" x2="114" y1="445.7578" y2="458.7578"/><line style="stroke:#181818;stroke-width:1.0;" x1="73" x2="114" y1="458.7578" y2="458.7578"/><polygon fill="#181818" points="83,454.7578,73,458.7578,83,462.7578,79,458.7578" style="stroke:#181818;stroke-width:1.0;"/><text fill="#000000" font-family="sans-serif" font-size="13" lengthAdjust="spacing" textLength="121" x="79" y="440.6919">Auftrag bearbeiten</text><!--SRC=[ZP8nRiCm34Ltdu8Nw0Ko14XR50YyTYyeYqw5AdH0Knbw-agn7AMM2dGb_tyazJLCh39vE1YFOPoL0adWKtT1KJUu2xB2i_FsIe9Yo6bgMbGqE1EyeX8RvA-Ff24fdHS_1TjrEAYxHb75xpO5UDfNStR0iJlVweLKRRCj9DHsiTtD1XujSK5Lwmjf45u6jh1LBNFljKXl-VfZL1QHhaTP-lkiicP_x29WnRmb2GIsq4-JMCSn8c8WEJjLyfors_Tj6PCldWtlE2RZmpPnP2EX_H9hP1tu6pzzDiAP_AztNS9_mENVqCZy3WoZ2fvcxs8Rq4WOQsAE9sl_Dw1-Xsm7GsjcFm00]--></g></svg>