<?xml version="1.0" encoding="us-ascii" standalone="no"?><svg xmlns="http://www.w3.org/2000/svg" xmlns:xlink="http://www.w3.org/1999/xlink" contentStyleType="text/css" height="758px" preserveAspectRatio="none" style="width:1058px;height:758px;background:#FFFFFF;" version="1.1" viewBox="0 0 1058 758" width="1058px" zoomAndPan="magnify"><defs/><g><rect fill="#FFFFFF" height="594.3906" style="stroke:#181818;stroke-width:1.0;" width="10" x="62" y="77.2969"/><rect fill="#FFFFFF" height="129.5313" style="stroke:#181818;stroke-width:1.0;" width="10" x="207" y="98.4297"/><rect fill="#FFFFFF" height="29.1328" style="stroke:#181818;stroke-width:1.0;" width="10" x="351.5" y="127.5625"/><rect fill="#FFFFFF" height="29.1328" style="stroke:#181818;stroke-width:1.0;" width="10" x="351.5" y="286.2266"/><rect fill="#FFFFFF" height="30" style="stroke:#181818;stroke-width:1.0;" width="10" x="452" y="532.2891"/><rect fill="#FFFFFF" height="29.1328" style="stroke:#181818;stroke-width:1.0;" width="10" x="452" y="591.4219"/><rect fill="#FFFFFF" height="29.1328" style="stroke:#181818;stroke-width:1.0;" width="10" x="576" y="386.625"/><rect fill="#FFFFFF" height="29.1328" style="stroke:#181818;stroke-width:1.0;" width="10" x="576" y="474.0234"/><rect fill="#FFFFFF" height="187.7969" style="stroke:#181818;stroke-width:1.0;" width="10" x="819" y="257.0938"/><line style="stroke:#181818;stroke-width:0.5;stroke-dasharray:5.0,5.0;" x1="67" x2="67" y1="67.2969" y2="680.6875"/><line style="stroke:#181818;stroke-width:0.5;stroke-dasharray:5.0,5.0;" x1="212" x2="212" y1="67.2969" y2="680.6875"/><line style="stroke:#181818;stroke-width:0.5;stroke-dasharray:5.0,5.0;" x1="356" x2="356" y1="67.2969" y2="680.6875"/><line style="stroke:#181818;stroke-width:0.5;stroke-dasharray:5.0,5.0;" x1="457" x2="457" y1="67.2969" y2="680.6875"/><line style="stroke:#181818;stroke-width:0.5;stroke-dasharray:5.0,5.0;" x1="581" x2="581" y1="67.2969" y2="680.6875"/><line style="stroke:#181818;stroke-width:0.5;stroke-dasharray:5.0,5.0;" x1="824" x2="824" y1="67.2969" y2="680.6875"/><text fill="#000000" font-family="sans-serif" font-size="14" lengthAdjust="spacing" textLength="118" x="5" y="63.9951">Ablaufsteuerung</text><ellipse cx="67" cy="35" fill="#E2E2F0" rx="12" ry="12" style="stroke:#181818;stroke-width:0.5;"/><polygon fill="#181818" points="63,23,69,18,67,23,69,28,63,23" style="stroke:#181818;stroke-width:1.0;"/><text fill="#000000" font-family="sans-serif" font-size="14" lengthAdjust="spacing" textLength="118" x="5" y="692.6826">Ablaufsteuerung</text><ellipse cx="67" cy="711.9844" fill="#E2E2F0" rx="12" ry="12" style="stroke:#181818;stroke-width:0.5;"/><polygon fill="#181818" points="63,699.9844,69,694.9844,67,699.9844,69,704.9844,63,699.9844" style="stroke:#181818;stroke-width:1.0;"/><rect fill="#E2E2F0" height="30.2969" rx="2.5" ry="2.5" style="stroke:#181818;stroke-width:0.5;" width="134" x="145" y="36"/><text fill="#000000" font-family="sans-serif" font-size="14" lengthAdjust="spacing" textLength="120" x="152" y="55.9951">Bildverarbeitung</text><rect fill="#E2E2F0" height="30.2969" rx="2.5" ry="2.5" style="stroke:#181818;stroke-width:0.5;" width="134" x="145" y="679.6875"/><text fill="#000000" font-family="sans-serif" font-size="14" lengthAdjust="spacing" textLength="120" x="152" y="699.6826">Bildverarbeitung</text><text fill="#000000" font-family="sans-serif" font-size="14" lengthAdjust="spacing" textLength="129" x="289" y="63.9951">Datenbank_Bilder</text><path d="M338.5,15 C338.5,5 356.5,5 356.5,5 C356.5,5 374.5,5 374.5,15 L374.5,41 C374.5,51 356.5,51 356.5,51 C356.5,51 338.5,51 338.5,41 L338.5,15 " fill="#E2E2F0" style="stroke:#181818;stroke-width:1.5;"/><path d="M338.5,15 C338.5,25 356.5,25 356.5,25 C356.5,25 374.5,25 374.5,15 " fill="none" style="stroke:#181818;stroke-width:1.5;"/><text fill="#000000" font-family="sans-serif" font-size="14" lengthAdjust="spacing" textLength="129" x="289" y="692.6826">Datenbank_Bilder</text><path d="M338.5,705.9844 C338.5,695.9844 356.5,695.9844 356.5,695.9844 C356.5,695.9844 374.5,695.9844 374.5,705.9844 L374.5,731.9844 C374.5,741.9844 356.5,741.9844 356.5,741.9844 C356.5,741.9844 338.5,741.9844 338.5,731.9844 L338.5,705.9844 " fill="#E2E2F0" style="stroke:#181818;stroke-width:1.5;"/><path d="M338.5,705.9844 C338.5,715.9844 356.5,715.9844 356.5,715.9844 C356.5,715.9844 374.5,715.9844 374.5,705.9844 " fill="none" style="stroke:#181818;stroke-width:1.5;"/><text fill="#000000" font-family="sans-serif" font-size="14" lengthAdjust="spacing" textLength="40" x="434" y="63.9951">Cloud</text><path d="M439,15 C439,5 457,5 457,5 C457,5 475,5 475,15 L475,41 C475,51 457,51 457,51 C457,51 439,51 439,41 L439,15 " fill="#E2E2F0" style="stroke:#181818;stroke-width:1.5;"/><path d="M439,15 C439,25 457,25 457,25 C457,25 475,25 475,15 " fill="none" style="stroke:#181818;stroke-width:1.5;"/><text fill="#000000" font-family="sans-serif" font-size="14" lengthAdjust="spacing" textLength="40" x="434" y="692.6826">Cloud</text><path d="M439,705.9844 C439,695.9844 457,695.9844 457,695.9844 C457,695.9844 475,695.9844 475,705.9844 L475,731.9844 C475,741.9844 457,741.9844 457,741.9844 C457,741.9844 439,741.9844 439,731.9844 L439,705.9844 " fill="#E2E2F0" style="stroke:#181818;stroke-width:1.5;"/><path d="M439,705.9844 C439,715.9844 457,715.9844 457,715.9844 C457,715.9844 475,715.9844 475,705.9844 " fill="none" style="stroke:#181818;stroke-width:1.5;"/><text fill="#000000" font-family="sans-serif" font-size="14" lengthAdjust="spacing" textLength="176" x="490" y="63.9951">Datenbank_Koordinaten</text><path d="M563,15 C563,5 581,5 581,5 C581,5 599,5 599,15 L599,41 C599,51 581,51 581,51 C581,51 563,51 563,41 L563,15 " fill="#E2E2F0" style="stroke:#181818;stroke-width:1.5;"/><path d="M563,15 C563,25 581,25 581,25 C581,25 599,25 599,15 " fill="none" style="stroke:#181818;stroke-width:1.5;"/><text fill="#000000" font-family="sans-serif" font-size="14" lengthAdjust="spacing" textLength="176" x="490" y="692.6826">Datenbank_Koordinaten</text><path d="M563,705.9844 C563,695.9844 581,695.9844 581,695.9844 C581,695.9844 599,695.9844 599,705.9844 L599,731.9844 C599,741.9844 581,741.9844 581,741.9844 C581,741.9844 563,741.9844 563,731.9844 L563,705.9844 " fill="#E2E2F0" style="stroke:#181818;stroke-width:1.5;"/><path d="M563,705.9844 C563,715.9844 581,715.9844 581,715.9844 C581,715.9844 599,715.9844 599,705.9844 " fill="none" style="stroke:#181818;stroke-width:1.5;"/><rect fill="#E2E2F0" height="30.2969" rx="2.5" ry="2.5" style="stroke:#181818;stroke-width:0.5;" width="28" x="810" y="36"/><text fill="#000000" font-family="sans-serif" font-size="14" lengthAdjust="spacing" textLength="14" x="817" y="55.9951">KI</text><rect fill="#E2E2F0" height="30.2969" rx="2.5" ry="2.5" style="stroke:#181818;stroke-width:0.5;" width="28" x="810" y="679.6875"/><text fill="#000000" font-family="sans-serif" font-size="14" lengthAdjust="spacing" textLength="14" x="817" y="699.6826">KI</text><rect fill="#FFFFFF" height="594.3906" style="stroke:#181818;stroke-width:1.0;" width="10" x="62" y="77.2969"/><rect fill="#FFFFFF" height="129.5313" style="stroke:#181818;stroke-width:1.0;" width="10" x="207" y="98.4297"/><rect fill="#FFFFFF" height="29.1328" style="stroke:#181818;stroke-width:1.0;" width="10" x="351.5" y="127.5625"/><rect fill="#FFFFFF" height="29.1328" style="stroke:#181818;stroke-width:1.0;" width="10" x="351.5" y="286.2266"/><rect fill="#FFFFFF" height="30" style="stroke:#181818;stroke-width:1.0;" width="10" x="452" y="532.2891"/><rect fill="#FFFFFF" height="29.1328" style="stroke:#181818;stroke-width:1.0;" width="10" x="452" y="591.4219"/><rect fill="#FFFFFF" height="29.1328" style="stroke:#181818;stroke-width:1.0;" width="10" x="576" y="386.625"/><rect fill="#FFFFFF" height="29.1328" style="stroke:#181818;stroke-width:1.0;" width="10" x="576" y="474.0234"/><rect fill="#FFFFFF" height="187.7969" style="stroke:#181818;stroke-width:1.0;" width="10" x="819" y="257.0938"/><polygon fill="#181818" points="195,94.4297,205,98.4297,195,102.4297,199,98.4297" style="stroke:#181818;stroke-width:1.0;"/><line style="stroke:#181818;stroke-width:1.0;" x1="72" x2="201" y1="98.4297" y2="98.4297"/><text fill="#000000" font-family="sans-serif" font-size="13" lengthAdjust="spacing" textLength="65" x="79" y="93.3638">neues Bild</text><polygon fill="#181818" points="339.5,123.5625,349.5,127.5625,339.5,131.5625,343.5,127.5625" style="stroke:#181818;stroke-width:1.0;"/><line style="stroke:#181818;stroke-width:1.0;" x1="217" x2="345.5" y1="127.5625" y2="127.5625"/><text fill="#000000" font-family="sans-serif" font-size="13" lengthAdjust="spacing" textLength="61" x="224" y="122.4966">Bild laden</text><polygon fill="#181818" points="228,152.6953,218,156.6953,228,160.6953,224,156.6953" style="stroke:#181818;stroke-width:1.0;"/><line style="stroke:#181818;stroke-width:1.0;stroke-dasharray:2.0,2.0;" x1="222" x2="355.5" y1="156.6953" y2="156.6953"/><text fill="#000000" font-family="sans-serif" font-size="13" lengthAdjust="spacing" textLength="22" x="234" y="151.6294">Bild</text><line style="stroke:#181818;stroke-width:1.0;" x1="217" x2="259" y1="185.8281" y2="185.8281"/><line style="stroke:#181818;stroke-width:1.0;" x1="259" x2="259" y1="185.8281" y2="198.8281"/><line style="stroke:#181818;stroke-width:1.0;" x1="218" x2="259" y1="198.8281" y2="198.8281"/><polygon fill="#181818" points="228,194.8281,218,198.8281,228,202.8281,224,198.8281" style="stroke:#181818;stroke-width:1.0;"/><text fill="#000000" font-family="sans-serif" font-size="13" lengthAdjust="spacing" textLength="100" x="224" y="180.7622">Bild verarbeiten</text><polygon fill="#181818" points="83,223.9609,73,227.9609,83,231.9609,79,227.9609" style="stroke:#181818;stroke-width:1.0;"/><line style="stroke:#181818;stroke-width:1.0;stroke-dasharray:2.0,2.0;" x1="77" x2="211" y1="227.9609" y2="227.9609"/><text fill="#000000" font-family="sans-serif" font-size="13" lengthAdjust="spacing" textLength="48" x="89" y="222.895">Erledigt</text><polygon fill="#181818" points="807,253.0938,817,257.0938,807,261.0938,811,257.0938" style="stroke:#181818;stroke-width:1.0;"/><line style="stroke:#181818;stroke-width:1.0;" x1="72" x2="813" y1="257.0938" y2="257.0938"/><text fill="#000000" font-family="sans-serif" font-size="13" lengthAdjust="spacing" textLength="201" x="79" y="252.0278">verarbeitetes Bild in Datenbank</text><polygon fill="#181818" points="372.5,282.2266,362.5,286.2266,372.5,290.2266,368.5,286.2266" style="stroke:#181818;stroke-width:1.0;"/><line style="stroke:#181818;stroke-width:1.0;" x1="366.5" x2="818" y1="286.2266" y2="286.2266"/><text fill="#000000" font-family="sans-serif" font-size="13" lengthAdjust="spacing" textLength="151" x="378.5" y="281.1606">verarbeitetes Bild laden</text><polygon fill="#181818" points="807,311.3594,817,315.3594,807,319.3594,811,315.3594" style="stroke:#181818;stroke-width:1.0;"/><line style="stroke:#181818;stroke-width:1.0;stroke-dasharray:2.0,2.0;" x1="356.5" x2="813" y1="315.3594" y2="315.3594"/><text fill="#000000" font-family="sans-serif" font-size="13" lengthAdjust="spacing" textLength="112" x="363.5" y="310.2935">verarbeitetes Bild</text><line style="stroke:#181818;stroke-width:1.0;" x1="829" x2="871" y1="344.4922" y2="344.4922"/><line style="stroke:#181818;stroke-width:1.0;" x1="871" x2="871" y1="344.4922" y2="357.4922"/><line style="stroke:#181818;stroke-width:1.0;" x1="830" x2="871" y1="357.4922" y2="357.4922"/><polygon fill="#181818" points="840,353.4922,830,357.4922,840,361.4922,836,357.4922" style="stroke:#181818;stroke-width:1.0;"/><text fill="#000000" font-family="sans-serif" font-size="13" lengthAdjust="spacing" textLength="215" x="836" y="339.4263">Farbe und Koordinanten ermitteln</text><polygon fill="#181818" points="597,382.625,587,386.625,597,390.625,593,386.625" style="stroke:#181818;stroke-width:1.0;"/><line style="stroke:#181818;stroke-width:1.0;" x1="591" x2="818" y1="386.625" y2="386.625"/><text fill="#000000" font-family="sans-serif" font-size="13" lengthAdjust="spacing" textLength="214" x="603" y="381.5591">Farbe und Koordinaten der Tafeln</text><polygon fill="#181818" points="807,411.7578,817,415.7578,807,419.7578,811,415.7578" style="stroke:#181818;stroke-width:1.0;"/><line style="stroke:#181818;stroke-width:1.0;stroke-dasharray:2.0,2.0;" x1="581" x2="813" y1="415.7578" y2="415.7578"/><text fill="#000000" font-family="sans-serif" font-size="13" lengthAdjust="spacing" textLength="48" x="588" y="410.6919">Erledigt</text><polygon fill="#181818" points="83,440.8906,73,444.8906,83,448.8906,79,444.8906" style="stroke:#181818;stroke-width:1.0;"/><line style="stroke:#181818;stroke-width:1.0;stroke-dasharray:2.0,2.0;" x1="77" x2="823" y1="444.8906" y2="444.8906"/><text fill="#000000" font-family="sans-serif" font-size="13" lengthAdjust="spacing" textLength="242" x="89" y="439.8247">Koordinaten und Farben in Datenbank</text><polygon fill="#181818" points="564,470.0234,574,474.0234,564,478.0234,568,474.0234" style="stroke:#181818;stroke-width:1.0;"/><line style="stroke:#181818;stroke-width:1.0;" x1="72" x2="570" y1="474.0234" y2="474.0234"/><text fill="#000000" font-family="sans-serif" font-size="13" lengthAdjust="spacing" textLength="206" x="79" y="468.9575">Farbe und Koordinaten auslesen</text><polygon fill="#181818" points="83,499.1563,73,503.1563,83,507.1563,79,503.1563" style="stroke:#181818;stroke-width:1.0;"/><line style="stroke:#181818;stroke-width:1.0;stroke-dasharray:2.0,2.0;" x1="77" x2="580" y1="503.1563" y2="503.1563"/><text fill="#000000" font-family="sans-serif" font-size="13" lengthAdjust="spacing" textLength="145" x="89" y="498.0903">Farbe und Koordinaten</text><line style="stroke:#181818;stroke-width:1.0;" x1="450" x2="440" y1="532.2891" y2="528.2891"/><line style="stroke:#181818;stroke-width:1.0;" x1="450" x2="440" y1="532.2891" y2="536.2891"/><line style="stroke:#181818;stroke-width:1.0;" x1="72" x2="451" y1="532.2891" y2="532.2891"/><text fill="#000000" font-family="sans-serif" font-size="13" lengthAdjust="spacing" textLength="139" x="79" y="527.2231">Anzahl Tafeln melden</text><polygon fill="#181818" points="440,587.4219,450,591.4219,440,595.4219,444,591.4219" style="stroke:#181818;stroke-width:1.0;"/><line style="stroke:#181818;stroke-width:1.0;" x1="72" x2="446" y1="591.4219" y2="591.4219"/><text fill="#000000" font-family="sans-serif" font-size="13" lengthAdjust="spacing" textLength="135" x="79" y="586.356">Auftragsliste abrufen</text><polygon fill="#181818" points="83,616.5547,73,620.5547,83,624.5547,79,620.5547" style="stroke:#181818;stroke-width:1.0;"/><line style="stroke:#181818;stroke-width:1.0;stroke-dasharray:2.0,2.0;" x1="77" x2="456" y1="620.5547" y2="620.5547"/><text fill="#000000" font-family="sans-serif" font-size="13" lengthAdjust="spacing" textLength="48" x="89" y="615.4888">Auftrag</text><line style="stroke:#181818;stroke-width:1.0;" x1="72" x2="114" y1="649.6875" y2="649.6875"/><line style="stroke:#181818;stroke-width:1.0;" x1="114" x2="114" y1="649.6875" y2="662.6875"/><line style="stroke:#181818;stroke-width:1.0;" x1="73" x2="114" y1="662.6875" y2="662.6875"/><polygon fill="#181818" points="83,658.6875,73,662.6875,83,666.6875,79,662.6875" style="stroke:#181818;stroke-width:1.0;"/><text fill="#000000" font-family="sans-serif" font-size="13" lengthAdjust="spacing" textLength="121" x="79" y="644.6216">Auftrag bearbeiten</text><!--SRC=[bPFFReCm3CRlF8LVO2_0eLBtJwfwtNqonB1egQcCqyEUVWbDeP18wsx4plVvPvkq0wiC3lQDGz-DIfx4Sr-TKTIszeoiy6oTkP2WD6Gr9WqgDZWIlA8IDyZVd_4EoP9vSOCtfOl7OH1ZEPwh2bkrb_2PbQys0NZQPHWrSCYEKtnnoc2tWMYrvQud6JWqWMgsoheJKYzyBLYopMB9Tuu5z-Jn9ewCxRNOwV4Gb8j8KvDWUM5QC8-7AWWANPLD7cmoLwOg4znxp85d0xTzSh01afDL9SSPqTtQY_8OZyWVs4Lv0U_-nzaEqT0VWeWJUBQphbVr8yz4nkj9txc7MPSMzhy-qO-EHdgqow992MDtVNMXxfv_yCkbOSA9t6hbwMtI9b1gR3RqdGhsexCX3TY8xtB7n9lkFbOWtqYIGqEtD_CB]--></g></svg>