<?xml version="1.0" encoding="us-ascii" standalone="no"?><svg xmlns="http://www.w3.org/2000/svg" xmlns:xlink="http://www.w3.org/1999/xlink" contentStyleType="text/css" height="764px" preserveAspectRatio="none" style="width:789px;height:764px;background:#FFFFFF;" version="1.1" viewBox="0 0 789 764" width="789px" zoomAndPan="magnify"><defs/><g><rect fill="#FFFFFF" height="599.125" style="stroke:#181818;stroke-width:1.0;" width="10" x="65" y="77.2969"/><rect fill="#FFFFFF" height="30" style="stroke:#181818;stroke-width:1.0;" width="10" x="153.5" y="98.4297"/><rect fill="#FFFFFF" height="30" style="stroke:#181818;stroke-width:1.0;" width="10" x="244.5" y="157.5625"/><rect fill="#FFFFFF" height="71.2656" style="stroke:#181818;stroke-width:1.0;" width="10" x="331.5" y="216.6953"/><rect fill="#FFFFFF" height="71.2656" style="stroke:#181818;stroke-width:1.0;" width="10" x="455.5" y="317.0938"/><rect fill="#FFFFFF" height="30" style="stroke:#181818;stroke-width:1.0;" width="10" x="579.5" y="417.4922"/><rect fill="#FFFFFF" height="29.1328" style="stroke:#181818;stroke-width:1.0;" width="10" x="579.5" y="500.7578"/><rect fill="#FFFFFF" height="71.2656" style="stroke:#181818;stroke-width:1.0;" width="10" x="663.5" y="583.1563"/><rect fill="none" height="206.9297" style="stroke:#000000;stroke-width:1.5;" width="773.5" x="10" y="462.4922"/><rect fill="none" height="117.5313" style="stroke:#000000;stroke-width:1.5;" width="753.5" x="20" y="544.8906"/><line style="stroke:#181818;stroke-width:0.5;stroke-dasharray:5.0,5.0;" x1="70" x2="70" y1="67.2969" y2="686.4219"/><line style="stroke:#181818;stroke-width:0.5;stroke-dasharray:5.0,5.0;" x1="158" x2="158" y1="67.2969" y2="686.4219"/><line style="stroke:#181818;stroke-width:0.5;stroke-dasharray:5.0,5.0;" x1="249" x2="249" y1="67.2969" y2="686.4219"/><line style="stroke:#181818;stroke-width:0.5;stroke-dasharray:5.0,5.0;" x1="336" x2="336" y1="67.2969" y2="686.4219"/><line style="stroke:#181818;stroke-width:0.5;stroke-dasharray:5.0,5.0;" x1="460.5" x2="460.5" y1="67.2969" y2="686.4219"/><line style="stroke:#181818;stroke-width:0.5;stroke-dasharray:5.0,5.0;" x1="584.5" x2="584.5" y1="67.2969" y2="686.4219"/><line style="stroke:#181818;stroke-width:0.5;stroke-dasharray:5.0,5.0;" x1="668.5" x2="668.5" y1="67.2969" y2="686.4219"/><text fill="#000000" font-family="sans-serif" font-size="14" lengthAdjust="spacing" textLength="74" x="30" y="63.9951">Steuerung</text><ellipse cx="70" cy="35" fill="#E2E2F0" rx="12" ry="12" style="stroke:#181818;stroke-width:0.5;"/><polygon fill="#181818" points="66,23,72,18,70,23,72,28,66,23" style="stroke:#181818;stroke-width:1.0;"/><text fill="#000000" font-family="sans-serif" font-size="14" lengthAdjust="spacing" textLength="74" x="30" y="698.417">Steuerung</text><ellipse cx="70" cy="717.7188" fill="#E2E2F0" rx="12" ry="12" style="stroke:#181818;stroke-width:0.5;"/><polygon fill="#181818" points="66,705.7188,72,700.7188,70,705.7188,72,710.7188,66,705.7188" style="stroke:#181818;stroke-width:1.0;"/><rect fill="#E2E2F0" height="30.2969" rx="2.5" ry="2.5" style="stroke:#181818;stroke-width:0.5;" width="77" x="120" y="36"/><text fill="#000000" font-family="sans-serif" font-size="14" lengthAdjust="spacing" textLength="63" x="127" y="55.9951">Sch&#252;tter</text><rect fill="#E2E2F0" height="30.2969" rx="2.5" ry="2.5" style="stroke:#181818;stroke-width:0.5;" width="77" x="120" y="685.4219"/><text fill="#000000" font-family="sans-serif" font-size="14" lengthAdjust="spacing" textLength="63" x="127" y="705.417">Sch&#252;tter</text><rect fill="#E2E2F0" height="30.2969" rx="2.5" ry="2.5" style="stroke:#181818;stroke-width:0.5;" width="85" x="207" y="36"/><text fill="#000000" font-family="sans-serif" font-size="14" lengthAdjust="spacing" textLength="71" x="214" y="55.9951">Flie&#223;band</text><rect fill="#E2E2F0" height="30.2969" rx="2.5" ry="2.5" style="stroke:#181818;stroke-width:0.5;" width="85" x="207" y="685.4219"/><text fill="#000000" font-family="sans-serif" font-size="14" lengthAdjust="spacing" textLength="71" x="214" y="705.417">Flie&#223;band</text><rect fill="#E2E2F0" height="30.2969" rx="2.5" ry="2.5" style="stroke:#181818;stroke-width:0.5;" width="69" x="302" y="36"/><text fill="#000000" font-family="sans-serif" font-size="14" lengthAdjust="spacing" textLength="55" x="309" y="55.9951">Kamera</text><rect fill="#E2E2F0" height="30.2969" rx="2.5" ry="2.5" style="stroke:#181818;stroke-width:0.5;" width="69" x="302" y="685.4219"/><text fill="#000000" font-family="sans-serif" font-size="14" lengthAdjust="spacing" textLength="55" x="309" y="705.417">Kamera</text><rect fill="#E2E2F0" height="30.2969" rx="2.5" ry="2.5" style="stroke:#181818;stroke-width:0.5;" width="134" x="393.5" y="36"/><text fill="#000000" font-family="sans-serif" font-size="14" lengthAdjust="spacing" textLength="120" x="400.5" y="55.9951">Bildverarbeitung</text><rect fill="#E2E2F0" height="30.2969" rx="2.5" ry="2.5" style="stroke:#181818;stroke-width:0.5;" width="134" x="393.5" y="685.4219"/><text fill="#000000" font-family="sans-serif" font-size="14" lengthAdjust="spacing" textLength="120" x="400.5" y="705.417">Bildverarbeitung</text><text fill="#000000" font-family="sans-serif" font-size="14" lengthAdjust="spacing" textLength="40" x="561.5" y="63.9951">Cloud</text><path d="M566.5,15 C566.5,5 584.5,5 584.5,5 C584.5,5 602.5,5 602.5,15 L602.5,41 C602.5,51 584.5,51 584.5,51 C584.5,51 566.5,51 566.5,41 L566.5,15 " fill="#E2E2F0" style="stroke:#181818;stroke-width:1.5;"/><path d="M566.5,15 C566.5,25 584.5,25 584.5,25 C584.5,25 602.5,25 602.5,15 " fill="none" style="stroke:#181818;stroke-width:1.5;"/><text fill="#000000" font-family="sans-serif" font-size="14" lengthAdjust="spacing" textLength="40" x="561.5" y="698.417">Cloud</text><path d="M566.5,711.7188 C566.5,701.7188 584.5,701.7188 584.5,701.7188 C584.5,701.7188 602.5,701.7188 602.5,711.7188 L602.5,737.7188 C602.5,747.7188 584.5,747.7188 584.5,747.7188 C584.5,747.7188 566.5,747.7188 566.5,737.7188 L566.5,711.7188 " fill="#E2E2F0" style="stroke:#181818;stroke-width:1.5;"/><path d="M566.5,711.7188 C566.5,721.7188 584.5,721.7188 584.5,721.7188 C584.5,721.7188 602.5,721.7188 602.5,711.7188 " fill="none" style="stroke:#181818;stroke-width:1.5;"/><rect fill="#E2E2F0" height="30.2969" rx="2.5" ry="2.5" style="stroke:#181818;stroke-width:0.5;" width="102" x="617.5" y="36"/><text fill="#000000" font-family="sans-serif" font-size="14" lengthAdjust="spacing" textLength="88" x="624.5" y="55.9951">Roboterarm</text><rect fill="#E2E2F0" height="30.2969" rx="2.5" ry="2.5" style="stroke:#181818;stroke-width:0.5;" width="102" x="617.5" y="685.4219"/><text fill="#000000" font-family="sans-serif" font-size="14" lengthAdjust="spacing" textLength="88" x="624.5" y="705.417">Roboterarm</text><rect fill="#FFFFFF" height="599.125" style="stroke:#181818;stroke-width:1.0;" width="10" x="65" y="77.2969"/><rect fill="#FFFFFF" height="30" style="stroke:#181818;stroke-width:1.0;" width="10" x="153.5" y="98.4297"/><rect fill="#FFFFFF" height="30" style="stroke:#181818;stroke-width:1.0;" width="10" x="244.5" y="157.5625"/><rect fill="#FFFFFF" height="71.2656" style="stroke:#181818;stroke-width:1.0;" width="10" x="331.5" y="216.6953"/><rect fill="#FFFFFF" height="71.2656" style="stroke:#181818;stroke-width:1.0;" width="10" x="455.5" y="317.0938"/><rect fill="#FFFFFF" height="30" style="stroke:#181818;stroke-width:1.0;" width="10" x="579.5" y="417.4922"/><rect fill="#FFFFFF" height="29.1328" style="stroke:#181818;stroke-width:1.0;" width="10" x="579.5" y="500.7578"/><rect fill="#FFFFFF" height="71.2656" style="stroke:#181818;stroke-width:1.0;" width="10" x="663.5" y="583.1563"/><polygon fill="#181818" points="141.5,94.4297,151.5,98.4297,141.5,102.4297,145.5,98.4297" style="stroke:#181818;stroke-width:1.0;"/><line style="stroke:#181818;stroke-width:1.0;stroke-dasharray:2.0,2.0;" x1="75" x2="147.5" y1="98.4297" y2="98.4297"/><text fill="#000000" font-family="sans-serif" font-size="13" lengthAdjust="spacing" textLength="57" x="82" y="93.3638">Sch&#252;tten</text><polygon fill="#181818" points="232.5,153.5625,242.5,157.5625,232.5,161.5625,236.5,157.5625" style="stroke:#181818;stroke-width:1.0;"/><line style="stroke:#181818;stroke-width:1.0;stroke-dasharray:2.0,2.0;" x1="75" x2="238.5" y1="157.5625" y2="157.5625"/><text fill="#000000" font-family="sans-serif" font-size="13" lengthAdjust="spacing" textLength="63" x="82" y="152.4966">Bef&#246;rdern</text><polygon fill="#181818" points="319.5,212.6953,329.5,216.6953,319.5,220.6953,323.5,216.6953" style="stroke:#181818;stroke-width:1.0;"/><line style="stroke:#181818;stroke-width:1.0;" x1="75" x2="325.5" y1="216.6953" y2="216.6953"/><text fill="#000000" font-family="sans-serif" font-size="13" lengthAdjust="spacing" textLength="89" x="82" y="211.6294">Bild anfordern</text><line style="stroke:#181818;stroke-width:1.0;" x1="341.5" x2="383.5" y1="245.8281" y2="245.8281"/><line style="stroke:#181818;stroke-width:1.0;" x1="383.5" x2="383.5" y1="245.8281" y2="258.8281"/><line style="stroke:#181818;stroke-width:1.0;" x1="342.5" x2="383.5" y1="258.8281" y2="258.8281"/><polygon fill="#181818" points="352.5,254.8281,342.5,258.8281,352.5,262.8281,348.5,258.8281" style="stroke:#181818;stroke-width:1.0;"/><text fill="#000000" font-family="sans-serif" font-size="13" lengthAdjust="spacing" textLength="100" x="348.5" y="240.7622">Bild aufnehmen</text><polygon fill="#181818" points="86,283.9609,76,287.9609,86,291.9609,82,287.9609" style="stroke:#181818;stroke-width:1.0;"/><line style="stroke:#181818;stroke-width:1.0;stroke-dasharray:2.0,2.0;" x1="80" x2="335.5" y1="287.9609" y2="287.9609"/><text fill="#000000" font-family="sans-serif" font-size="13" lengthAdjust="spacing" textLength="22" x="92" y="282.895">Bild</text><polygon fill="#181818" points="443.5,313.0938,453.5,317.0938,443.5,321.0938,447.5,317.0938" style="stroke:#181818;stroke-width:1.0;"/><line style="stroke:#181818;stroke-width:1.0;" x1="75" x2="449.5" y1="317.0938" y2="317.0938"/><text fill="#000000" font-family="sans-serif" font-size="13" lengthAdjust="spacing" textLength="133" x="82" y="312.0278">Bild zum Verarbeiten</text><line style="stroke:#181818;stroke-width:1.0;" x1="465.5" x2="507.5" y1="346.2266" y2="346.2266"/><line style="stroke:#181818;stroke-width:1.0;" x1="507.5" x2="507.5" y1="346.2266" y2="359.2266"/><line style="stroke:#181818;stroke-width:1.0;" x1="466.5" x2="507.5" y1="359.2266" y2="359.2266"/><polygon fill="#181818" points="476.5,355.2266,466.5,359.2266,476.5,363.2266,472.5,359.2266" style="stroke:#181818;stroke-width:1.0;"/><text fill="#000000" font-family="sans-serif" font-size="13" lengthAdjust="spacing" textLength="100" x="472.5" y="341.1606">Bild verarbeiten</text><polygon fill="#181818" points="86,384.3594,76,388.3594,86,392.3594,82,388.3594" style="stroke:#181818;stroke-width:1.0;"/><line style="stroke:#181818;stroke-width:1.0;stroke-dasharray:2.0,2.0;" x1="80" x2="459.5" y1="388.3594" y2="388.3594"/><text fill="#000000" font-family="sans-serif" font-size="13" lengthAdjust="spacing" textLength="159" x="92" y="383.2935">Schwerpunktkoordinaten</text><polygon fill="#181818" points="567.5,413.4922,577.5,417.4922,567.5,421.4922,571.5,417.4922" style="stroke:#181818;stroke-width:1.0;"/><line style="stroke:#181818;stroke-width:1.0;stroke-dasharray:2.0,2.0;" x1="75" x2="573.5" y1="417.4922" y2="417.4922"/><text fill="#000000" font-family="sans-serif" font-size="13" lengthAdjust="spacing" textLength="211" x="82" y="412.4263">Schwerpunktkoordinaten melden</text><path d="M10,462.4922 L88,462.4922 L88,469.625 L78,479.625 L10,479.625 L10,462.4922 " fill="#EEEEEE" style="stroke:#000000;stroke-width:1.5;"/><rect fill="none" height="206.9297" style="stroke:#000000;stroke-width:1.5;" width="773.5" x="10" y="462.4922"/><text fill="#000000" font-family="sans-serif" font-size="13" font-weight="bold" lengthAdjust="spacing" textLength="33" x="25" y="475.5591">loop</text><text fill="#000000" font-family="sans-serif" font-size="11" font-weight="bold" lengthAdjust="spacing" textLength="127" x="103" y="474.7026">[Bis Flie&#223;band leer]</text><polygon fill="#181818" points="567.5,496.7578,577.5,500.7578,567.5,504.7578,571.5,500.7578" style="stroke:#181818;stroke-width:1.0;"/><line style="stroke:#181818;stroke-width:1.0;" x1="75" x2="573.5" y1="500.7578" y2="500.7578"/><text fill="#000000" font-family="sans-serif" font-size="13" lengthAdjust="spacing" textLength="135" x="82" y="495.6919">Auftragsliste abrufen</text><polygon fill="#181818" points="86,525.8906,76,529.8906,86,533.8906,82,529.8906" style="stroke:#181818;stroke-width:1.0;"/><line style="stroke:#181818;stroke-width:1.0;stroke-dasharray:2.0,2.0;" x1="80" x2="583.5" y1="529.8906" y2="529.8906"/><text fill="#000000" font-family="sans-serif" font-size="13" lengthAdjust="spacing" textLength="48" x="92" y="524.8247">Auftrag</text><path d="M20,544.8906 L98,544.8906 L98,552.0234 L88,562.0234 L20,562.0234 L20,544.8906 " fill="#EEEEEE" style="stroke:#000000;stroke-width:1.5;"/><rect fill="none" height="117.5313" style="stroke:#000000;stroke-width:1.5;" width="753.5" x="20" y="544.8906"/><text fill="#000000" font-family="sans-serif" font-size="13" font-weight="bold" lengthAdjust="spacing" textLength="33" x="35" y="557.9575">loop</text><text fill="#000000" font-family="sans-serif" font-size="11" font-weight="bold" lengthAdjust="spacing" textLength="60" x="113" y="557.1011">[6 times]</text><polygon fill="#181818" points="651.5,579.1563,661.5,583.1563,651.5,587.1563,655.5,583.1563" style="stroke:#181818;stroke-width:1.0;"/><line style="stroke:#181818;stroke-width:1.0;" x1="75" x2="657.5" y1="583.1563" y2="583.1563"/><text fill="#000000" font-family="sans-serif" font-size="13" lengthAdjust="spacing" textLength="151" x="82" y="578.0903">Schwerpunktkoordinate</text><line style="stroke:#181818;stroke-width:1.0;" x1="673.5" x2="715.5" y1="612.2891" y2="612.2891"/><line style="stroke:#181818;stroke-width:1.0;" x1="715.5" x2="715.5" y1="612.2891" y2="625.2891"/><line style="stroke:#181818;stroke-width:1.0;" x1="674.5" x2="715.5" y1="625.2891" y2="625.2891"/><polygon fill="#181818" points="684.5,621.2891,674.5,625.2891,684.5,629.2891,680.5,625.2891" style="stroke:#181818;stroke-width:1.0;"/><text fill="#000000" font-family="sans-serif" font-size="13" lengthAdjust="spacing" textLength="81" x="680.5" y="607.2231">Tafel greifen</text><polygon fill="#181818" points="86,650.4219,76,654.4219,86,658.4219,82,654.4219" style="stroke:#181818;stroke-width:1.0;"/><line style="stroke:#181818;stroke-width:1.0;stroke-dasharray:2.0,2.0;" x1="80" x2="667.5" y1="654.4219" y2="654.4219"/><text fill="#000000" font-family="sans-serif" font-size="13" lengthAdjust="spacing" textLength="48" x="92" y="649.356">Erledigt</text><!--SRC=[VLAxKiCm4Epz5VS3QIbSP8OmqD0HXlvidHrDPCbpFfaPVeQ_eABBZo4_i6M5K5bQw_PszwvqLjWPE0fvOc_hh4KMNUeMhS2nF5s-HOWtw9FHTFaiqAeD_8mDCMwWWpQg3o0Nf6KWLoXOO4VmO9pVbh-umidmjiaoB4NtA1J9ofOZx7RxLLc-76rKjkXMz0UOSAr-SZXGTVbYHHonHNuZkWYD-VPp3lbe7j1MRgI3bMyEQlfSL_ZAqga9TfZ4Xy81JLgakSwb7xw1jryupkDg3Ydm3saV4SwAGfBlnAstPpcxO4zR7FuciOuZpcyyXeQCYYLE2n7bEm6PSQuDGheeRp0KXWYmYMJkTkyhOQmxexl0WGNxAdG1I6W1PYlp-omWOwSx4DrG5wu9_xgUDooD9KkRQ9i7VBscNAzOaO6QIKz25sMFR4ZfMW96OSTektsBjXy0]--></g></svg>