<?xml version="1.0" encoding="us-ascii" standalone="no"?><svg xmlns="http://www.w3.org/2000/svg" xmlns:xlink="http://www.w3.org/1999/xlink" contentStyleType="text/css" height="541px" preserveAspectRatio="none" style="width:996px;height:541px;background:#FFFFFF;" version="1.1" viewBox="0 0 996 541" width="996px" zoomAndPan="magnify"><defs/><g><rect fill="#FFFFFF" height="376.5938" style="stroke:#181818;stroke-width:1.0;" width="10" x="62" y="77.2969"/><rect fill="#FFFFFF" height="129.5313" style="stroke:#181818;stroke-width:1.0;" width="10" x="201" y="98.4297"/><rect fill="#FFFFFF" height="29.1328" style="stroke:#181818;stroke-width:1.0;" width="10" x="346" y="127.5625"/><rect fill="#FFFFFF" height="29.1328" style="stroke:#181818;stroke-width:1.0;" width="10" x="514.5" y="328.3594"/><rect fill="#FFFFFF" height="29.1328" style="stroke:#181818;stroke-width:1.0;" width="10" x="514.5" y="415.7578"/><rect fill="#FFFFFF" height="129.5313" style="stroke:#181818;stroke-width:1.0;" width="10" x="757.5" y="257.0938"/><line style="stroke:#181818;stroke-width:0.5;stroke-dasharray:5.0,5.0;" x1="67" x2="67" y1="67.2969" y2="462.8906"/><line style="stroke:#181818;stroke-width:0.5;stroke-dasharray:5.0,5.0;" x1="206" x2="206" y1="67.2969" y2="462.8906"/><line style="stroke:#181818;stroke-width:0.5;stroke-dasharray:5.0,5.0;" x1="350.5" x2="350.5" y1="67.2969" y2="462.8906"/><line style="stroke:#181818;stroke-width:0.5;stroke-dasharray:5.0,5.0;" x1="519.5" x2="519.5" y1="67.2969" y2="462.8906"/><line style="stroke:#181818;stroke-width:0.5;stroke-dasharray:5.0,5.0;" x1="762.5" x2="762.5" y1="67.2969" y2="462.8906"/><text fill="#000000" font-family="sans-serif" font-size="14" lengthAdjust="spacing" textLength="118" x="5" y="63.9951">Ablaufsteuerung</text><ellipse cx="67" cy="35" fill="#E2E2F0" rx="12" ry="12" style="stroke:#181818;stroke-width:0.5;"/><polygon fill="#181818" points="63,23,69,18,67,23,69,28,63,23" style="stroke:#181818;stroke-width:1.0;"/><text fill="#000000" font-family="sans-serif" font-size="14" lengthAdjust="spacing" textLength="118" x="5" y="474.8857">Ablaufsteuerung</text><ellipse cx="67" cy="494.1875" fill="#E2E2F0" rx="12" ry="12" style="stroke:#181818;stroke-width:0.5;"/><polygon fill="#181818" points="63,482.1875,69,477.1875,67,482.1875,69,487.1875,63,482.1875" style="stroke:#181818;stroke-width:1.0;"/><rect fill="#E2E2F0" height="30.2969" rx="2.5" ry="2.5" style="stroke:#181818;stroke-width:0.5;" width="134" x="139" y="36"/><text fill="#000000" font-family="sans-serif" font-size="14" lengthAdjust="spacing" textLength="120" x="146" y="55.9951">Bildverarbeitung</text><rect fill="#E2E2F0" height="30.2969" rx="2.5" ry="2.5" style="stroke:#181818;stroke-width:0.5;" width="134" x="139" y="461.8906"/><text fill="#000000" font-family="sans-serif" font-size="14" lengthAdjust="spacing" textLength="120" x="146" y="481.8857">Bildverarbeitung</text><text fill="#000000" font-family="sans-serif" font-size="14" lengthAdjust="spacing" textLength="129" x="283.5" y="63.9951">Datenbank_Bilder</text><path d="M333,15 C333,5 351,5 351,5 C351,5 369,5 369,15 L369,41 C369,51 351,51 351,51 C351,51 333,51 333,41 L333,15 " fill="#E2E2F0" style="stroke:#181818;stroke-width:1.5;"/><path d="M333,15 C333,25 351,25 351,25 C351,25 369,25 369,15 " fill="none" style="stroke:#181818;stroke-width:1.5;"/><text fill="#000000" font-family="sans-serif" font-size="14" lengthAdjust="spacing" textLength="129" x="283.5" y="474.8857">Datenbank_Bilder</text><path d="M333,488.1875 C333,478.1875 351,478.1875 351,478.1875 C351,478.1875 369,478.1875 369,488.1875 L369,514.1875 C369,524.1875 351,524.1875 351,524.1875 C351,524.1875 333,524.1875 333,514.1875 L333,488.1875 " fill="#E2E2F0" style="stroke:#181818;stroke-width:1.5;"/><path d="M333,488.1875 C333,498.1875 351,498.1875 351,498.1875 C351,498.1875 369,498.1875 369,488.1875 " fill="none" style="stroke:#181818;stroke-width:1.5;"/><text fill="#000000" font-family="sans-serif" font-size="14" lengthAdjust="spacing" textLength="176" x="428.5" y="63.9951">Datenbank_Koordinaten</text><path d="M501.5,15 C501.5,5 519.5,5 519.5,5 C519.5,5 537.5,5 537.5,15 L537.5,41 C537.5,51 519.5,51 519.5,51 C519.5,51 501.5,51 501.5,41 L501.5,15 " fill="#E2E2F0" style="stroke:#181818;stroke-width:1.5;"/><path d="M501.5,15 C501.5,25 519.5,25 519.5,25 C519.5,25 537.5,25 537.5,15 " fill="none" style="stroke:#181818;stroke-width:1.5;"/><text fill="#000000" font-family="sans-serif" font-size="14" lengthAdjust="spacing" textLength="176" x="428.5" y="474.8857">Datenbank_Koordinaten</text><path d="M501.5,488.1875 C501.5,478.1875 519.5,478.1875 519.5,478.1875 C519.5,478.1875 537.5,478.1875 537.5,488.1875 L537.5,514.1875 C537.5,524.1875 519.5,524.1875 519.5,524.1875 C519.5,524.1875 501.5,524.1875 501.5,514.1875 L501.5,488.1875 " fill="#E2E2F0" style="stroke:#181818;stroke-width:1.5;"/><path d="M501.5,488.1875 C501.5,498.1875 519.5,498.1875 519.5,498.1875 C519.5,498.1875 537.5,498.1875 537.5,488.1875 " fill="none" style="stroke:#181818;stroke-width:1.5;"/><rect fill="#E2E2F0" height="30.2969" rx="2.5" ry="2.5" style="stroke:#181818;stroke-width:0.5;" width="28" x="748.5" y="36"/><text fill="#000000" font-family="sans-serif" font-size="14" lengthAdjust="spacing" textLength="14" x="755.5" y="55.9951">KI</text><rect fill="#E2E2F0" height="30.2969" rx="2.5" ry="2.5" style="stroke:#181818;stroke-width:0.5;" width="28" x="748.5" y="461.8906"/><text fill="#000000" font-family="sans-serif" font-size="14" lengthAdjust="spacing" textLength="14" x="755.5" y="481.8857">KI</text><rect fill="#FFFFFF" height="376.5938" style="stroke:#181818;stroke-width:1.0;" width="10" x="62" y="77.2969"/><rect fill="#FFFFFF" height="129.5313" style="stroke:#181818;stroke-width:1.0;" width="10" x="201" y="98.4297"/><rect fill="#FFFFFF" height="29.1328" style="stroke:#181818;stroke-width:1.0;" width="10" x="346" y="127.5625"/><rect fill="#FFFFFF" height="29.1328" style="stroke:#181818;stroke-width:1.0;" width="10" x="514.5" y="328.3594"/><rect fill="#FFFFFF" height="29.1328" style="stroke:#181818;stroke-width:1.0;" width="10" x="514.5" y="415.7578"/><rect fill="#FFFFFF" height="129.5313" style="stroke:#181818;stroke-width:1.0;" width="10" x="757.5" y="257.0938"/><polygon fill="#181818" points="189,94.4297,199,98.4297,189,102.4297,193,98.4297" style="stroke:#181818;stroke-width:1.0;"/><line style="stroke:#181818;stroke-width:1.0;" x1="72" x2="195" y1="98.4297" y2="98.4297"/><text fill="#000000" font-family="sans-serif" font-size="13" lengthAdjust="spacing" textLength="65" x="79" y="93.3638">neues Bild</text><polygon fill="#181818" points="334,123.5625,344,127.5625,334,131.5625,338,127.5625" style="stroke:#181818;stroke-width:1.0;"/><line style="stroke:#181818;stroke-width:1.0;" x1="211" x2="340" y1="127.5625" y2="127.5625"/><text fill="#000000" font-family="sans-serif" font-size="13" lengthAdjust="spacing" textLength="61" x="218" y="122.4966">Bild laden</text><polygon fill="#181818" points="222,152.6953,212,156.6953,222,160.6953,218,156.6953" style="stroke:#181818;stroke-width:1.0;"/><line style="stroke:#181818;stroke-width:1.0;stroke-dasharray:2.0,2.0;" x1="216" x2="350" y1="156.6953" y2="156.6953"/><text fill="#000000" font-family="sans-serif" font-size="13" lengthAdjust="spacing" textLength="22" x="228" y="151.6294">Bild</text><line style="stroke:#181818;stroke-width:1.0;" x1="211" x2="253" y1="185.8281" y2="185.8281"/><line style="stroke:#181818;stroke-width:1.0;" x1="253" x2="253" y1="185.8281" y2="198.8281"/><line style="stroke:#181818;stroke-width:1.0;" x1="212" x2="253" y1="198.8281" y2="198.8281"/><polygon fill="#181818" points="222,194.8281,212,198.8281,222,202.8281,218,198.8281" style="stroke:#181818;stroke-width:1.0;"/><text fill="#000000" font-family="sans-serif" font-size="13" lengthAdjust="spacing" textLength="121" x="218" y="180.7622">Bild vorverarbeiten</text><polygon fill="#181818" points="83,223.9609,73,227.9609,83,231.9609,79,227.9609" style="stroke:#181818;stroke-width:1.0;"/><line style="stroke:#181818;stroke-width:1.0;stroke-dasharray:2.0,2.0;" x1="77" x2="205" y1="227.9609" y2="227.9609"/><text fill="#000000" font-family="sans-serif" font-size="13" lengthAdjust="spacing" textLength="22" x="89" y="222.895">Bild</text><polygon fill="#181818" points="745.5,253.0938,755.5,257.0938,745.5,261.0938,749.5,257.0938" style="stroke:#181818;stroke-width:1.0;"/><line style="stroke:#181818;stroke-width:1.0;" x1="72" x2="751.5" y1="257.0938" y2="257.0938"/><text fill="#000000" font-family="sans-serif" font-size="13" lengthAdjust="spacing" textLength="133" x="79" y="252.0278">vorverarbeitetes Bild</text><line style="stroke:#181818;stroke-width:1.0;" x1="767.5" x2="809.5" y1="286.2266" y2="286.2266"/><line style="stroke:#181818;stroke-width:1.0;" x1="809.5" x2="809.5" y1="286.2266" y2="299.2266"/><line style="stroke:#181818;stroke-width:1.0;" x1="768.5" x2="809.5" y1="299.2266" y2="299.2266"/><polygon fill="#181818" points="778.5,295.2266,768.5,299.2266,778.5,303.2266,774.5,299.2266" style="stroke:#181818;stroke-width:1.0;"/><text fill="#000000" font-family="sans-serif" font-size="13" lengthAdjust="spacing" textLength="215" x="774.5" y="281.1606">Farbe und Koordinanten ermitteln</text><polygon fill="#181818" points="535.5,324.3594,525.5,328.3594,535.5,332.3594,531.5,328.3594" style="stroke:#181818;stroke-width:1.0;"/><line style="stroke:#181818;stroke-width:1.0;" x1="529.5" x2="756.5" y1="328.3594" y2="328.3594"/><text fill="#000000" font-family="sans-serif" font-size="13" lengthAdjust="spacing" textLength="214" x="541.5" y="323.2935">Farbe und Koordinaten der Tafeln</text><polygon fill="#181818" points="745.5,353.4922,755.5,357.4922,745.5,361.4922,749.5,357.4922" style="stroke:#181818;stroke-width:1.0;"/><line style="stroke:#181818;stroke-width:1.0;stroke-dasharray:2.0,2.0;" x1="519.5" x2="751.5" y1="357.4922" y2="357.4922"/><text fill="#000000" font-family="sans-serif" font-size="13" lengthAdjust="spacing" textLength="48" x="526.5" y="352.4263">Erledigt</text><polygon fill="#181818" points="83,382.625,73,386.625,83,390.625,79,386.625" style="stroke:#181818;stroke-width:1.0;"/><line style="stroke:#181818;stroke-width:1.0;stroke-dasharray:2.0,2.0;" x1="77" x2="761.5" y1="386.625" y2="386.625"/><text fill="#000000" font-family="sans-serif" font-size="13" lengthAdjust="spacing" textLength="242" x="89" y="381.5591">Koordinaten und Farben in Datenbank</text><polygon fill="#181818" points="502.5,411.7578,512.5,415.7578,502.5,419.7578,506.5,415.7578" style="stroke:#181818;stroke-width:1.0;"/><line style="stroke:#181818;stroke-width:1.0;" x1="72" x2="508.5" y1="415.7578" y2="415.7578"/><text fill="#000000" font-family="sans-serif" font-size="13" lengthAdjust="spacing" textLength="206" x="79" y="410.6919">Farbe und Koordinaten auslesen</text><polygon fill="#181818" points="83,440.8906,73,444.8906,83,448.8906,79,444.8906" style="stroke:#181818;stroke-width:1.0;"/><line style="stroke:#181818;stroke-width:1.0;stroke-dasharray:2.0,2.0;" x1="77" x2="518.5" y1="444.8906" y2="444.8906"/><text fill="#000000" font-family="sans-serif" font-size="13" lengthAdjust="spacing" textLength="145" x="89" y="439.8247">Farbe und Koordinaten</text><!--SRC=[bL7DJiCm3BxdAVm2l40FI210cdhbZjp6coA2CxbEdn-dT5lNH09oonT_VywOM2L5U1eYvkEab4aodzmPHSCOpiWApo7wcGHbeA3bqQFYW1F12ohnWFpvKMP8MYzzIk83bxkpWwE6sIwLezi1yF1OENV0zZej-4sfohS7YjG-QhVG8AAtN5Ufgf2GPk4VmvPiXQswSv8hR0PRcKRF_c2yEufMBVk3ix7By5kPWymUBljbym6Ihw1AaTVPvZSqwGMtml2Enq9lR6JxaMkVLudamqcTfry89OxbsNVlxlnBdYKPG-2Rq5RTjj3Ot_zgOfuYJVJNaasHRm00]--></g></svg>