<?xml version="1.0" encoding="us-ascii" standalone="no"?><svg xmlns="http://www.w3.org/2000/svg" xmlns:xlink="http://www.w3.org/1999/xlink" contentStyleType="text/css" height="642px" preserveAspectRatio="none" style="width:770px;height:642px;background:#FFFFFF;" version="1.1" viewBox="0 0 770 642" width="770px" zoomAndPan="magnify"><defs/><g><rect fill="#FFFFFF" height="477.8594" style="stroke:#181818;stroke-width:1.0;" width="10" x="62" y="77.2969"/><rect fill="#FFFFFF" height="129.5313" style="stroke:#181818;stroke-width:1.0;" width="10" x="207" y="98.4297"/><rect fill="#FFFFFF" height="29.1328" style="stroke:#181818;stroke-width:1.0;" width="10" x="351.5" y="127.5625"/><rect fill="#FFFFFF" height="29.1328" style="stroke:#181818;stroke-width:1.0;" width="10" x="351.5" y="286.2266"/><rect fill="#FFFFFF" height="30" style="stroke:#181818;stroke-width:1.0;" width="10" x="452" y="415.7578"/><rect fill="#FFFFFF" height="29.1328" style="stroke:#181818;stroke-width:1.0;" width="10" x="452" y="474.8906"/><rect fill="#FFFFFF" height="129.5313" style="stroke:#181818;stroke-width:1.0;" width="10" x="531.5" y="257.0938"/><line style="stroke:#181818;stroke-width:0.5;stroke-dasharray:5.0,5.0;" x1="67" x2="67" y1="67.2969" y2="564.1563"/><line style="stroke:#181818;stroke-width:0.5;stroke-dasharray:5.0,5.0;" x1="212" x2="212" y1="67.2969" y2="564.1563"/><line style="stroke:#181818;stroke-width:0.5;stroke-dasharray:5.0,5.0;" x1="356" x2="356" y1="67.2969" y2="564.1563"/><line style="stroke:#181818;stroke-width:0.5;stroke-dasharray:5.0,5.0;" x1="457" x2="457" y1="67.2969" y2="564.1563"/><line style="stroke:#181818;stroke-width:0.5;stroke-dasharray:5.0,5.0;" x1="536.5" x2="536.5" y1="67.2969" y2="564.1563"/><text fill="#000000" font-family="sans-serif" font-size="14" lengthAdjust="spacing" textLength="118" x="5" y="63.9951">Ablaufsteuerung</text><ellipse cx="67" cy="35" fill="#E2E2F0" rx="12" ry="12" style="stroke:#181818;stroke-width:0.5;"/><polygon fill="#181818" points="63,23,69,18,67,23,69,28,63,23" style="stroke:#181818;stroke-width:1.0;"/><text fill="#000000" font-family="sans-serif" font-size="14" lengthAdjust="spacing" textLength="118" x="5" y="576.1514">Ablaufsteuerung</text><ellipse cx="67" cy="595.4531" fill="#E2E2F0" rx="12" ry="12" style="stroke:#181818;stroke-width:0.5;"/><polygon fill="#181818" points="63,583.4531,69,578.4531,67,583.4531,69,588.4531,63,583.4531" style="stroke:#181818;stroke-width:1.0;"/><rect fill="#E2E2F0" height="30.2969" rx="2.5" ry="2.5" style="stroke:#181818;stroke-width:0.5;" width="134" x="145" y="36"/><text fill="#000000" font-family="sans-serif" font-size="14" lengthAdjust="spacing" textLength="120" x="152" y="55.9951">Bildverarbeitung</text><rect fill="#E2E2F0" height="30.2969" rx="2.5" ry="2.5" style="stroke:#181818;stroke-width:0.5;" width="134" x="145" y="563.1563"/><text fill="#000000" font-family="sans-serif" font-size="14" lengthAdjust="spacing" textLength="120" x="152" y="583.1514">Bildverarbeitung</text><text fill="#000000" font-family="sans-serif" font-size="14" lengthAdjust="spacing" textLength="129" x="289" y="63.9951">Datenbank_Bilder</text><path d="M338.5,15 C338.5,5 356.5,5 356.5,5 C356.5,5 374.5,5 374.5,15 L374.5,41 C374.5,51 356.5,51 356.5,51 C356.5,51 338.5,51 338.5,41 L338.5,15 " fill="#E2E2F0" style="stroke:#181818;stroke-width:1.5;"/><path d="M338.5,15 C338.5,25 356.5,25 356.5,25 C356.5,25 374.5,25 374.5,15 " fill="none" style="stroke:#181818;stroke-width:1.5;"/><text fill="#000000" font-family="sans-serif" font-size="14" lengthAdjust="spacing" textLength="129" x="289" y="576.1514">Datenbank_Bilder</text><path d="M338.5,589.4531 C338.5,579.4531 356.5,579.4531 356.5,579.4531 C356.5,579.4531 374.5,579.4531 374.5,589.4531 L374.5,615.4531 C374.5,625.4531 356.5,625.4531 356.5,625.4531 C356.5,625.4531 338.5,625.4531 338.5,615.4531 L338.5,589.4531 " fill="#E2E2F0" style="stroke:#181818;stroke-width:1.5;"/><path d="M338.5,589.4531 C338.5,599.4531 356.5,599.4531 356.5,599.4531 C356.5,599.4531 374.5,599.4531 374.5,589.4531 " fill="none" style="stroke:#181818;stroke-width:1.5;"/><text fill="#000000" font-family="sans-serif" font-size="14" lengthAdjust="spacing" textLength="40" x="434" y="63.9951">Cloud</text><path d="M439,15 C439,5 457,5 457,5 C457,5 475,5 475,15 L475,41 C475,51 457,51 457,51 C457,51 439,51 439,41 L439,15 " fill="#E2E2F0" style="stroke:#181818;stroke-width:1.5;"/><path d="M439,15 C439,25 457,25 457,25 C457,25 475,25 475,15 " fill="none" style="stroke:#181818;stroke-width:1.5;"/><text fill="#000000" font-family="sans-serif" font-size="14" lengthAdjust="spacing" textLength="40" x="434" y="576.1514">Cloud</text><path d="M439,589.4531 C439,579.4531 457,579.4531 457,579.4531 C457,579.4531 475,579.4531 475,589.4531 L475,615.4531 C475,625.4531 457,625.4531 457,625.4531 C457,625.4531 439,625.4531 439,615.4531 L439,589.4531 " fill="#E2E2F0" style="stroke:#181818;stroke-width:1.5;"/><path d="M439,589.4531 C439,599.4531 457,599.4531 457,599.4531 C457,599.4531 475,599.4531 475,589.4531 " fill="none" style="stroke:#181818;stroke-width:1.5;"/><rect fill="#E2E2F0" height="30.2969" rx="2.5" ry="2.5" style="stroke:#181818;stroke-width:0.5;" width="28" x="522.5" y="36"/><text fill="#000000" font-family="sans-serif" font-size="14" lengthAdjust="spacing" textLength="14" x="529.5" y="55.9951">KI</text><rect fill="#E2E2F0" height="30.2969" rx="2.5" ry="2.5" style="stroke:#181818;stroke-width:0.5;" width="28" x="522.5" y="563.1563"/><text fill="#000000" font-family="sans-serif" font-size="14" lengthAdjust="spacing" textLength="14" x="529.5" y="583.1514">KI</text><rect fill="#FFFFFF" height="477.8594" style="stroke:#181818;stroke-width:1.0;" width="10" x="62" y="77.2969"/><rect fill="#FFFFFF" height="129.5313" style="stroke:#181818;stroke-width:1.0;" width="10" x="207" y="98.4297"/><rect fill="#FFFFFF" height="29.1328" style="stroke:#181818;stroke-width:1.0;" width="10" x="351.5" y="127.5625"/><rect fill="#FFFFFF" height="29.1328" style="stroke:#181818;stroke-width:1.0;" width="10" x="351.5" y="286.2266"/><rect fill="#FFFFFF" height="30" style="stroke:#181818;stroke-width:1.0;" width="10" x="452" y="415.7578"/><rect fill="#FFFFFF" height="29.1328" style="stroke:#181818;stroke-width:1.0;" width="10" x="452" y="474.8906"/><rect fill="#FFFFFF" height="129.5313" style="stroke:#181818;stroke-width:1.0;" width="10" x="531.5" y="257.0938"/><polygon fill="#181818" points="195,94.4297,205,98.4297,195,102.4297,199,98.4297" style="stroke:#181818;stroke-width:1.0;"/><line style="stroke:#181818;stroke-width:1.0;" x1="72" x2="201" y1="98.4297" y2="98.4297"/><text fill="#000000" font-family="sans-serif" font-size="13" lengthAdjust="spacing" textLength="65" x="79" y="93.3638">neues Bild</text><polygon fill="#181818" points="339.5,123.5625,349.5,127.5625,339.5,131.5625,343.5,127.5625" style="stroke:#181818;stroke-width:1.0;"/><line style="stroke:#181818;stroke-width:1.0;" x1="217" x2="345.5" y1="127.5625" y2="127.5625"/><text fill="#000000" font-family="sans-serif" font-size="13" lengthAdjust="spacing" textLength="61" x="224" y="122.4966">Bild laden</text><polygon fill="#181818" points="228,152.6953,218,156.6953,228,160.6953,224,156.6953" style="stroke:#181818;stroke-width:1.0;"/><line style="stroke:#181818;stroke-width:1.0;stroke-dasharray:2.0,2.0;" x1="222" x2="355.5" y1="156.6953" y2="156.6953"/><text fill="#000000" font-family="sans-serif" font-size="13" lengthAdjust="spacing" textLength="22" x="234" y="151.6294">Bild</text><line style="stroke:#181818;stroke-width:1.0;" x1="217" x2="259" y1="185.8281" y2="185.8281"/><line style="stroke:#181818;stroke-width:1.0;" x1="259" x2="259" y1="185.8281" y2="198.8281"/><line style="stroke:#181818;stroke-width:1.0;" x1="218" x2="259" y1="198.8281" y2="198.8281"/><polygon fill="#181818" points="228,194.8281,218,198.8281,228,202.8281,224,198.8281" style="stroke:#181818;stroke-width:1.0;"/><text fill="#000000" font-family="sans-serif" font-size="13" lengthAdjust="spacing" textLength="100" x="224" y="180.7622">Bild verarbeiten</text><polygon fill="#181818" points="83,223.9609,73,227.9609,83,231.9609,79,227.9609" style="stroke:#181818;stroke-width:1.0;"/><line style="stroke:#181818;stroke-width:1.0;stroke-dasharray:2.0,2.0;" x1="77" x2="211" y1="227.9609" y2="227.9609"/><text fill="#000000" font-family="sans-serif" font-size="13" lengthAdjust="spacing" textLength="48" x="89" y="222.895">Erledigt</text><polygon fill="#181818" points="519.5,253.0938,529.5,257.0938,519.5,261.0938,523.5,257.0938" style="stroke:#181818;stroke-width:1.0;"/><line style="stroke:#181818;stroke-width:1.0;" x1="72" x2="525.5" y1="257.0938" y2="257.0938"/><text fill="#000000" font-family="sans-serif" font-size="13" lengthAdjust="spacing" textLength="201" x="79" y="252.0278">verarbeitetes Bild in Datenbank</text><polygon fill="#181818" points="372.5,282.2266,362.5,286.2266,372.5,290.2266,368.5,286.2266" style="stroke:#181818;stroke-width:1.0;"/><line style="stroke:#181818;stroke-width:1.0;" x1="366.5" x2="530.5" y1="286.2266" y2="286.2266"/><text fill="#000000" font-family="sans-serif" font-size="13" lengthAdjust="spacing" textLength="151" x="378.5" y="281.1606">verarbeitetes Bild laden</text><polygon fill="#181818" points="519.5,311.3594,529.5,315.3594,519.5,319.3594,523.5,315.3594" style="stroke:#181818;stroke-width:1.0;"/><line style="stroke:#181818;stroke-width:1.0;stroke-dasharray:2.0,2.0;" x1="356.5" x2="525.5" y1="315.3594" y2="315.3594"/><text fill="#000000" font-family="sans-serif" font-size="13" lengthAdjust="spacing" textLength="112" x="363.5" y="310.2935">verarbeitetes Bild</text><line style="stroke:#181818;stroke-width:1.0;" x1="541.5" x2="583.5" y1="344.4922" y2="344.4922"/><line style="stroke:#181818;stroke-width:1.0;" x1="583.5" x2="583.5" y1="344.4922" y2="357.4922"/><line style="stroke:#181818;stroke-width:1.0;" x1="542.5" x2="583.5" y1="357.4922" y2="357.4922"/><polygon fill="#181818" points="552.5,353.4922,542.5,357.4922,552.5,361.4922,548.5,357.4922" style="stroke:#181818;stroke-width:1.0;"/><text fill="#000000" font-family="sans-serif" font-size="13" lengthAdjust="spacing" textLength="215" x="548.5" y="339.4263">Farbe und Koordinanten ermitteln</text><polygon fill="#181818" points="83,382.625,73,386.625,83,390.625,79,386.625" style="stroke:#181818;stroke-width:1.0;"/><line style="stroke:#181818;stroke-width:1.0;" x1="77" x2="535.5" y1="386.625" y2="386.625"/><text fill="#000000" font-family="sans-serif" font-size="13" lengthAdjust="spacing" textLength="214" x="89" y="381.5591">Farbe und Koordinaten der Tafeln</text><line style="stroke:#181818;stroke-width:1.0;" x1="450" x2="440" y1="415.7578" y2="411.7578"/><line style="stroke:#181818;stroke-width:1.0;" x1="450" x2="440" y1="415.7578" y2="419.7578"/><line style="stroke:#181818;stroke-width:1.0;" x1="72" x2="451" y1="415.7578" y2="415.7578"/><text fill="#000000" font-family="sans-serif" font-size="13" lengthAdjust="spacing" textLength="139" x="79" y="410.6919">Anzahl Tafeln melden</text><polygon fill="#181818" points="440,470.8906,450,474.8906,440,478.8906,444,474.8906" style="stroke:#181818;stroke-width:1.0;"/><line style="stroke:#181818;stroke-width:1.0;" x1="72" x2="446" y1="474.8906" y2="474.8906"/><text fill="#000000" font-family="sans-serif" font-size="13" lengthAdjust="spacing" textLength="135" x="79" y="469.8247">Auftragsliste abrufen</text><polygon fill="#181818" points="83,500.0234,73,504.0234,83,508.0234,79,504.0234" style="stroke:#181818;stroke-width:1.0;"/><line style="stroke:#181818;stroke-width:1.0;stroke-dasharray:2.0,2.0;" x1="77" x2="456" y1="504.0234" y2="504.0234"/><text fill="#000000" font-family="sans-serif" font-size="13" lengthAdjust="spacing" textLength="48" x="89" y="498.9575">Auftrag</text><line style="stroke:#181818;stroke-width:1.0;" x1="72" x2="114" y1="533.1563" y2="533.1563"/><line style="stroke:#181818;stroke-width:1.0;" x1="114" x2="114" y1="533.1563" y2="546.1563"/><line style="stroke:#181818;stroke-width:1.0;" x1="73" x2="114" y1="546.1563" y2="546.1563"/><polygon fill="#181818" points="83,542.1563,73,546.1563,83,550.1563,79,546.1563" style="stroke:#181818;stroke-width:1.0;"/><text fill="#000000" font-family="sans-serif" font-size="13" lengthAdjust="spacing" textLength="121" x="79" y="528.0903">Auftrag bearbeiten</text><!--SRC=[ZP8zRiCm38Ltdu8Nw0Ko14Z_W21hzuAoQ5UeGWSqbQ6dhsIhKMffo4hoVNoFO3-nokJXO3o6OLOA9877xeAYhdSNP8Ldv-sL1CMGqzIqg6Xm9dX59JR8tvzfXgHqNlmKRDTXh-uQXof-jod0qxxQimEEtNcf5rBbPbj8gAsntI83ZvQue2hxGXg4ruKjR5NBt5ijqZFZJJnPDsepwUaObKMaEIGuBfwApTEnYu96gZRamP2rCczPpBsd7WIsS9eciOxZ8n03oTcfakSykytM4YPTClk1Gn9QkW_MkCv-VPx8El0FVlaiX3FvVy7M5xl3vPzhtFi638CAZhDtiGre90mrCTydppwseBv3beEXly_u1G00]--></g></svg>