<?xml version="1.0" encoding="us-ascii" standalone="no"?><svg xmlns="http://www.w3.org/2000/svg" xmlns:xlink="http://www.w3.org/1999/xlink" contentStyleType="text/css" height="832px" preserveAspectRatio="none" style="width:692px;height:832px;background:#FFFFFF;" version="1.1" viewBox="0 0 692 832" width="692px" zoomAndPan="magnify"><defs/><g><ellipse cx="271" cy="16" fill="#181818" rx="10" ry="10" style="stroke:none;stroke-width:1.0;"/><g id="Sch&#252;tten"><rect fill="#F1F1F1" height="50.2656" rx="12.5" ry="12.5" style="stroke:#181818;stroke-width:0.5;" width="210" x="166" y="103"/><line style="stroke:#181818;stroke-width:0.5;" x1="166" x2="376" y1="129.2969" y2="129.2969"/><text fill="#000000" font-family="sans-serif" font-size="14" lengthAdjust="spacing" textLength="66" x="238" y="120.9951">Sch&#252;tten</text><text fill="#000000" font-family="sans-serif" font-size="12" lengthAdjust="spacing" textLength="190" x="171" y="145.4355">Zuf&#228;llige Anzahl Tafeln sch&#252;tten</text></g><g id="Bef&#246;rdern"><rect fill="#F1F1F1" height="50.2656" rx="12.5" ry="12.5" style="stroke:#181818;stroke-width:0.5;" width="194" x="174" y="230"/><line style="stroke:#181818;stroke-width:0.5;" x1="174" x2="368" y1="256.2969" y2="256.2969"/><text fill="#000000" font-family="sans-serif" font-size="14" lengthAdjust="spacing" textLength="73" x="234.5" y="247.9951">Bef&#246;rdern</text><text fill="#000000" font-family="sans-serif" font-size="12" lengthAdjust="spacing" textLength="174" x="179" y="272.4355">Tafeln zur Kamera bef&#246;rdern</text></g><g id="Tafeln_erfassen"><rect fill="#F1F1F1" height="64.2344" rx="12.5" ry="12.5" style="stroke:#181818;stroke-width:0.5;" width="196" x="173" y="357"/><line style="stroke:#181818;stroke-width:0.5;" x1="173" x2="369" y1="383.2969" y2="383.2969"/><text fill="#000000" font-family="sans-serif" font-size="14" lengthAdjust="spacing" textLength="113" x="214.5" y="374.9951">Tafeln_erfassen</text><text fill="#000000" font-family="sans-serif" font-size="12" lengthAdjust="spacing" textLength="135" x="178" y="399.4355">Tafeln werden erkannt</text><text fill="#000000" font-family="sans-serif" font-size="12" lengthAdjust="spacing" textLength="176" x="178" y="413.4043">und Koordinaten gespeichert</text></g><g id="Auftragsliste_abrufen"><rect fill="#F1F1F1" height="64.2344" rx="12.5" ry="12.5" style="stroke:#181818;stroke-width:0.5;" width="195" x="173.5" y="513"/><line style="stroke:#181818;stroke-width:0.5;" x1="173.5" x2="368.5" y1="539.2969" y2="539.2969"/><text fill="#000000" font-family="sans-serif" font-size="14" lengthAdjust="spacing" textLength="155" x="193.5" y="530.9951">Auftragsliste_abrufen</text><text fill="#000000" font-family="sans-serif" font-size="12" lengthAdjust="spacing" textLength="100" x="178.5" y="555.4355">Auftragsliste der</text><text fill="#000000" font-family="sans-serif" font-size="12" lengthAdjust="spacing" textLength="175" x="178.5" y="569.4043">Wunschbestellungen abrufen</text></g><g id="elem_Verzweigung"><polygon fill="#F1F1F1" points="271,649.5,283,661.5,271,673.5,259,661.5,271,649.5" style="stroke:#181818;stroke-width:0.5;"/></g><g id="Zuf&#228;llig_packen"><rect fill="#F1F1F1" height="64.2344" rx="12.5" ry="12.5" style="stroke:#181818;stroke-width:0.5;" width="192" x="7" y="762"/><line style="stroke:#181818;stroke-width:0.5;" x1="7" x2="199" y1="788.2969" y2="788.2969"/><text fill="#000000" font-family="sans-serif" font-size="14" lengthAdjust="spacing" textLength="113" x="46.5" y="779.9951">Zuf&#228;llig_packen</text><text fill="#000000" font-family="sans-serif" font-size="12" lengthAdjust="spacing" textLength="158" x="12" y="804.4355">Tafeln werden anhand der</text><text fill="#000000" font-family="sans-serif" font-size="12" lengthAdjust="spacing" textLength="172" x="12" y="818.4043">Koordinaten zuf&#228;llig gepackt</text></g><g id="Wunschbestellung_packen"><rect fill="#F1F1F1" height="64.2344" rx="12.5" ry="12.5" style="stroke:#181818;stroke-width:0.5;" width="259" x="234.5" y="762"/><line style="stroke:#181818;stroke-width:0.5;" x1="234.5" x2="493.5" y1="788.2969" y2="788.2969"/><text fill="#000000" font-family="sans-serif" font-size="14" lengthAdjust="spacing" textLength="191" x="268.5" y="779.9951">Wunschbestellung_packen</text><text fill="#000000" font-family="sans-serif" font-size="12" lengthAdjust="spacing" textLength="235" x="239.5" y="804.4355">Tafeln werden anhand der Koordinaten</text><text fill="#000000" font-family="sans-serif" font-size="12" lengthAdjust="spacing" textLength="195" x="239.5" y="818.4043">nach Wunschbestellung gepackt</text></g><!--link *start* to Sch?tten--><g id="link_*start*_Sch&#252;tten"><path d="M271,26.002 C271,41.458 271,73.685 271,97.6 " fill="none" id="*start*-to-Sch&#252;tten" style="stroke:#181818;stroke-width:1.0;"/><polygon fill="#181818" points="271,102.873,275,93.873,271,97.873,267,93.873,271,102.873" style="stroke:#181818;stroke-width:1.0;"/><text fill="#000000" font-family="sans-serif" font-size="13" lengthAdjust="spacing" textLength="96" x="272" y="69.0669">System startet</text></g><!--link Sch?tten to Bef?rdern--><g id="link_Sch&#252;tten_Bef&#246;rdern"><path d="M271,153.101 C271,173.593 271,203.076 271,224.884 " fill="none" id="Sch&#252;tten-to-Bef&#246;rdern" style="stroke:#181818;stroke-width:1.0;"/><polygon fill="#181818" points="271,229.973,275,220.973,271,224.973,267,220.973,271,229.973" style="stroke:#181818;stroke-width:1.0;"/><text fill="#000000" font-family="sans-serif" font-size="13" lengthAdjust="spacing" textLength="114" x="272" y="196.0669">Sch&#252;tten beendet</text></g><!--link Bef?rdern to Tafeln_erfassen--><g id="link_Bef&#246;rdern_Tafeln_erfassen"><path d="M271,280.211 C271,300.277 271,329.099 271,351.891 " fill="none" id="Bef&#246;rdern-to-Tafeln_erfassen" style="stroke:#181818;stroke-width:1.0;"/><polygon fill="#181818" points="271,356.953,275,347.953,271,351.953,267,347.953,271,356.953" style="stroke:#181818;stroke-width:1.0;"/><text fill="#000000" font-family="sans-serif" font-size="13" lengthAdjust="spacing" textLength="132" x="272" y="323.0669">Tafeln unter Kamera</text></g><!--link Tafeln_erfassen to Auftragsliste_abrufen--><g id="link_Tafeln_erfassen_Auftragsliste_abrufen"><path d="M271,421.164 C271,446.213 271,481.436 271,507.745 " fill="none" id="Tafeln_erfassen-to-Auftragsliste_abrufen" style="stroke:#181818;stroke-width:1.0;"/><polygon fill="#181818" points="271,512.882,275,503.882,271,507.882,267,503.882,271,512.882" style="stroke:#181818;stroke-width:1.0;"/><text fill="#000000" font-family="sans-serif" font-size="13" lengthAdjust="spacing" textLength="116" x="298.5" y="464.0669">Alle Tafeln erfasst</text><text fill="#000000" font-family="sans-serif" font-size="13" lengthAdjust="spacing" textLength="173" x="272" y="479.1997">/ Anzahl an Cloud melden()</text></g><!--link Auftragsliste_abrufen to Verzweigung--><g id="link_Auftragsliste_abrufen_Verzweigung"><path d="M271,577.288 C271,599.01 271,627.059 271,644.408 " fill="none" id="Auftragsliste_abrufen-to-Verzweigung" style="stroke:#181818;stroke-width:1.0;"/><polygon fill="#181818" points="271,649.43,275,640.43,271,644.43,267,640.43,271,649.43" style="stroke:#181818;stroke-width:1.0;"/></g><!--link Verzweigung to Zuf?llig_packen--><g id="link_Verzweigung_Zuf&#228;llig_packen"><path d="M264.619,667.456 C245.651,682.19 188.385,726.6742 147.411,758.5018 " fill="none" id="Verzweigung-to-Zuf&#228;llig_packen" style="stroke:#181818;stroke-width:1.0;"/><polygon fill="#181818" points="143,761.9285,152.5614,759.5664,146.9487,758.8613,147.6538,753.2485,143,761.9285" style="stroke:#181818;stroke-width:1.0;"/><text fill="#000000" font-family="sans-serif" font-size="13" lengthAdjust="spacing" textLength="24" x="204" y="728.0669">leer</text></g><!--link Verzweigung to Wunschbestellung_packen--><g id="link_Verzweigung_Wunschbestellung_packen"><path d="M267.828,670.834 C263.167,684.551 256.13,712.323 267,732 C272.724,742.3607 281.027,751.2006 290.401,758.6668 " fill="none" id="Verzweigung-to-Wunschbestellung_packen" style="stroke:#181818;stroke-width:1.0;"/><polygon fill="#181818" points="294.479,761.7829,289.756,753.1403,290.506,758.7473,284.899,759.4972,294.479,761.7829" style="stroke:#181818;stroke-width:1.0;"/><text fill="#000000" font-family="sans-serif" font-size="13" lengthAdjust="spacing" textLength="59" x="268" y="728.0669">nicht leer</text></g><!--link Wunschbestellung_packen to Auftragsliste_abrufen--><g id="link_Wunschbestellung_packen_Auftragsliste_abrufen"><path d="M353.394,761.8615 C340.615,724.755 318.21,660.989 297,607 C293.828,598.925 290.27,590.319 286.829,582.193 " fill="none" id="Wunschbestellung_packen-to-Auftragsliste_abrufen" style="stroke:#181818;stroke-width:1.0;"/><polygon fill="#181818" points="284.706,577.204,284.5488,587.0516,286.6635,581.8049,291.9102,583.9196,284.706,577.204" style="stroke:#181818;stroke-width:1.0;"/><text fill="#000000" font-family="sans-serif" font-size="13" lengthAdjust="spacing" textLength="136" x="339.5" y="651.0669">Bestellung bearbeitet</text><text fill="#000000" font-family="sans-serif" font-size="13" lengthAdjust="spacing" textLength="161" x="331" y="666.1997">/ Anzahl Nachorderungen</text><text fill="#000000" font-family="sans-serif" font-size="13" lengthAdjust="spacing" textLength="118" x="352.5" y="681.3325">an Cloud melden()</text></g><!--link Wunschbestellung_packen to Sch?tten--><g id="link_Wunschbestellung_packen_Sch&#252;tten"><path d="M486.765,761.9969 C532.721,742.3904 574,711.219 574,662.5 C574,254 574,254 574,254 C574,210.857 467.695,174.967 381.018,152.875 " fill="none" id="Wunschbestellung_packen-to-Sch&#252;tten" style="stroke:#181818;stroke-width:1.0;"/><polygon fill="#181818" points="376.124,151.637,383.867,157.7235,380.9711,152.8641,385.8304,149.9682,376.124,151.637" style="stroke:#181818;stroke-width:1.0;"/><text fill="#000000" font-family="sans-serif" font-size="13" lengthAdjust="spacing" textLength="105" x="575" y="464.0669">Ben&#246;tigte Tafeln</text><text fill="#000000" font-family="sans-serif" font-size="13" lengthAdjust="spacing" textLength="104" x="577.5" y="479.1997">nicht vorhanden</text></g><!--link Zuf?llig_packen to Auftragsliste_abrufen--><g id="link_Zuf&#228;llig_packen_Auftragsliste_abrufen"><path d="M101.4058,761.8268 C101.205,728.4986 105.3542,675.407 130,638 C146.047,613.644 171.008,594.297 195.495,579.755 " fill="none" id="Zuf&#228;llig_packen-to-Auftragsliste_abrufen" style="stroke:#181818;stroke-width:1.0;"/><polygon fill="#181818" points="200.06,577.095,190.27,578.1699,195.7399,579.6122,194.2975,585.0821,200.06,577.095" style="stroke:#181818;stroke-width:1.0;"/><text fill="#000000" font-family="sans-serif" font-size="13" lengthAdjust="spacing" textLength="109" x="131" y="666.0669">Packung gepackt</text></g><!--link Zuf?llig_packen to Sch?tten--><g id="link_Zuf&#228;llig_packen_Sch&#252;tten"><path d="M71.2744,761.7458 C49.6797,737.0484 25,700.508 25,662.5 C25,254 25,254 25,254 C25,188.402 95.3832,157.216 160.855,142.397 " fill="none" id="Zuf&#228;llig_packen-to-Sch&#252;tten" style="stroke:#181818;stroke-width:1.0;"/><polygon fill="#181818" points="165.96,141.271,156.3102,139.301,161.0771,142.3467,158.0313,147.1136,165.96,141.271" style="stroke:#181818;stroke-width:1.0;"/><text fill="#000000" font-family="sans-serif" font-size="13" lengthAdjust="spacing" textLength="60" x="26" y="471.5669">Band leer</text></g><!--SRC=[VLFBRi8m4BpxA_ROLaAz8uG4FI9LbQXQgKs5d6Jp46Q37Bke-Pv-0wVUycDT1n9C85ozipExC-lFXoyOZQQmZBBwpnYaCIn_IeCRA8tK1eqGNGd6y66J-bUfF4MOKIKp1QyoGKLGjY0FxdZdcDHx7QDstQTIY4Yn8p-h7xaggs4XDwWbuzgoZtJ41-mATIBBqerzRBPai6qNeeSwQUoGgGXGhoMHWO0inR0e2Xtd9Ds4APPRpACCjUcpEFcPJOoMQQboDcibGssJXdwc5BOQ1xmZVspTaWHFgh0nR52n_jsz4EopGNX3NUqmJosbC9b4MP57E9qACQZZlmExmYhlbZY64Fb5AIPYuB5XWCOjuWaBuK_HLBkyLriPhHjbXQWlWNtj4vxOH7Fe4iEeyrWaPPBpS6lvcGH4Ciekj3WhnsC6wMy5DZ_HX2XrY3aVFIj1bzapQnRky1fB0xeIuYrXxsVDaUgzoLFJdGXlrDZpNMYtCIS58AwOFcXFGBv1LTlPMNB1DUZ565uOuTbvRPB-GcuC5-q_]--></g></svg>