<?xml version="1.0" encoding="us-ascii" standalone="no"?><svg xmlns="http://www.w3.org/2000/svg" xmlns:xlink="http://www.w3.org/1999/xlink" contentStyleType="text/css" height="988px" preserveAspectRatio="none" style="width:480px;height:988px;background:#FFFFFF;" version="1.1" viewBox="0 0 480 988" width="480px" zoomAndPan="magnify"><defs/><g><ellipse cx="336.0078" cy="16" fill="#181818" rx="10" ry="10" style="stroke:none;stroke-width:1.0;"/><g id="Sch&#252;tten"><rect fill="#F1F1F1" height="50.2656" rx="12.5" ry="12.5" style="stroke:#181818;stroke-width:0.5;" width="210" x="231.0078" y="103"/><line style="stroke:#181818;stroke-width:0.5;" x1="231.0078" x2="441.0078" y1="129.2969" y2="129.2969"/><text fill="#000000" font-family="sans-serif" font-size="14" lengthAdjust="spacing" textLength="66" x="303.0078" y="120.9951">Sch&#252;tten</text><text fill="#000000" font-family="sans-serif" font-size="12" lengthAdjust="spacing" textLength="190" x="236.0078" y="145.4355">Zuf&#228;llige Anzahl Tafeln sch&#252;tten</text></g><g id="Bef&#246;rdern"><rect fill="#F1F1F1" height="50.2656" rx="12.5" ry="12.5" style="stroke:#181818;stroke-width:0.5;" width="194" x="154.0078" y="230"/><line style="stroke:#181818;stroke-width:0.5;" x1="154.0078" x2="348.0078" y1="256.2969" y2="256.2969"/><text fill="#000000" font-family="sans-serif" font-size="14" lengthAdjust="spacing" textLength="73" x="214.5078" y="247.9951">Bef&#246;rdern</text><text fill="#000000" font-family="sans-serif" font-size="12" lengthAdjust="spacing" textLength="174" x="159.0078" y="272.4355">Tafeln zur Kamera bef&#246;rdern</text></g><g id="Tafeln_erfassen"><rect fill="#F1F1F1" height="64.2344" rx="12.5" ry="12.5" style="stroke:#181818;stroke-width:0.5;" width="196" x="117.0083" y="357"/><line style="stroke:#181818;stroke-width:0.5;" x1="117.0083" x2="313.0083" y1="383.2969" y2="383.2969"/><text fill="#000000" font-family="sans-serif" font-size="14" lengthAdjust="spacing" textLength="113" x="158.5083" y="374.9951">Tafeln_erfassen</text><text fill="#000000" font-family="sans-serif" font-size="12" lengthAdjust="spacing" textLength="135" x="122.0083" y="399.4355">Tafeln werden erkannt</text><text fill="#000000" font-family="sans-serif" font-size="12" lengthAdjust="spacing" textLength="176" x="122.0083" y="413.4043">und Koordinaten gespeichert</text></g><g id="Auftragsliste_abrufen"><rect fill="#F1F1F1" height="64.2344" rx="12.5" ry="12.5" style="stroke:#181818;stroke-width:0.5;" width="195" x="93.5083" y="513"/><line style="stroke:#181818;stroke-width:0.5;" x1="93.5083" x2="288.5083" y1="539.2969" y2="539.2969"/><text fill="#000000" font-family="sans-serif" font-size="14" lengthAdjust="spacing" textLength="155" x="113.5083" y="530.9951">Auftragsliste_abrufen</text><text fill="#000000" font-family="sans-serif" font-size="12" lengthAdjust="spacing" textLength="100" x="98.5083" y="555.4355">Auftragsliste der</text><text fill="#000000" font-family="sans-serif" font-size="12" lengthAdjust="spacing" textLength="175" x="98.5083" y="569.4043">Wunschbestellungen abrufen</text></g><g id="elem_Verzweigung"><polygon fill="#F1F1F1" points="107.0083,649.5,119.0083,661.5,107.0083,673.5,95.0083,661.5,107.0083,649.5" style="stroke:#181818;stroke-width:0.5;"/></g><g id="Zuf&#228;llig_packen"><rect fill="#F1F1F1" height="64.2344" rx="12.5" ry="12.5" style="stroke:#181818;stroke-width:0.5;" width="192" x="114.0083" y="918"/><line style="stroke:#181818;stroke-width:0.5;" x1="114.0083" x2="306.0083" y1="944.2969" y2="944.2969"/><text fill="#000000" font-family="sans-serif" font-size="14" lengthAdjust="spacing" textLength="113" x="153.5083" y="935.9951">Zuf&#228;llig_packen</text><text fill="#000000" font-family="sans-serif" font-size="12" lengthAdjust="spacing" textLength="158" x="119.0083" y="960.4355">Tafeln werden anhand der</text><text fill="#000000" font-family="sans-serif" font-size="12" lengthAdjust="spacing" textLength="172" x="119.0083" y="974.4043">Koordinaten zuf&#228;llig gepackt</text></g><g id="Wunschbestellung_packen"><rect fill="#F1F1F1" height="64.2344" rx="12.5" ry="12.5" style="stroke:#181818;stroke-width:0.5;" width="259" x="80.5083" y="762"/><line style="stroke:#181818;stroke-width:0.5;" x1="80.5083" x2="339.5083" y1="788.2969" y2="788.2969"/><text fill="#000000" font-family="sans-serif" font-size="14" lengthAdjust="spacing" textLength="191" x="114.5083" y="779.9951">Wunschbestellung_packen</text><text fill="#000000" font-family="sans-serif" font-size="12" lengthAdjust="spacing" textLength="235" x="85.5083" y="804.4355">Tafeln werden anhand der Koordinaten</text><text fill="#000000" font-family="sans-serif" font-size="12" lengthAdjust="spacing" textLength="195" x="85.5083" y="818.4043">nach Wunschbestellung gepackt</text></g><!--link *start* to Sch?tten--><g id="link_*start*_Sch&#252;tten"><path d="M336.0078,26.002 C336.0078,41.458 336.0078,73.685 336.0078,97.6 " fill="none" id="*start*-to-Sch&#252;tten" style="stroke:#181818;stroke-width:1.0;"/><polygon fill="#181818" points="336.0078,102.873,340.0078,93.873,336.0078,97.873,332.0078,93.873,336.0078,102.873" style="stroke:#181818;stroke-width:1.0;"/><text fill="#000000" font-family="sans-serif" font-size="13" lengthAdjust="spacing" textLength="96" x="337.0078" y="69.0669">System startet</text></g><!--link Sch?tten to Bef?rdern--><g id="link_Sch&#252;tten_Bef&#246;rdern"><path d="M297.5358,153.12 C286.9368,161.426 276.3488,171.557 269.0078,183 C261.0678,195.378 256.6278,211.062 254.1468,224.539 " fill="none" id="Sch&#252;tten-to-Bef&#246;rdern" style="stroke:#181818;stroke-width:1.0;"/><polygon fill="#181818" points="253.2588,229.777,258.7071,221.5724,254.0947,224.8474,250.8197,220.2349,253.2588,229.777" style="stroke:#181818;stroke-width:1.0;"/><text fill="#000000" font-family="sans-serif" font-size="13" lengthAdjust="spacing" textLength="114" x="270.0078" y="196.0669">Sch&#252;tten beendet</text></g><!--link Bef?rdern to Tafeln_erfassen--><g id="link_Bef&#246;rdern_Tafeln_erfassen"><path d="M244.4058,280.211 C238.9328,300.277 231.0718,329.099 224.8558,351.891 " fill="none" id="Bef&#246;rdern-to-Tafeln_erfassen" style="stroke:#181818;stroke-width:1.0;"/><polygon fill="#181818" points="223.4758,356.953,229.7008,349.3209,224.7901,352.1288,221.9821,347.2181,223.4758,356.953" style="stroke:#181818;stroke-width:1.0;"/><text fill="#000000" font-family="sans-serif" font-size="13" lengthAdjust="spacing" textLength="132" x="238.0078" y="323.0669">Tafeln unter Kamera</text></g><!--link Tafeln_erfassen to Auftragsliste_abrufen--><g id="link_Tafeln_erfassen_Auftragsliste_abrufen"><path d="M210.1518,421.164 C206.2478,446.213 200.7588,481.436 196.6588,507.745 " fill="none" id="Tafeln_erfassen-to-Auftragsliste_abrufen" style="stroke:#181818;stroke-width:1.0;"/><polygon fill="#181818" points="195.8578,512.882,201.1962,504.6054,196.6279,507.9417,193.2916,503.3733,195.8578,512.882" style="stroke:#181818;stroke-width:1.0;"/><text fill="#000000" font-family="sans-serif" font-size="13" lengthAdjust="spacing" textLength="116" x="233.5078" y="464.0669">Alle Tafeln erfasst</text><text fill="#000000" font-family="sans-serif" font-size="13" lengthAdjust="spacing" textLength="173" x="207.0078" y="479.1997">/ Anzahl an Cloud melden()</text></g><!--link Auftragsliste_abrufen to Verzweigung--><g id="link_Auftragsliste_abrufen_Verzweigung"><path d="M168.0548,577.288 C150.2948,601.497 126.7688,633.565 114.769,649.921 " fill="none" id="Auftragsliste_abrufen-to-Verzweigung" style="stroke:#181818;stroke-width:1.0;"/><polygon fill="#181818" points="111.7045,654.099,120.253,649.2079,114.6618,650.0673,113.8023,644.4762,111.7045,654.099" style="stroke:#181818;stroke-width:1.0;"/></g><!--link Verzweigung to Zuf?llig_packen--><g id="link_Verzweigung_Zuf&#228;llig_packen"><path d="M101.101,667.993 C79.2728,688.976 6,765.907 37.0083,826 C57.469,865.652 97.2743,895.3107 133.5488,915.5588 " fill="none" id="Verzweigung-to-Zuf&#228;llig_packen" style="stroke:#181818;stroke-width:1.0;"/><polygon fill="#181818" points="137.9538,917.9815,131.9962,910.1389,133.5729,915.5716,128.1402,917.1483,137.9538,917.9815" style="stroke:#181818;stroke-width:1.0;"/><text fill="#000000" font-family="sans-serif" font-size="13" lengthAdjust="spacing" textLength="24" x="38.0083" y="798.5669">leer</text></g><!--link Verzweigung to Wunschbestellung_packen--><g id="link_Verzweigung_Wunschbestellung_packen"><path d="M103.9356,670.886 C99.4421,684.677 92.7628,712.554 104.0083,732 C110.1001,742.534 118.7772,751.409 128.5765,758.84 " fill="none" id="Verzweigung-to-Wunschbestellung_packen" style="stroke:#181818;stroke-width:1.0;"/><polygon fill="#181818" points="132.8408,761.936,127.9081,753.4114,128.7948,758.9984,123.2079,759.885,132.8408,761.936" style="stroke:#181818;stroke-width:1.0;"/><text fill="#000000" font-family="sans-serif" font-size="13" lengthAdjust="spacing" textLength="59" x="105.0083" y="728.0669">nicht leer</text></g><!--link Wunschbestellung_packen to Auftragsliste_abrufen--><g id="link_Wunschbestellung_packen_Auftragsliste_abrufen"><path d="M207.6218,761.971 C204.1068,716.276 197.5508,631.057 193.8118,582.447 " fill="none" id="Wunschbestellung_packen-to-Auftragsliste_abrufen" style="stroke:#181818;stroke-width:1.0;"/><polygon fill="#181818" points="193.4148,577.283,190.1158,586.5629,193.7977,582.2683,198.0923,585.9502,193.4148,577.283" style="stroke:#181818;stroke-width:1.0;"/><text fill="#000000" font-family="sans-serif" font-size="13" lengthAdjust="spacing" textLength="136" x="215.5078" y="651.0669">Bestellung bearbeitet</text><text fill="#000000" font-family="sans-serif" font-size="13" lengthAdjust="spacing" textLength="161" x="207.0078" y="666.1997">/ Anzahl Nachorderungen</text><text fill="#000000" font-family="sans-serif" font-size="13" lengthAdjust="spacing" textLength="118" x="228.5078" y="681.3325">an Cloud melden()</text></g><!--link Wunschbestellung_packen to Zuf?llig_packen--><g id="link_Wunschbestellung_packen_Zuf&#228;llig_packen"><path d="M210.0078,826.164 C210.0078,851.213 210.0078,886.4356 210.0078,912.7448 " fill="none" id="Wunschbestellung_packen-to-Zuf&#228;llig_packen" style="stroke:#181818;stroke-width:1.0;"/><polygon fill="#181818" points="210.0078,917.8821,214.0078,908.8821,210.0078,912.8821,206.0078,908.8821,210.0078,917.8821" style="stroke:#181818;stroke-width:1.0;"/><text fill="#000000" font-family="sans-serif" font-size="13" lengthAdjust="spacing" textLength="105" x="211.0078" y="869.0669">Ben&#246;tigte Tafeln</text><text fill="#000000" font-family="sans-serif" font-size="13" lengthAdjust="spacing" textLength="104" x="213.5078" y="884.1997">nicht vorhanden</text></g><!--link Zuf?llig_packen to Sch?tten--><g id="link_Zuf&#228;llig_packen_Sch&#252;tten"><path d="M302.5658,917.9507 C355.3188,893.7808 411.0078,854.237 411.0078,795 C411.0078,254 411.0078,254 411.0078,254 C411.0078,220.964 405.9438,211.364 389.0078,183 C383.4528,173.695 375.9738,164.779 368.3878,156.968 " fill="none" id="Zuf&#228;llig_packen-to-Sch&#252;tten" style="stroke:#181818;stroke-width:1.0;"/><polygon fill="#181818" points="364.6628,153.226,368.1779,162.4262,368.1905,156.7694,373.8473,156.782,364.6628,153.226" style="stroke:#181818;stroke-width:1.0;"/><text fill="#000000" font-family="sans-serif" font-size="13" lengthAdjust="spacing" textLength="60" x="412.0078" y="549.5669">Band leer</text></g><!--SRC=[VPDDRi8m48NtFiKisqgeUuIGe4kaRgXQgKs5d6IIM9W9SkoYvZmz0wlkSh6E0_bf86mpRxvdl-TyF7p2P3A7TPHLlzOYJM7zNLZSGM6biMY5Q4SmXNUNL3zQgnHXGQNCDBp813L1qOXwSizTOb8TJOp6RtUZ495Y3_ytFxDAPs0bTsWawvfnN-d19-q6JIABmX_xlEp8OhCkn43LUHoGKGHejfB8Ga2EObZbkOaLIN_258izgYX3OuSKRxzmYJKoBRJYi3OoD2wfyGkjiV4uwJtyiKbB4ZpftCMmGyt-T_T2SCuMuHLDUK2LEafXDekoN4KudminwjF_3fmAkxmvuXf2v2zQCuY5vuKHZBz8prY8_YdgQTltPY-ZRUsi4SsbSEZTwOb3jASjCQxwNukaJ78V_bhzJW8Y6MKNNjoLvzXH_At2bXqcH6b2LFpesGdQpfxPC_SFhuuqe2ibtZ8UHkWjgJfQbThsfV35wfI-SkClpeK1Y2lPZwOKK3-dijbiahb66_prIu_oBVq1]--></g></svg>