<?xml version="1.0" encoding="us-ascii" standalone="no"?><svg xmlns="http://www.w3.org/2000/svg" xmlns:xlink="http://www.w3.org/1999/xlink" contentStyleType="text/css" height="448px" preserveAspectRatio="none" style="width:932px;height:448px;background:#FFFFFF;" version="1.1" viewBox="0 0 932 448" width="932px" zoomAndPan="magnify"><defs/><g><!--cluster System--><g id="cluster_System"><path d="M137.5,6 L198.5,6 A3.75,3.75 0 0 1 201,8.5 L208,28.2969 L698.5,28.2969 A2.5,2.5 0 0 1 701,30.7969 L701,438.5 A2.5,2.5 0 0 1 698.5,441 L137.5,441 A2.5,2.5 0 0 1 135,438.5 L135,8.5 A2.5,2.5 0 0 1 137.5,6 " fill="none" style="stroke:#000000;stroke-width:1.5;"/><line style="stroke:#000000;stroke-width:1.5;" x1="135" x2="208" y1="28.2969" y2="28.2969"/><text fill="#000000" font-family="sans-serif" font-size="14" font-weight="bold" lengthAdjust="spacing" textLength="60" x="139" y="20.9951">System</text></g><g id="elem_UC9"><ellipse cx="256.0262" cy="279.0697" fill="#F1F1F1" rx="78.0262" ry="26.0697" style="stroke:#181818;stroke-width:0.5;"/><text fill="#000000" font-family="sans-serif" font-size="14" lengthAdjust="spacing" textLength="94" x="206.6883" y="274.4868">Bestellstatus</text><text fill="#000000" font-family="sans-serif" font-size="14" lengthAdjust="spacing" textLength="56" x="225.6883" y="290.7837">abrufen</text></g><g id="elem_UC1"><ellipse cx="255.9084" cy="175.2278" fill="#F1F1F1" rx="104.9084" ry="26.2278" style="stroke:#181818;stroke-width:0.5;"/><text fill="#000000" font-family="sans-serif" font-size="14" lengthAdjust="spacing" textLength="131" x="187.4084" y="170.8269">Wunschbestellung</text><text fill="#000000" font-family="sans-serif" font-size="14" lengthAdjust="spacing" textLength="68" x="218.9084" y="187.1238">aufgeben</text></g><g id="elem_UC5"><ellipse cx="255.9084" cy="71.2278" fill="#F1F1F1" rx="104.9084" ry="26.2278" style="stroke:#181818;stroke-width:0.5;"/><text fill="#000000" font-family="sans-serif" font-size="14" lengthAdjust="spacing" textLength="131" x="187.4084" y="66.8269">Wunschbestellung</text><text fill="#000000" font-family="sans-serif" font-size="14" lengthAdjust="spacing" textLength="75" x="215.4084" y="83.1238">stornieren</text></g><g id="elem_UC2"><ellipse cx="579.9084" cy="67.2278" fill="#F1F1F1" rx="104.9084" ry="26.2278" style="stroke:#181818;stroke-width:0.5;"/><text fill="#000000" font-family="sans-serif" font-size="14" lengthAdjust="spacing" textLength="131" x="511.4084" y="62.8269">Wunschbestellung</text><text fill="#000000" font-family="sans-serif" font-size="14" lengthAdjust="spacing" textLength="53" x="550.4084" y="79.1238">packen</text></g><g id="elem_UC4"><ellipse cx="255.8212" cy="380.2042" fill="#F1F1F1" rx="99.8212" ry="26.2042" style="stroke:#181818;stroke-width:0.5;"/><text fill="#000000" font-family="sans-serif" font-size="14" lengthAdjust="spacing" textLength="124" x="190.8212" y="375.8033">Digitalen Zwilling</text><text fill="#000000" font-family="sans-serif" font-size="14" lengthAdjust="spacing" textLength="56" x="224.8212" y="392.1002">abrufen</text></g><g id="elem_UC6"><ellipse cx="580.1265" cy="284.1976" fill="#F1F1F1" rx="99.1265" ry="52.1976" style="stroke:#181818;stroke-width:0.5;"/><text fill="#000000" font-family="sans-serif" font-size="14" lengthAdjust="spacing" textLength="102" x="521.8765" y="258.599">Tafeln packen</text><line style="stroke:#181818;stroke-width:1.0;" x1="491.4988" x2="668.7543" y1="261.9008" y2="261.9008"/><text fill="#000000" font-family="sans-serif" font-size="14" lengthAdjust="spacing" textLength="114" x="515.8765" y="278.8959">extension point</text><text fill="#000000" font-family="sans-serif" font-size="14" lengthAdjust="spacing" textLength="131" x="507.3765" y="295.1927">Wunschbestellung</text><text fill="#000000" font-family="sans-serif" font-size="14" lengthAdjust="spacing" textLength="53" x="546.3765" y="311.4896">packen</text></g><g id="elem_UC7"><ellipse cx="579.9143" cy="154.1896" fill="#F1F1F1" rx="96.9143" ry="26.1896" style="stroke:#181818;stroke-width:0.5;"/><text fill="#000000" font-family="sans-serif" font-size="14" lengthAdjust="spacing" textLength="120" x="516.9143" y="149.7887">Gepackte Tafeln</text><text fill="#000000" font-family="sans-serif" font-size="14" lengthAdjust="spacing" textLength="84" x="534.9143" y="166.0855">entnehmen</text></g><g id="elem_UC8"><ellipse cx="579.7839" cy="405.8568" fill="#F1F1F1" rx="79.7839" ry="18.3568" style="stroke:#181818;stroke-width:0.5;"/><text fill="#000000" font-family="sans-serif" font-size="14" lengthAdjust="spacing" textLength="118" x="519.0356" y="409.2613">Tafeln erkennen</text></g><!--entity Kunde--><g id="elem_Kunde"><ellipse cx="47" cy="145.5" fill="#F1F1F1" rx="8" ry="8" style="stroke:#181818;stroke-width:0.5;"/><path d="M47,153.5 L47,180.5 M34,161.5 L60,161.5 M47,180.5 L34,195.5 M47,180.5 L60,195.5 " fill="none" style="stroke:#181818;stroke-width:0.5;"/><text fill="#000000" font-family="sans-serif" font-size="14" lengthAdjust="spacing" textLength="45" x="24.5" y="209.9951">Kunde</text></g><!--entity Verpackungsmitarbeiter--><g id="elem_Verpackungsmitarbeiter"><ellipse cx="836.5" cy="124.5" fill="#F1F1F1" rx="8" ry="8" style="stroke:#181818;stroke-width:0.5;"/><path d="M836.5,132.5 L836.5,159.5 M823.5,140.5 L849.5,140.5 M836.5,159.5 L823.5,174.5 M836.5,159.5 L849.5,174.5 " fill="none" style="stroke:#181818;stroke-width:0.5;"/><text fill="#000000" font-family="sans-serif" font-size="14" lengthAdjust="spacing" textLength="177" x="748" y="188.9951">Verpackungsmitarbeiter</text></g><!--entity Mitarbeiter--><g id="elem_Mitarbeiter"><ellipse cx="47" cy="350.5" fill="#F1F1F1" rx="8" ry="8" style="stroke:#181818;stroke-width:0.5;"/><path d="M47,358.5 L47,385.5 M34,366.5 L60,366.5 M47,385.5 L34,400.5 M47,385.5 L60,400.5 " fill="none" style="stroke:#181818;stroke-width:0.5;"/><text fill="#000000" font-family="sans-serif" font-size="14" lengthAdjust="spacing" textLength="82" x="6" y="414.9951">Mitarbeiter</text></g><!--link Kunde to UC9--><g id="link_Kunde_UC9"><path d="M69.5752,187.552 C85.3329,196.588 107.297,208.911 127,219 C152.088,231.847 180.426,245.242 204.05,256.108 " fill="none" id="Kunde-to-UC9" style="stroke:#181818;stroke-width:1.0;"/><polygon fill="#181818" points="208.709,258.247,202.198,250.8574,204.1648,256.1613,198.8609,258.1281,208.709,258.247" style="stroke:#181818;stroke-width:1.0;"/></g><!--link Kunde to UC1--><g id="link_Kunde_UC1"><path d="M69.7614,175 C88.4051,175 116.764,175 145.727,175 " fill="none" id="Kunde-to-UC1" style="stroke:#181818;stroke-width:1.0;"/><polygon fill="#181818" points="150.759,175,141.759,171,145.759,175,141.759,179,150.759,175" style="stroke:#181818;stroke-width:1.0;"/></g><!--link Kunde to UC5--><g id="link_Kunde_UC5"><path d="M69.5752,162.448 C85.3329,153.412 107.297,141.089 127,131 C150.556,118.938 176.977,106.392 199.671,95.91 " fill="none" id="Kunde-to-UC5" style="stroke:#181818;stroke-width:1.0;"/><polygon fill="#181818" points="204.454,93.706,194.6061,93.84,199.913,95.7987,197.9543,101.1056,204.454,93.706" style="stroke:#181818;stroke-width:1.0;"/></g><!--reverse link UC7 to Verpackungsmitarbeiter--><g id="link_UC7_Verpackungsmitarbeiter"><path d="M682.41,154 C704.096,154 726.828,154 747.941,154 " fill="none" id="UC7-backto-Verpackungsmitarbeiter" style="stroke:#181818;stroke-width:1.0;"/><polygon fill="#181818" points="677.216,154,686.216,158,682.216,154,686.216,150,677.216,154" style="stroke:#181818;stroke-width:1.0;"/></g><!--link Mitarbeiter to UC4--><g id="link_Mitarbeiter_UC4"><path d="M88.4031,380 C106.452,380 128.64,380 150.867,380 " fill="none" id="Mitarbeiter-to-UC4" style="stroke:#181818;stroke-width:1.0;"/><polygon fill="#181818" points="155.909,380,146.909,376,150.909,380,146.909,384,155.909,380" style="stroke:#181818;stroke-width:1.0;"/></g><!--reverse link UC1 to UC9--><g id="link_UC1_UC9"><path d="M256,206.548 C256,221.322 256,238.715 256,252.756 " fill="none" id="UC1-backto-UC9" style="stroke:#000000;stroke-width:1.0;stroke-dasharray:7.0,7.0;"/><polygon fill="#000000" points="256,201.235,252,210.235,256,206.235,260,210.235,256,201.235" style="stroke:#000000;stroke-width:1.0;"/><text fill="#000000" font-family="sans-serif" font-size="13" lengthAdjust="spacing" textLength="52" x="218.5" y="231.5669">includes</text></g><!--reverse link UC1 to UC5--><g id="link_UC1_UC5"><path d="M256,143.443 C256,128.668 256,111.275 256,97.235 " fill="none" id="UC1-backto-UC5" style="stroke:#000000;stroke-width:1.0;stroke-dasharray:7.0,7.0;"/><polygon fill="#000000" points="256,148.756,260,139.756,256,143.756,252,139.756,256,148.756" style="stroke:#000000;stroke-width:1.0;"/><text fill="#000000" font-family="sans-serif" font-size="13" lengthAdjust="spacing" textLength="52" x="218.5" y="127.5669">includes</text></g><!--reverse link UC6 to UC2--><g id="link_UC6_UC2"><path d="M490.581,254.81 C440.155,232.888 391.377,199.008 414,154.5 C431.788,119.505 469.61,98.068 504.664,85.179 " fill="none" id="UC6-backto-UC2" style="stroke:#000000;stroke-width:1.0;stroke-dasharray:7.0,7.0;"/><polygon fill="#000000" points="495.463,256.894,488.7558,249.682,490.8644,254.9311,485.6152,257.0397,495.463,256.894" style="stroke:#000000;stroke-width:1.0;"/><text fill="#000000" font-family="sans-serif" font-size="13" lengthAdjust="spacing" textLength="52" x="392" y="167.5669">extends</text></g><!--reverse link UC6 to UC7--><g id="link_UC6_UC7"><path d="M580,226.836 C580,210.521 580,193.537 580,180.078 " fill="none" id="UC6-backto-UC7" style="stroke:#000000;stroke-width:1.0;stroke-dasharray:7.0,7.0;"/><polygon fill="#000000" points="580,231.873,584,222.873,580,226.873,576,222.873,580,231.873" style="stroke:#000000;stroke-width:1.0;"/><text fill="#000000" font-family="sans-serif" font-size="13" lengthAdjust="spacing" textLength="52" x="542.5" y="210.5669">includes</text></g><!--reverse link UC8 to UC6--><g id="link_UC8_UC6"><path d="M580,382.445 C580,369.2947 580,352.358 580,336.252 " fill="none" id="UC8-backto-UC6" style="stroke:#000000;stroke-width:1.0;stroke-dasharray:7.0,7.0;"/><polygon fill="#000000" points="580,387.4708,584,378.4708,580,382.4708,576,378.4708,580,387.4708" style="stroke:#000000;stroke-width:1.0;"/><text fill="#000000" font-family="sans-serif" font-size="13" lengthAdjust="spacing" textLength="52" x="542.5" y="366.3169">includes</text></g><!--link UC4 to UC8--><g id="link_UC4_UC8"><path d="M351.869,387.6602 C398.669,391.4391 454.493,395.9467 499.086,399.5473 " fill="none" id="UC4-to-UC8" style="stroke:#000000;stroke-width:1.0;stroke-dasharray:7.0,7.0;"/><polygon fill="#000000" points="504.191,399.9595,495.5425,395.2474,499.2073,399.5566,494.898,403.2213,504.191,399.9595" style="stroke:#000000;stroke-width:1.0;"/><text fill="#000000" font-family="sans-serif" font-size="13" lengthAdjust="spacing" textLength="52" x="392" y="387.0669">includes</text></g><!--link UC4 to UC6--><g id="link_UC4_UC6"><path d="M322.55,360.4573 C370.29,346.224 435.555,326.766 488.297,311.042 " fill="none" id="UC4-to-UC6" style="stroke:#000000;stroke-width:1.0;stroke-dasharray:7.0,7.0;"/><polygon fill="#000000" points="493.361,309.532,483.5933,308.2703,488.5694,310.9606,485.8791,315.9368,493.361,309.532" style="stroke:#000000;stroke-width:1.0;"/><text fill="#000000" font-family="sans-serif" font-size="13" lengthAdjust="spacing" textLength="52" x="392" y="322.0669">includes</text></g><!--SRC=[dP8xJyCm4CTtVufJMUWGf5Pz4IG6YiI0cA0WeIvEV4ait4lbXmf2V7Sk3RXfXwgmnUVV_v5B31OUV0rMbvK7fItcNjSan5hcRx94UFnm7bVmAG22mrmwXDuDyimOvwKFRaaoiw50we5qi9XVTicNG2wlifOFL38SYXApI0-EqyxNbZJQo8-Fyqtho0wxxAqkjPS62LutsXYzxR9NVDJ15_D9C-mzoG8DGMihaaJWkqTol25OrvgyEAmWVXjqi- -mcNg4rcv9I9wmMiNeQPV-oKJBFXIHcVWIuZwGGaYIQpZdHVVtpuE3yxWlHFgCjidcPcx5xsypr1vj2abOjzIqBzA7lHjLRwYz6x43vq1Y-2_X4MV06QyEqyomwLNpUA6agr112ffo4nGwbep_BXbs99CZakq7K8rYUg8YXeY6ssbcfnKRnOtyIt9Aisy0]--></g></svg>