<?xml version="1.0" encoding="us-ascii" standalone="no"?><svg xmlns="http://www.w3.org/2000/svg" xmlns:xlink="http://www.w3.org/1999/xlink" contentStyleType="text/css" height="399px" preserveAspectRatio="none" style="width:997px;height:399px;background:#FFFFFF;" version="1.1" viewBox="0 0 997 399" width="997px" zoomAndPan="magnify"><defs/><g><!--cluster System--><g id="cluster_System"><path d="M137.5,6 L198.5,6 A3.75,3.75 0 0 1 201,8.5 L208,28.2969 L763.5,28.2969 A2.5,2.5 0 0 1 766,30.7969 L766,389.5 A2.5,2.5 0 0 1 763.5,392 L137.5,392 A2.5,2.5 0 0 1 135,389.5 L135,8.5 A2.5,2.5 0 0 1 137.5,6 " fill="none" style="stroke:#000000;stroke-width:1.5;"/><line style="stroke:#000000;stroke-width:1.5;" x1="135" x2="208" y1="28.2969" y2="28.2969"/><text fill="#000000" font-family="sans-serif" font-size="14" font-weight="bold" lengthAdjust="spacing" textLength="60" x="139" y="20.9951">System</text></g><g id="elem_UC9"><ellipse cx="271.9604" cy="270.9921" fill="#F1F1F1" rx="95.4604" ry="21.4921" style="stroke:#181818;stroke-width:0.5;"/><text fill="#000000" font-family="sans-serif" font-size="14" lengthAdjust="spacing" textLength="154" x="194.9604" y="273.8388">Bestellstatus abrufen</text></g><g id="elem_UC1"><ellipse cx="271.9616" cy="171.9923" fill="#F1F1F1" rx="117.9616" ry="25.9923" style="stroke:#181818;stroke-width:0.5;"/><text fill="#000000" font-family="sans-serif" font-size="14" lengthAdjust="spacing" textLength="203" x="170.4616" y="174.839">Wunschbestellung aufgeben</text></g><g id="elem_UC5"><ellipse cx="272.241" cy="68.1482" fill="#F1F1F1" rx="121.241" ry="26.6482" style="stroke:#181818;stroke-width:0.5;"/><text fill="#000000" font-family="sans-serif" font-size="14" lengthAdjust="spacing" textLength="210" x="167.241" y="70.9949">Wunschbestellung stornieren</text></g><g id="elem_UC2"><ellipse cx="628.7105" cy="93.2421" fill="#F1F1F1" rx="121.7105" ry="26.7421" style="stroke:#181818;stroke-width:0.5;"/><text fill="#000000" font-family="sans-serif" font-size="14" lengthAdjust="spacing" textLength="211" x="523.2105" y="96.0888">Wunschbestellung vorhanden</text></g><g id="elem_UC4"><ellipse cx="272.1316" cy="352.2263" fill="#F1F1F1" rx="109.1316" ry="24.2263" style="stroke:#181818;stroke-width:0.5;"/><text fill="#000000" font-family="sans-serif" font-size="14" lengthAdjust="spacing" textLength="184" x="180.1316" y="355.073">Digitalen Zwilling abrufen</text></g><g id="elem_UC6"><ellipse cx="628.4504" cy="262.0901" fill="#F1F1F1" rx="73.4504" ry="17.0901" style="stroke:#181818;stroke-width:0.5;"/><text fill="#000000" font-family="sans-serif" font-size="14" lengthAdjust="spacing" textLength="102" x="574.4504" y="265.8376">Tafeln packen</text></g><g id="elem_UC7"><ellipse cx="628.6635" cy="174.1327" fill="#F1F1F1" rx="86.1635" ry="19.6327" style="stroke:#181818;stroke-width:0.5;"/><text fill="#000000" font-family="sans-serif" font-size="14" lengthAdjust="spacing" textLength="133" x="562.1635" y="176.9794">Tafeln entnehmen</text></g><g id="elem_UC8"><ellipse cx="628.2839" cy="348.8568" fill="#F1F1F1" rx="79.7839" ry="18.3568" style="stroke:#181818;stroke-width:0.5;"/><text fill="#000000" font-family="sans-serif" font-size="14" lengthAdjust="spacing" textLength="118" x="567.5356" y="352.2613">Tafeln erkennen</text></g><!--entity Kunde--><g id="elem_Kunde"><ellipse cx="47" cy="142.5" fill="#F1F1F1" rx="8" ry="8" style="stroke:#181818;stroke-width:0.5;"/><path d="M47,150.5 L47,177.5 M34,158.5 L60,158.5 M47,177.5 L34,192.5 M47,177.5 L60,192.5 " fill="none" style="stroke:#181818;stroke-width:0.5;"/><text fill="#000000" font-family="sans-serif" font-size="14" lengthAdjust="spacing" textLength="45" x="24.5" y="206.9951">Kunde</text></g><!--entity Verpackungsmitarbeiter--><g id="elem_Verpackungsmitarbeiter"><ellipse cx="901.5" cy="144.5" fill="#F1F1F1" rx="8" ry="8" style="stroke:#181818;stroke-width:0.5;"/><path d="M901.5,152.5 L901.5,179.5 M888.5,160.5 L914.5,160.5 M901.5,179.5 L888.5,194.5 M901.5,179.5 L914.5,194.5 " fill="none" style="stroke:#181818;stroke-width:0.5;"/><text fill="#000000" font-family="sans-serif" font-size="14" lengthAdjust="spacing" textLength="177" x="813" y="208.9951">Verpackungsmitarbeiter</text></g><!--entity Mitarbeiter--><g id="elem_Mitarbeiter"><ellipse cx="47" cy="322.5" fill="#F1F1F1" rx="8" ry="8" style="stroke:#181818;stroke-width:0.5;"/><path d="M47,330.5 L47,357.5 M34,338.5 L60,338.5 M47,357.5 L34,372.5 M47,357.5 L60,372.5 " fill="none" style="stroke:#181818;stroke-width:0.5;"/><text fill="#000000" font-family="sans-serif" font-size="14" lengthAdjust="spacing" textLength="82" x="6" y="386.9951">Mitarbeiter</text></g><!--link Kunde to UC9--><g id="link_Kunde_UC9"><path d="M69.6929,185.192 C85.3227,194.42 107.082,206.708 127,216 C154.968,229.048 186.96,241.501 213.675,251.248 " fill="none" id="Kunde-to-UC9" style="stroke:#181818;stroke-width:1.0;"/><polygon fill="#181818" points="218.6,253.036,211.5045,246.2056,213.8999,251.3303,208.7753,253.7257,218.6,253.036" style="stroke:#181818;stroke-width:1.0;"/></g><!--link Kunde to UC1--><g id="link_Kunde_UC1"><path d="M69.7882,172 C88.8509,172 118.184,172 148.608,172 " fill="none" id="Kunde-to-UC1" style="stroke:#181818;stroke-width:1.0;"/><polygon fill="#181818" points="153.898,172,144.898,168,148.898,172,144.898,176,153.898,172" style="stroke:#181818;stroke-width:1.0;"/></g><!--link Kunde to UC5--><g id="link_Kunde_UC5"><path d="M69.7799,158.991 C85.4508,149.849 107.224,137.589 127,128 C152.695,115.541 181.651,103.167 206.824,92.921 " fill="none" id="Kunde-to-UC5" style="stroke:#181818;stroke-width:1.0;"/><polygon fill="#181818" points="211.478,91.033,201.6344,90.7107,206.8449,92.9131,204.6426,98.1236,211.478,91.033" style="stroke:#181818;stroke-width:1.0;"/></g><!--reverse link UC7 to Verpackungsmitarbeiter--><g id="link_UC7_Verpackungsmitarbeiter"><path d="M719.683,174 C749.736,174 783.15,174 812.996,174 " fill="none" id="UC7-backto-Verpackungsmitarbeiter" style="stroke:#181818;stroke-width:1.0;"/><polygon fill="#181818" points="714.503,174,723.503,178,719.503,174,723.503,170,714.503,174" style="stroke:#181818;stroke-width:1.0;"/></g><!--link Mitarbeiter to UC4--><g id="link_Mitarbeiter_UC4"><path d="M88.1255,352 C107.875,352 132.78,352 157.798,352 " fill="none" id="Mitarbeiter-to-UC4" style="stroke:#181818;stroke-width:1.0;"/><polygon fill="#181818" points="162.802,352,153.802,348,157.802,352,153.802,356,162.802,352" style="stroke:#181818;stroke-width:1.0;"/></g><!--reverse link UC1 to UC9--><g id="link_UC1_UC9"><path d="M272,203.464 C272,218.298 272,235.635 272,249.029 " fill="none" id="UC1-backto-UC9" style="stroke:#000000;stroke-width:1.0;stroke-dasharray:7.0,7.0;"/><polygon fill="#000000" points="272,198.124,268,207.124,272,203.124,276,207.124,272,198.124" style="stroke:#000000;stroke-width:1.0;"/><text fill="#000000" font-family="sans-serif" font-size="13" lengthAdjust="spacing" textLength="52" x="234.5" y="228.3169">includes</text></g><!--reverse link UC1 to UC5--><g id="link_UC1_UC5"><path d="M272,140.484 C272,125.827 272,108.586 272,94.597 " fill="none" id="UC1-backto-UC5" style="stroke:#000000;stroke-width:1.0;stroke-dasharray:7.0,7.0;"/><polygon fill="#000000" points="272,145.756,276,136.756,272,140.756,268,136.756,272,145.756" style="stroke:#000000;stroke-width:1.0;"/><text fill="#000000" font-family="sans-serif" font-size="13" lengthAdjust="spacing" textLength="52" x="234.5" y="124.8169">includes</text></g><!--reverse link UC6 to UC2--><g id="link_UC6_UC2"><path d="M556.687,253.469 C517.583,244.751 472.333,227.127 448,191.5 C419.711,150.081 476.843,124.457 534.153,109.765 " fill="none" id="UC6-backto-UC2" style="stroke:#000000;stroke-width:1.0;stroke-dasharray:7.0,7.0;"/><polygon fill="#000000" points="561.914,254.59,553.9531,248.7914,557.0252,253.5414,552.2753,256.6135,561.914,254.59" style="stroke:#000000;stroke-width:1.0;"/><text fill="#000000" font-family="sans-serif" font-size="13" lengthAdjust="spacing" textLength="52" x="424" y="187.5669">extends</text></g><!--reverse link UC6 to UC7--><g id="link_UC6_UC7"><path d="M628.5,239.605 C628.5,225.481 628.5,207.407 628.5,193.807 " fill="none" id="UC6-backto-UC7" style="stroke:#000000;stroke-width:1.0;stroke-dasharray:7.0,7.0;"/><polygon fill="#000000" points="628.5,244.614,632.5,235.614,628.5,239.614,624.5,235.614,628.5,244.614" style="stroke:#000000;stroke-width:1.0;"/><text fill="#000000" font-family="sans-serif" font-size="13" lengthAdjust="spacing" textLength="52" x="591" y="223.8169">includes</text></g><!--reverse link UC8 to UC6--><g id="link_UC8_UC6"><path d="M628.5,324.9391 C628.5,310.3769 628.5,292.156 628.5,279.072 " fill="none" id="UC8-backto-UC6" style="stroke:#000000;stroke-width:1.0;stroke-dasharray:7.0,7.0;"/><polygon fill="#000000" points="628.5,330.1223,632.5,321.1223,628.5,325.1223,624.5,321.1223,628.5,330.1223" style="stroke:#000000;stroke-width:1.0;"/><text fill="#000000" font-family="sans-serif" font-size="13" lengthAdjust="spacing" textLength="52" x="591" y="309.3169">includes</text></g><!--link UC4 to UC8--><g id="link_UC4_UC8"><path d="M381.288,351.0836 C433.251,350.6439 494.583,350.1248 543.034,349.7148 " fill="none" id="UC4-to-UC8" style="stroke:#000000;stroke-width:1.0;stroke-dasharray:7.0,7.0;"/><polygon fill="#000000" points="548.278,349.6704,539.244,345.7477,543.2782,349.7133,539.3126,353.7474,548.278,349.6704" style="stroke:#000000;stroke-width:1.0;"/><text fill="#000000" font-family="sans-serif" font-size="13" lengthAdjust="spacing" textLength="52" x="424" y="346.0669">includes</text></g><!--link UC4 to UC6--><g id="link_UC4_UC6"><path d="M344.312,333.8954 C411.864,316.7454 511.842,291.363 573.162,275.795 " fill="none" id="UC4-to-UC6" style="stroke:#000000;stroke-width:1.0;stroke-dasharray:7.0,7.0;"/><polygon fill="#000000" points="578.24,274.506,568.5326,272.8425,573.3936,275.7358,570.5003,280.5968,578.24,274.506" style="stroke:#000000;stroke-width:1.0;"/><text fill="#000000" font-family="sans-serif" font-size="13" lengthAdjust="spacing" textLength="52" x="424" y="297.0669">includes</text></g><!--SRC=[dP5DJyCm38Rl-HNMkD13aJQjwoWI1-26EF4bSKiRjut8t2aV38JuxxYQ55eqJOLRR3-l_TenM7lm7LZTj1wKjbXvtP4GMrczoWRX_iDvtC2d00WEA-aGPbV8EMESbpuuaAKDDT8Cf8F7w_CX-1p8LMsvnmCr84FTO1dX-L7O-SwIHXlnx2Z-rjbMaehqOaZVw4PxQP3WPQUDqRsNaU_ba7wGDHg2_WOHM1q0a3nXkubCVeYnt8CYiXPVGjm6zWbfUWcdVB5a7Cz_nLaYHF64jdV3UxeDBs9Br1vj0MdOxgay4SNTgAAw7UrhI-x0So0r_DkSuXbmmZV0eZJSzA9_dYdfMbHGWARA18ME9TdV9Ok1P7L4WkyUIVMAVA8Y3X4zzwDPJpEsZ1VvbsIAisy0]--></g></svg>