<?xml version="1.0" encoding="utf-8" standalone="no"?>
<!DOCTYPE svg PUBLIC "-//W3C//DTD SVG 1.1//EN"
  "http://www.w3.org/Graphics/SVG/1.1/DTD/svg11.dtd">
<svg xmlns:xlink="http://www.w3.org/1999/xlink" width="432pt" height="288pt" viewBox="0 0 432 288" xmlns="http://www.w3.org/2000/svg" version="1.1">
 <metadata>
  <rdf:RDF xmlns:dc="http://purl.org/dc/elements/1.1/" xmlns:cc="http://creativecommons.org/ns#" xmlns:rdf="http://www.w3.org/1999/02/22-rdf-syntax-ns#">
   <cc:Work>
    <dc:type rdf:resource="http://purl.org/dc/dcmitype/StillImage"/>
    <dc:date>2023-07-02T22:05:21.910811</dc:date>
    <dc:format>image/svg+xml</dc:format>
    <dc:creator>
     <cc:Agent>
      <dc:title>Matplotlib v3.7.1, https://matplotlib.org/</dc:title>
     </cc:Agent>
    </dc:creator>
   </cc:Work>
  </rdf:RDF>
 </metadata>
 <defs>
  <style type="text/css">*{stroke-linejoin: round; stroke-linecap: butt}</style>
 </defs>
 <g id="figure_1">
  <g id="patch_1">
   <path d="M 0 288 
L 432 288 
L 432 0 
L 0 0 
L 0 288 
z
" style="fill: none"/>
  </g>
  <g id="axes_1">
   <g id="patch_2">
    <path d="M 54 252 
L 388.8 252 
L 388.8 34.56 
L 54 34.56 
z
" style="fill: #ffffff"/>
   </g>
   <g id="matplotlib.axis_1">
    <g id="xtick_1">
     <g id="line2d_1">
      <defs>
       <path id="m59ae4d799e" d="M 0 0 
L 0 3.5 
" style="stroke: #000000; stroke-width: 0.8"/>
      </defs>
      <g>
       <use xlink:href="#m59ae4d799e" x="69.218182" y="252" style="stroke: #000000; stroke-width: 0.8"/>
      </g>
     </g>
     <g id="text_1">
      <!-- 0 -->
      <g transform="translate(66.036932 266.598437) scale(0.1 -0.1)">
       <defs>
        <path id="DejaVuSans-30" d="M 2034 4250 
Q 1547 4250 1301 3770 
Q 1056 3291 1056 2328 
Q 1056 1369 1301 889 
Q 1547 409 2034 409 
Q 2525 409 2770 889 
Q 3016 1369 3016 2328 
Q 3016 3291 2770 3770 
Q 2525 4250 2034 4250 
z
M 2034 4750 
Q 2819 4750 3233 4129 
Q 3647 3509 3647 2328 
Q 3647 1150 3233 529 
Q 2819 -91 2034 -91 
Q 1250 -91 836 529 
Q 422 1150 422 2328 
Q 422 3509 836 4129 
Q 1250 4750 2034 4750 
z
" transform="scale(0.015625)"/>
       </defs>
       <use xlink:href="#DejaVuSans-30"/>
      </g>
     </g>
    </g>
    <g id="xtick_2">
     <g id="line2d_2">
      <g>
       <use xlink:href="#m59ae4d799e" x="130.151843" y="252" style="stroke: #000000; stroke-width: 0.8"/>
      </g>
     </g>
     <g id="text_2">
      <!-- 200 -->
      <g transform="translate(120.608093 266.598437) scale(0.1 -0.1)">
       <defs>
        <path id="DejaVuSans-32" d="M 1228 531 
L 3431 531 
L 3431 0 
L 469 0 
L 469 531 
Q 828 903 1448 1529 
Q 2069 2156 2228 2338 
Q 2531 2678 2651 2914 
Q 2772 3150 2772 3378 
Q 2772 3750 2511 3984 
Q 2250 4219 1831 4219 
Q 1534 4219 1204 4116 
Q 875 4013 500 3803 
L 500 4441 
Q 881 4594 1212 4672 
Q 1544 4750 1819 4750 
Q 2544 4750 2975 4387 
Q 3406 4025 3406 3419 
Q 3406 3131 3298 2873 
Q 3191 2616 2906 2266 
Q 2828 2175 2409 1742 
Q 1991 1309 1228 531 
z
" transform="scale(0.015625)"/>
       </defs>
       <use xlink:href="#DejaVuSans-32"/>
       <use xlink:href="#DejaVuSans-30" x="63.623047"/>
       <use xlink:href="#DejaVuSans-30" x="127.246094"/>
      </g>
     </g>
    </g>
    <g id="xtick_3">
     <g id="line2d_3">
      <g>
       <use xlink:href="#m59ae4d799e" x="191.085504" y="252" style="stroke: #000000; stroke-width: 0.8"/>
      </g>
     </g>
     <g id="text_3">
      <!-- 400 -->
      <g transform="translate(181.541754 266.598437) scale(0.1 -0.1)">
       <defs>
        <path id="DejaVuSans-34" d="M 2419 4116 
L 825 1625 
L 2419 1625 
L 2419 4116 
z
M 2253 4666 
L 3047 4666 
L 3047 1625 
L 3713 1625 
L 3713 1100 
L 3047 1100 
L 3047 0 
L 2419 0 
L 2419 1100 
L 313 1100 
L 313 1709 
L 2253 4666 
z
" transform="scale(0.015625)"/>
       </defs>
       <use xlink:href="#DejaVuSans-34"/>
       <use xlink:href="#DejaVuSans-30" x="63.623047"/>
       <use xlink:href="#DejaVuSans-30" x="127.246094"/>
      </g>
     </g>
    </g>
    <g id="xtick_4">
     <g id="line2d_4">
      <g>
       <use xlink:href="#m59ae4d799e" x="252.019165" y="252" style="stroke: #000000; stroke-width: 0.8"/>
      </g>
     </g>
     <g id="text_4">
      <!-- 600 -->
      <g transform="translate(242.475415 266.598437) scale(0.1 -0.1)">
       <defs>
        <path id="DejaVuSans-36" d="M 2113 2584 
Q 1688 2584 1439 2293 
Q 1191 2003 1191 1497 
Q 1191 994 1439 701 
Q 1688 409 2113 409 
Q 2538 409 2786 701 
Q 3034 994 3034 1497 
Q 3034 2003 2786 2293 
Q 2538 2584 2113 2584 
z
M 3366 4563 
L 3366 3988 
Q 3128 4100 2886 4159 
Q 2644 4219 2406 4219 
Q 1781 4219 1451 3797 
Q 1122 3375 1075 2522 
Q 1259 2794 1537 2939 
Q 1816 3084 2150 3084 
Q 2853 3084 3261 2657 
Q 3669 2231 3669 1497 
Q 3669 778 3244 343 
Q 2819 -91 2113 -91 
Q 1303 -91 875 529 
Q 447 1150 447 2328 
Q 447 3434 972 4092 
Q 1497 4750 2381 4750 
Q 2619 4750 2861 4703 
Q 3103 4656 3366 4563 
z
" transform="scale(0.015625)"/>
       </defs>
       <use xlink:href="#DejaVuSans-36"/>
       <use xlink:href="#DejaVuSans-30" x="63.623047"/>
       <use xlink:href="#DejaVuSans-30" x="127.246094"/>
      </g>
     </g>
    </g>
    <g id="xtick_5">
     <g id="line2d_5">
      <g>
       <use xlink:href="#m59ae4d799e" x="312.952826" y="252" style="stroke: #000000; stroke-width: 0.8"/>
      </g>
     </g>
     <g id="text_5">
      <!-- 800 -->
      <g transform="translate(303.409076 266.598437) scale(0.1 -0.1)">
       <defs>
        <path id="DejaVuSans-38" d="M 2034 2216 
Q 1584 2216 1326 1975 
Q 1069 1734 1069 1313 
Q 1069 891 1326 650 
Q 1584 409 2034 409 
Q 2484 409 2743 651 
Q 3003 894 3003 1313 
Q 3003 1734 2745 1975 
Q 2488 2216 2034 2216 
z
M 1403 2484 
Q 997 2584 770 2862 
Q 544 3141 544 3541 
Q 544 4100 942 4425 
Q 1341 4750 2034 4750 
Q 2731 4750 3128 4425 
Q 3525 4100 3525 3541 
Q 3525 3141 3298 2862 
Q 3072 2584 2669 2484 
Q 3125 2378 3379 2068 
Q 3634 1759 3634 1313 
Q 3634 634 3220 271 
Q 2806 -91 2034 -91 
Q 1263 -91 848 271 
Q 434 634 434 1313 
Q 434 1759 690 2068 
Q 947 2378 1403 2484 
z
M 1172 3481 
Q 1172 3119 1398 2916 
Q 1625 2713 2034 2713 
Q 2441 2713 2670 2916 
Q 2900 3119 2900 3481 
Q 2900 3844 2670 4047 
Q 2441 4250 2034 4250 
Q 1625 4250 1398 4047 
Q 1172 3844 1172 3481 
z
" transform="scale(0.015625)"/>
       </defs>
       <use xlink:href="#DejaVuSans-38"/>
       <use xlink:href="#DejaVuSans-30" x="63.623047"/>
       <use xlink:href="#DejaVuSans-30" x="127.246094"/>
      </g>
     </g>
    </g>
    <g id="xtick_6">
     <g id="line2d_6">
      <g>
       <use xlink:href="#m59ae4d799e" x="373.886486" y="252" style="stroke: #000000; stroke-width: 0.8"/>
      </g>
     </g>
     <g id="text_6">
      <!-- 1000 -->
      <g transform="translate(361.161486 266.598437) scale(0.1 -0.1)">
       <defs>
        <path id="DejaVuSans-31" d="M 794 531 
L 1825 531 
L 1825 4091 
L 703 3866 
L 703 4441 
L 1819 4666 
L 2450 4666 
L 2450 531 
L 3481 531 
L 3481 0 
L 794 0 
L 794 531 
z
" transform="scale(0.015625)"/>
       </defs>
       <use xlink:href="#DejaVuSans-31"/>
       <use xlink:href="#DejaVuSans-30" x="63.623047"/>
       <use xlink:href="#DejaVuSans-30" x="127.246094"/>
       <use xlink:href="#DejaVuSans-30" x="190.869141"/>
      </g>
     </g>
    </g>
    <g id="text_7">
     <!-- Epochen -->
     <g transform="translate(199.84375 280.276563) scale(0.1 -0.1)">
      <defs>
       <path id="DejaVuSans-45" d="M 628 4666 
L 3578 4666 
L 3578 4134 
L 1259 4134 
L 1259 2753 
L 3481 2753 
L 3481 2222 
L 1259 2222 
L 1259 531 
L 3634 531 
L 3634 0 
L 628 0 
L 628 4666 
z
" transform="scale(0.015625)"/>
       <path id="DejaVuSans-70" d="M 1159 525 
L 1159 -1331 
L 581 -1331 
L 581 3500 
L 1159 3500 
L 1159 2969 
Q 1341 3281 1617 3432 
Q 1894 3584 2278 3584 
Q 2916 3584 3314 3078 
Q 3713 2572 3713 1747 
Q 3713 922 3314 415 
Q 2916 -91 2278 -91 
Q 1894 -91 1617 61 
Q 1341 213 1159 525 
z
M 3116 1747 
Q 3116 2381 2855 2742 
Q 2594 3103 2138 3103 
Q 1681 3103 1420 2742 
Q 1159 2381 1159 1747 
Q 1159 1113 1420 752 
Q 1681 391 2138 391 
Q 2594 391 2855 752 
Q 3116 1113 3116 1747 
z
" transform="scale(0.015625)"/>
       <path id="DejaVuSans-6f" d="M 1959 3097 
Q 1497 3097 1228 2736 
Q 959 2375 959 1747 
Q 959 1119 1226 758 
Q 1494 397 1959 397 
Q 2419 397 2687 759 
Q 2956 1122 2956 1747 
Q 2956 2369 2687 2733 
Q 2419 3097 1959 3097 
z
M 1959 3584 
Q 2709 3584 3137 3096 
Q 3566 2609 3566 1747 
Q 3566 888 3137 398 
Q 2709 -91 1959 -91 
Q 1206 -91 779 398 
Q 353 888 353 1747 
Q 353 2609 779 3096 
Q 1206 3584 1959 3584 
z
" transform="scale(0.015625)"/>
       <path id="DejaVuSans-63" d="M 3122 3366 
L 3122 2828 
Q 2878 2963 2633 3030 
Q 2388 3097 2138 3097 
Q 1578 3097 1268 2742 
Q 959 2388 959 1747 
Q 959 1106 1268 751 
Q 1578 397 2138 397 
Q 2388 397 2633 464 
Q 2878 531 3122 666 
L 3122 134 
Q 2881 22 2623 -34 
Q 2366 -91 2075 -91 
Q 1284 -91 818 406 
Q 353 903 353 1747 
Q 353 2603 823 3093 
Q 1294 3584 2113 3584 
Q 2378 3584 2631 3529 
Q 2884 3475 3122 3366 
z
" transform="scale(0.015625)"/>
       <path id="DejaVuSans-68" d="M 3513 2113 
L 3513 0 
L 2938 0 
L 2938 2094 
Q 2938 2591 2744 2837 
Q 2550 3084 2163 3084 
Q 1697 3084 1428 2787 
Q 1159 2491 1159 1978 
L 1159 0 
L 581 0 
L 581 4863 
L 1159 4863 
L 1159 2956 
Q 1366 3272 1645 3428 
Q 1925 3584 2291 3584 
Q 2894 3584 3203 3211 
Q 3513 2838 3513 2113 
z
" transform="scale(0.015625)"/>
       <path id="DejaVuSans-65" d="M 3597 1894 
L 3597 1613 
L 953 1613 
Q 991 1019 1311 708 
Q 1631 397 2203 397 
Q 2534 397 2845 478 
Q 3156 559 3463 722 
L 3463 178 
Q 3153 47 2828 -22 
Q 2503 -91 2169 -91 
Q 1331 -91 842 396 
Q 353 884 353 1716 
Q 353 2575 817 3079 
Q 1281 3584 2069 3584 
Q 2775 3584 3186 3129 
Q 3597 2675 3597 1894 
z
M 3022 2063 
Q 3016 2534 2758 2815 
Q 2500 3097 2075 3097 
Q 1594 3097 1305 2825 
Q 1016 2553 972 2059 
L 3022 2063 
z
" transform="scale(0.015625)"/>
       <path id="DejaVuSans-6e" d="M 3513 2113 
L 3513 0 
L 2938 0 
L 2938 2094 
Q 2938 2591 2744 2837 
Q 2550 3084 2163 3084 
Q 1697 3084 1428 2787 
Q 1159 2491 1159 1978 
L 1159 0 
L 581 0 
L 581 3500 
L 1159 3500 
L 1159 2956 
Q 1366 3272 1645 3428 
Q 1925 3584 2291 3584 
Q 2894 3584 3203 3211 
Q 3513 2838 3513 2113 
z
" transform="scale(0.015625)"/>
      </defs>
      <use xlink:href="#DejaVuSans-45"/>
      <use xlink:href="#DejaVuSans-70" x="63.183594"/>
      <use xlink:href="#DejaVuSans-6f" x="126.660156"/>
      <use xlink:href="#DejaVuSans-63" x="187.841797"/>
      <use xlink:href="#DejaVuSans-68" x="242.822266"/>
      <use xlink:href="#DejaVuSans-65" x="306.201172"/>
      <use xlink:href="#DejaVuSans-6e" x="367.724609"/>
     </g>
    </g>
   </g>
   <g id="matplotlib.axis_2">
    <g id="ytick_1">
     <g id="line2d_7">
      <defs>
       <path id="mae4955b5e8" d="M 0 0 
L -3.5 0 
" style="stroke: #000000; stroke-width: 0.8"/>
      </defs>
      <g>
       <use xlink:href="#mae4955b5e8" x="54" y="251.601838" style="stroke: #000000; stroke-width: 0.8"/>
      </g>
     </g>
     <g id="text_8">
      <!-- 1.5 -->
      <g transform="translate(31.096875 255.401056) scale(0.1 -0.1)">
       <defs>
        <path id="DejaVuSans-2e" d="M 684 794 
L 1344 794 
L 1344 0 
L 684 0 
L 684 794 
z
" transform="scale(0.015625)"/>
        <path id="DejaVuSans-35" d="M 691 4666 
L 3169 4666 
L 3169 4134 
L 1269 4134 
L 1269 2991 
Q 1406 3038 1543 3061 
Q 1681 3084 1819 3084 
Q 2600 3084 3056 2656 
Q 3513 2228 3513 1497 
Q 3513 744 3044 326 
Q 2575 -91 1722 -91 
Q 1428 -91 1123 -41 
Q 819 9 494 109 
L 494 744 
Q 775 591 1075 516 
Q 1375 441 1709 441 
Q 2250 441 2565 725 
Q 2881 1009 2881 1497 
Q 2881 1984 2565 2268 
Q 2250 2553 1709 2553 
Q 1456 2553 1204 2497 
Q 953 2441 691 2322 
L 691 4666 
z
" transform="scale(0.015625)"/>
       </defs>
       <use xlink:href="#DejaVuSans-31"/>
       <use xlink:href="#DejaVuSans-2e" x="63.623047"/>
       <use xlink:href="#DejaVuSans-35" x="95.410156"/>
      </g>
     </g>
    </g>
    <g id="ytick_2">
     <g id="line2d_8">
      <g>
       <use xlink:href="#mae4955b5e8" x="54" y="221.144111" style="stroke: #000000; stroke-width: 0.8"/>
      </g>
     </g>
     <g id="text_9">
      <!-- 2.0 -->
      <g transform="translate(31.096875 224.94333) scale(0.1 -0.1)">
       <use xlink:href="#DejaVuSans-32"/>
       <use xlink:href="#DejaVuSans-2e" x="63.623047"/>
       <use xlink:href="#DejaVuSans-30" x="95.410156"/>
      </g>
     </g>
    </g>
    <g id="ytick_3">
     <g id="line2d_9">
      <g>
       <use xlink:href="#mae4955b5e8" x="54" y="190.686384" style="stroke: #000000; stroke-width: 0.8"/>
      </g>
     </g>
     <g id="text_10">
      <!-- 2.5 -->
      <g transform="translate(31.096875 194.485603) scale(0.1 -0.1)">
       <use xlink:href="#DejaVuSans-32"/>
       <use xlink:href="#DejaVuSans-2e" x="63.623047"/>
       <use xlink:href="#DejaVuSans-35" x="95.410156"/>
      </g>
     </g>
    </g>
    <g id="ytick_4">
     <g id="line2d_10">
      <g>
       <use xlink:href="#mae4955b5e8" x="54" y="160.228657" style="stroke: #000000; stroke-width: 0.8"/>
      </g>
     </g>
     <g id="text_11">
      <!-- 3.0 -->
      <g transform="translate(31.096875 164.027876) scale(0.1 -0.1)">
       <defs>
        <path id="DejaVuSans-33" d="M 2597 2516 
Q 3050 2419 3304 2112 
Q 3559 1806 3559 1356 
Q 3559 666 3084 287 
Q 2609 -91 1734 -91 
Q 1441 -91 1130 -33 
Q 819 25 488 141 
L 488 750 
Q 750 597 1062 519 
Q 1375 441 1716 441 
Q 2309 441 2620 675 
Q 2931 909 2931 1356 
Q 2931 1769 2642 2001 
Q 2353 2234 1838 2234 
L 1294 2234 
L 1294 2753 
L 1863 2753 
Q 2328 2753 2575 2939 
Q 2822 3125 2822 3475 
Q 2822 3834 2567 4026 
Q 2313 4219 1838 4219 
Q 1578 4219 1281 4162 
Q 984 4106 628 3988 
L 628 4550 
Q 988 4650 1302 4700 
Q 1616 4750 1894 4750 
Q 2613 4750 3031 4423 
Q 3450 4097 3450 3541 
Q 3450 3153 3228 2886 
Q 3006 2619 2597 2516 
z
" transform="scale(0.015625)"/>
       </defs>
       <use xlink:href="#DejaVuSans-33"/>
       <use xlink:href="#DejaVuSans-2e" x="63.623047"/>
       <use xlink:href="#DejaVuSans-30" x="95.410156"/>
      </g>
     </g>
    </g>
    <g id="ytick_5">
     <g id="line2d_11">
      <g>
       <use xlink:href="#mae4955b5e8" x="54" y="129.77093" style="stroke: #000000; stroke-width: 0.8"/>
      </g>
     </g>
     <g id="text_12">
      <!-- 3.5 -->
      <g transform="translate(31.096875 133.570149) scale(0.1 -0.1)">
       <use xlink:href="#DejaVuSans-33"/>
       <use xlink:href="#DejaVuSans-2e" x="63.623047"/>
       <use xlink:href="#DejaVuSans-35" x="95.410156"/>
      </g>
     </g>
    </g>
    <g id="ytick_6">
     <g id="line2d_12">
      <g>
       <use xlink:href="#mae4955b5e8" x="54" y="99.313203" style="stroke: #000000; stroke-width: 0.8"/>
      </g>
     </g>
     <g id="text_13">
      <!-- 4.0 -->
      <g transform="translate(31.096875 103.112422) scale(0.1 -0.1)">
       <use xlink:href="#DejaVuSans-34"/>
       <use xlink:href="#DejaVuSans-2e" x="63.623047"/>
       <use xlink:href="#DejaVuSans-30" x="95.410156"/>
      </g>
     </g>
    </g>
    <g id="ytick_7">
     <g id="line2d_13">
      <g>
       <use xlink:href="#mae4955b5e8" x="54" y="68.855476" style="stroke: #000000; stroke-width: 0.8"/>
      </g>
     </g>
     <g id="text_14">
      <!-- 4.5 -->
      <g transform="translate(31.096875 72.654695) scale(0.1 -0.1)">
       <use xlink:href="#DejaVuSans-34"/>
       <use xlink:href="#DejaVuSans-2e" x="63.623047"/>
       <use xlink:href="#DejaVuSans-35" x="95.410156"/>
      </g>
     </g>
    </g>
    <g id="ytick_8">
     <g id="line2d_14">
      <g>
       <use xlink:href="#mae4955b5e8" x="54" y="38.397749" style="stroke: #000000; stroke-width: 0.8"/>
      </g>
     </g>
     <g id="text_15">
      <!-- 5.0 -->
      <g transform="translate(31.096875 42.196968) scale(0.1 -0.1)">
       <use xlink:href="#DejaVuSans-35"/>
       <use xlink:href="#DejaVuSans-2e" x="63.623047"/>
       <use xlink:href="#DejaVuSans-30" x="95.410156"/>
      </g>
     </g>
    </g>
    <g id="text_16">
     <!-- Loss -->
     <g transform="translate(25.017187 154.247187) rotate(-90) scale(0.1 -0.1)">
      <defs>
       <path id="DejaVuSans-4c" d="M 628 4666 
L 1259 4666 
L 1259 531 
L 3531 531 
L 3531 0 
L 628 0 
L 628 4666 
z
" transform="scale(0.015625)"/>
       <path id="DejaVuSans-73" d="M 2834 3397 
L 2834 2853 
Q 2591 2978 2328 3040 
Q 2066 3103 1784 3103 
Q 1356 3103 1142 2972 
Q 928 2841 928 2578 
Q 928 2378 1081 2264 
Q 1234 2150 1697 2047 
L 1894 2003 
Q 2506 1872 2764 1633 
Q 3022 1394 3022 966 
Q 3022 478 2636 193 
Q 2250 -91 1575 -91 
Q 1294 -91 989 -36 
Q 684 19 347 128 
L 347 722 
Q 666 556 975 473 
Q 1284 391 1588 391 
Q 1994 391 2212 530 
Q 2431 669 2431 922 
Q 2431 1156 2273 1281 
Q 2116 1406 1581 1522 
L 1381 1569 
Q 847 1681 609 1914 
Q 372 2147 372 2553 
Q 372 3047 722 3315 
Q 1072 3584 1716 3584 
Q 2034 3584 2315 3537 
Q 2597 3491 2834 3397 
z
" transform="scale(0.015625)"/>
      </defs>
      <use xlink:href="#DejaVuSans-4c"/>
      <use xlink:href="#DejaVuSans-6f" x="53.962891"/>
      <use xlink:href="#DejaVuSans-73" x="115.144531"/>
      <use xlink:href="#DejaVuSans-73" x="167.244141"/>
     </g>
    </g>
   </g>
   <g id="line2d_15">
    <path d="M 69.218182 117.462397 
L 69.52285 138.17748 
L 70.132187 153.342475 
L 70.741523 161.379774 
L 71.35086 166.656438 
L 71.960197 170.03535 
L 72.569533 172.259038 
L 73.483538 174.412341 
L 74.092875 175.434954 
L 75.00688 176.617402 
L 75.920885 177.542807 
L 78.358231 179.288799 
L 82.928256 181.73479 
L 83.537592 182.411499 
L 84.756265 184.416476 
L 85.67027 185.626134 
L 86.279607 186.17932 
L 87.49828 186.889125 
L 89.630958 187.830002 
L 91.458968 188.526937 
L 94.505651 189.415074 
L 95.114988 189.619405 
L 99.380344 190.793101 
L 102.122359 191.459847 
L 104.559705 192.028084 
L 105.778378 192.372051 
L 106.997052 192.661421 
L 107.911057 192.913453 
L 110.95774 193.775927 
L 118.879115 196.720797 
L 119.79312 197.153876 
L 121.62113 198.100768 
L 123.144472 198.877805 
L 124.058477 199.319267 
L 126.800491 200.661809 
L 127.10516 200.731441 
L 127.714496 201.142921 
L 128.019165 201.201902 
L 128.93317 201.787983 
L 129.237838 201.858772 
L 129.542506 202.139113 
L 129.847174 202.169331 
L 131.370516 203.057411 
L 131.979853 203.300264 
L 132.284521 203.459228 
L 132.589189 203.376392 
L 133.198526 203.642016 
L 133.807862 203.752742 
L 134.112531 204.139675 
L 134.417199 204.155873 
L 134.721867 204.694784 
L 135.026536 204.77392 
L 135.635872 205.092436 
L 135.940541 205.242183 
L 136.245209 205.219875 
L 136.549877 205.533983 
L 136.854545 205.49794 
L 137.159214 205.583639 
L 137.463882 206.044323 
L 137.76855 206.209692 
L 138.073219 205.984269 
L 138.682555 206.496291 
L 139.291892 206.974111 
L 139.59656 206.532897 
L 139.901229 206.930369 
L 140.205897 206.544384 
L 141.119902 207.394927 
L 141.42457 207.151663 
L 141.729238 207.086729 
L 142.033907 206.804998 
L 142.947912 207.347053 
L 143.25258 207.750168 
L 143.557248 207.212595 
L 143.861916 207.528379 
L 144.471253 207.615822 
L 144.775921 208.182001 
L 145.08059 208.006821 
L 145.385258 208.080791 
L 145.689926 208.637319 
L 145.994595 208.099913 
L 146.299263 208.564355 
L 146.603931 208.517762 
L 146.9086 208.64647 
L 147.213268 208.330087 
L 147.517936 208.473672 
L 147.822604 209.03113 
L 148.127273 209.253615 
L 149.041278 208.941481 
L 149.345946 209.342204 
L 149.955283 209.108188 
L 150.259951 209.49573 
L 150.564619 209.243803 
L 150.869287 209.919983 
L 151.173956 209.911569 
L 151.478624 209.623405 
L 151.783292 210.04758 
L 152.087961 209.47262 
L 152.392629 209.918218 
L 152.697297 209.76707 
L 153.001966 210.174425 
L 153.306634 209.774171 
L 153.611302 210.860729 
L 153.915971 211.075013 
L 154.220639 211.147066 
L 154.525307 210.841152 
L 154.829975 211.171594 
L 155.134644 211.209556 
L 155.439312 211.587651 
L 155.74398 210.561025 
L 156.048649 210.616932 
L 156.657985 211.955901 
L 156.962654 212.097073 
L 157.267322 211.734138 
L 157.57199 211.636957 
L 157.876658 210.736696 
L 158.181327 211.938778 
L 158.790663 212.325525 
L 159.095332 211.994272 
L 159.4 212.01779 
L 159.704668 211.59231 
L 160.314005 212.236049 
L 160.618673 212.178383 
L 160.923342 213.640499 
L 161.532678 212.193721 
L 161.837346 212.965662 
L 162.142015 212.729559 
L 162.446683 212.728284 
L 163.05602 213.108436 
L 163.360688 213.764697 
L 163.665356 213.661928 
L 163.970025 213.361976 
L 164.884029 214.130874 
L 165.188698 214.027409 
L 165.493366 214.121892 
L 165.798034 214.04607 
L 166.102703 214.436117 
L 167.626044 214.28 
L 167.930713 214.449886 
L 168.235381 214.341173 
L 168.540049 214.012231 
L 168.844717 215.251123 
L 169.149386 214.767848 
L 169.454054 215.17794 
L 169.758722 214.156919 
L 170.368059 215.297184 
L 170.672727 215.458799 
L 170.977396 215.774966 
L 171.282064 215.149563 
L 171.586732 215.457324 
L 171.8914 215.3383 
L 172.196069 215.029283 
L 172.805405 216.010491 
L 173.110074 215.539446 
L 173.414742 215.763906 
L 174.024079 215.779392 
L 174.328747 216.301843 
L 174.633415 215.803951 
L 174.938084 216.114213 
L 175.242752 216.70777 
L 175.54742 216.61171 
L 175.852088 216.996847 
L 176.461425 216.568129 
L 176.766093 217.038496 
L 177.070762 216.650811 
L 177.37543 216.734329 
L 177.680098 217.768737 
L 178.289435 216.377608 
L 178.594103 217.114024 
L 178.898771 217.172267 
L 179.508108 218.239943 
L 179.812776 217.132493 
L 180.117445 217.09342 
L 180.422113 217.558908 
L 181.03145 217.44125 
L 181.336118 217.794851 
L 181.640786 218.495477 
L 181.945455 218.009898 
L 182.250123 218.487011 
L 182.554791 217.544601 
L 182.859459 218.623535 
L 183.164128 218.123265 
L 183.468796 218.468773 
L 184.078133 218.370933 
L 184.382801 216.628297 
L 184.687469 218.54308 
L 184.992138 219.263546 
L 185.296806 216.513454 
L 185.601474 219.034807 
L 185.906143 217.718603 
L 186.210811 218.473653 
L 186.515479 217.116141 
L 186.820147 218.567329 
L 187.124816 218.736874 
L 187.429484 218.61097 
L 187.734152 217.932967 
L 188.038821 218.61188 
L 188.343489 218.748551 
L 188.648157 218.246855 
L 188.952826 218.270402 
L 189.257494 219.331098 
L 189.562162 218.761615 
L 189.86683 218.57337 
L 190.171499 219.6566 
L 190.476167 219.694161 
L 190.780835 219.317402 
L 191.085504 219.483603 
L 191.390172 220.631739 
L 191.69484 219.975656 
L 192.304177 220.01323 
L 192.608845 219.860059 
L 192.913514 220.414099 
L 193.218182 220.16974 
L 193.52285 219.623199 
L 193.827518 221.058796 
L 194.132187 218.888956 
L 194.436855 219.525644 
L 194.741523 221.252836 
L 195.046192 220.50472 
L 195.35086 219.052174 
L 195.655528 219.091678 
L 195.960197 220.847234 
L 196.264865 221.060004 
L 196.874201 220.779138 
L 197.17887 220.093545 
L 197.788206 220.455173 
L 198.092875 221.326617 
L 198.397543 220.997179 
L 198.702211 221.238506 
L 199.00688 220.238179 
L 199.616216 220.506837 
L 199.920885 221.340977 
L 200.225553 220.001546 
L 200.530221 220.353876 
L 200.834889 221.790722 
L 201.139558 220.039286 
L 201.444226 220.944996 
L 202.053563 220.902723 
L 202.358231 221.233571 
L 202.662899 221.372075 
L 202.967568 221.972449 
L 203.272236 221.441265 
L 203.576904 221.798613 
L 203.881572 220.317606 
L 204.186241 222.433163 
L 204.490909 222.219229 
L 204.795577 221.203909 
L 205.100246 222.456512 
L 205.404914 221.180449 
L 205.709582 222.460934 
L 206.014251 222.144662 
L 206.318919 222.629858 
L 206.623587 222.079993 
L 206.928256 222.003931 
L 207.232924 222.287942 
L 207.537592 221.823693 
L 208.146929 223.074394 
L 208.451597 221.93409 
L 208.756265 222.958236 
L 209.060934 222.660676 
L 209.365602 222.561522 
L 209.67027 221.958131 
L 209.974939 222.884641 
L 210.279607 221.67539 
L 210.584275 224.161825 
L 211.193612 222.062425 
L 211.49828 223.613728 
L 211.802948 223.440908 
L 212.107617 222.328148 
L 212.412285 223.312758 
L 212.716953 223.482186 
L 213.021622 223.318365 
L 213.32629 223.79964 
L 213.630958 223.826279 
L 213.935627 224.416203 
L 214.240295 223.939427 
L 214.544963 223.202915 
L 214.849631 224.181278 
L 215.1543 223.375573 
L 215.458968 223.366829 
L 215.763636 223.156003 
L 216.068305 222.600377 
L 216.372973 224.874385 
L 216.677641 224.477101 
L 216.98231 223.241795 
L 217.286978 223.565392 
L 217.591646 223.357806 
L 217.896314 225.044843 
L 218.200983 223.883138 
L 218.505651 224.715709 
L 218.810319 223.303244 
L 219.114988 224.761476 
L 219.419656 224.378325 
L 219.724324 223.356295 
L 220.028993 224.312159 
L 220.333661 223.229783 
L 220.638329 224.717639 
L 220.942998 225.178922 
L 221.552334 224.719401 
L 221.857002 224.803363 
L 222.161671 225.204771 
L 222.466339 223.721279 
L 222.771007 225.669653 
L 223.075676 224.956583 
L 223.380344 225.248848 
L 223.685012 224.968168 
L 224.294349 225.484458 
L 224.599017 225.916326 
L 225.208354 225.962476 
L 225.513022 224.70848 
L 225.81769 225.765467 
L 226.122359 224.653757 
L 226.427027 226.255339 
L 226.731695 224.795079 
L 227.341032 225.908406 
L 227.6457 225.801002 
L 227.950369 224.4877 
L 228.255037 226.730835 
L 228.559705 226.568816 
L 228.864373 224.660226 
L 229.169042 225.998185 
L 229.47371 225.188641 
L 229.778378 225.681356 
L 230.083047 225.67905 
L 230.387715 226.177592 
L 230.692383 225.995267 
L 230.997052 224.403303 
L 231.30172 227.185267 
L 231.606388 226.152909 
L 231.911057 227.458541 
L 232.215725 226.060187 
L 232.520393 226.474542 
L 232.825061 225.543375 
L 233.12973 227.489682 
L 233.434398 225.113924 
L 233.739066 226.778212 
L 234.043735 226.360565 
L 234.348403 227.437312 
L 234.653071 227.210595 
L 234.95774 226.433878 
L 235.262408 226.921743 
L 235.567076 227.658359 
L 235.871744 226.665992 
L 236.176413 227.869698 
L 236.481081 226.602293 
L 236.785749 227.718176 
L 237.090418 225.812282 
L 237.699754 226.549163 
L 238.004423 227.734567 
L 238.309091 226.311177 
L 238.918428 228.387644 
L 239.223096 226.775221 
L 239.527764 227.477071 
L 239.832432 226.962835 
L 240.137101 228.064377 
L 240.441769 226.338381 
L 240.746437 226.679029 
L 241.051106 227.622011 
L 241.355774 227.793183 
L 241.660442 226.867348 
L 241.965111 227.465018 
L 242.574447 228.215824 
L 242.879115 225.84485 
L 243.183784 228.168657 
L 243.488452 228.004729 
L 243.79312 228.599417 
L 244.097789 227.426116 
L 244.402457 228.607938 
L 245.011794 228.103719 
L 245.316462 227.518304 
L 245.62113 227.579749 
L 245.925799 228.891094 
L 246.230467 228.872819 
L 246.535135 228.353236 
L 246.839803 228.188411 
L 247.144472 228.250996 
L 247.44914 229.069477 
L 247.753808 228.243127 
L 248.058477 231.398827 
L 248.363145 228.468544 
L 248.667813 229.717065 
L 248.972482 230.070337 
L 249.27715 228.375135 
L 249.581818 227.722102 
L 249.886486 229.937382 
L 250.191155 229.090508 
L 250.495823 229.016464 
L 250.800491 230.224586 
L 251.10516 229.624994 
L 251.409828 227.568996 
L 251.714496 228.536239 
L 252.019165 228.948553 
L 252.323833 230.545033 
L 252.628501 227.301418 
L 252.93317 230.379959 
L 253.237838 229.273188 
L 253.542506 230.077873 
L 253.847174 228.901299 
L 254.151843 229.37726 
L 254.456511 230.588943 
L 254.761179 229.475339 
L 255.065848 229.977841 
L 255.370516 230.865888 
L 255.675184 228.26679 
L 255.979853 230.659947 
L 256.284521 230.534643 
L 256.589189 228.261745 
L 257.198526 230.696208 
L 257.503194 229.597067 
L 257.807862 230.67163 
L 258.112531 229.107671 
L 258.417199 231.288504 
L 258.721867 231.084302 
L 259.026536 228.509398 
L 259.331204 230.35196 
L 259.635872 231.366775 
L 259.940541 231.19596 
L 260.245209 231.396447 
L 260.549877 228.298639 
L 260.854545 230.300272 
L 261.159214 231.526808 
L 261.463882 231.235734 
L 261.76855 229.313114 
L 262.073219 231.112047 
L 262.682555 232.115455 
L 262.987224 228.963328 
L 263.291892 231.584797 
L 263.59656 230.853032 
L 263.901229 230.411522 
L 264.205897 231.313153 
L 264.510565 229.276849 
L 264.815233 231.54047 
L 265.119902 230.280429 
L 265.42457 229.582577 
L 265.729238 231.398746 
L 266.033907 231.768832 
L 266.338575 231.358917 
L 266.643243 229.937518 
L 266.947912 232.540679 
L 267.25258 232.238514 
L 267.557248 231.021205 
L 267.861916 231.183215 
L 268.166585 231.882608 
L 268.471253 231.830773 
L 268.775921 230.3622 
L 269.08059 230.782019 
L 269.385258 232.317512 
L 269.689926 232.186722 
L 269.994595 231.302787 
L 270.299263 232.381111 
L 270.603931 230.670139 
L 270.9086 232.010363 
L 271.213268 231.688548 
L 271.822604 232.190581 
L 272.127273 232.631281 
L 272.431941 232.60183 
L 273.041278 231.955867 
L 273.345946 232.616495 
L 273.650614 231.368689 
L 273.955283 232.583303 
L 274.259951 232.427489 
L 274.564619 231.868422 
L 274.869287 232.637211 
L 275.173956 231.121306 
L 275.478624 232.002357 
L 275.783292 231.641533 
L 276.087961 232.264767 
L 276.392629 233.187452 
L 276.697297 233.234261 
L 277.001966 232.181575 
L 277.306634 232.312842 
L 277.611302 232.092457 
L 277.915971 232.050352 
L 278.220639 233.151597 
L 278.525307 233.471706 
L 278.829975 231.326919 
L 279.134644 233.44368 
L 279.439312 231.758757 
L 279.74398 232.670052 
L 280.048649 233.991756 
L 280.353317 233.252763 
L 280.657985 234.014573 
L 280.962654 232.388646 
L 281.267322 232.868822 
L 281.57199 233.820699 
L 281.876658 233.788291 
L 282.181327 234.247943 
L 282.790663 232.749535 
L 283.095332 231.700744 
L 283.4 232.909057 
L 283.704668 232.988367 
L 284.009337 233.689661 
L 284.314005 232.596098 
L 284.618673 235.222127 
L 284.923342 233.506952 
L 285.22801 233.72808 
L 285.532678 233.036693 
L 285.837346 233.693264 
L 286.142015 234.888803 
L 286.446683 233.362062 
L 286.751351 235.341258 
L 287.05602 234.145224 
L 287.360688 234.499417 
L 287.665356 233.850953 
L 287.970025 234.182742 
L 288.274693 234.824699 
L 288.579361 232.906165 
L 288.884029 233.194522 
L 289.188698 234.816411 
L 289.493366 234.609986 
L 289.798034 233.42953 
L 290.102703 235.106729 
L 290.407371 233.953269 
L 290.712039 234.409927 
L 291.016708 235.717661 
L 291.626044 233.133778 
L 291.930713 235.9957 
L 292.235381 233.943678 
L 292.540049 234.8897 
L 292.844717 233.915601 
L 293.149386 234.992538 
L 293.454054 233.426343 
L 293.758722 233.238129 
L 294.063391 235.35974 
L 294.368059 234.80116 
L 294.672727 235.548621 
L 294.977396 235.038482 
L 295.282064 235.396029 
L 295.586732 234.794082 
L 295.8914 235.439042 
L 296.196069 233.28911 
L 296.500737 235.21924 
L 296.805405 235.393954 
L 297.110074 234.434501 
L 297.71941 235.82203 
L 298.024079 234.843202 
L 298.328747 233.03432 
L 298.633415 234.895988 
L 299.242752 236.476234 
L 299.54742 235.720565 
L 299.852088 236.583688 
L 300.461425 234.761863 
L 301.070762 236.125102 
L 301.37543 233.580701 
L 301.680098 236.537043 
L 301.984767 236.464959 
L 302.289435 234.670827 
L 302.594103 235.007797 
L 302.898771 234.940162 
L 303.20344 236.053332 
L 303.508108 236.164423 
L 303.812776 234.934159 
L 304.117445 236.846193 
L 304.422113 234.76795 
L 304.726781 233.878972 
L 305.03145 235.776071 
L 305.640786 235.329385 
L 305.945455 237.252183 
L 306.250123 235.694417 
L 306.554791 236.790097 
L 306.859459 233.83696 
L 307.164128 235.891864 
L 307.773464 236.655002 
L 308.078133 236.599202 
L 308.382801 237.00263 
L 308.687469 236.715308 
L 308.992138 235.2573 
L 309.296806 237.385325 
L 309.601474 234.661769 
L 309.906143 235.75579 
L 310.210811 235.757604 
L 310.515479 234.775116 
L 310.820147 236.855418 
L 311.124816 237.823191 
L 311.429484 237.613344 
L 311.734152 236.095695 
L 312.038821 235.85799 
L 312.343489 236.500485 
L 312.648157 238.041776 
L 312.952826 237.3535 
L 313.257494 235.87147 
L 313.562162 236.187934 
L 313.86683 236.342384 
L 314.171499 234.113664 
L 314.476167 236.984706 
L 314.780835 236.621587 
L 315.085504 236.562839 
L 315.390172 237.663983 
L 315.69484 237.795024 
L 315.999509 235.764404 
L 316.304177 237.4513 
L 316.608845 235.328278 
L 316.913514 236.696132 
L 317.52285 236.58737 
L 317.827518 238.05286 
L 318.132187 237.964511 
L 318.436855 236.07503 
L 318.741523 237.440617 
L 319.046192 238.108144 
L 319.35086 235.750326 
L 319.655528 238.011257 
L 319.960197 236.053863 
L 320.264865 238.089828 
L 320.569533 237.222834 
L 320.874201 237.525876 
L 321.483538 236.102681 
L 321.788206 236.273229 
L 322.092875 237.966343 
L 322.397543 236.656079 
L 322.702211 238.116288 
L 323.00688 238.606121 
L 323.616216 237.074953 
L 323.920885 239.109126 
L 324.225553 238.647907 
L 324.530221 235.987376 
L 324.834889 238.131801 
L 325.139558 237.017136 
L 325.444226 236.50962 
L 325.748894 238.396378 
L 326.053563 236.867637 
L 326.358231 236.109976 
L 326.662899 238.194186 
L 327.272236 238.914224 
L 327.576904 237.912357 
L 327.881572 236.044262 
L 328.186241 238.530382 
L 328.490909 236.220528 
L 328.795577 238.895288 
L 329.100246 238.279193 
L 329.404914 238.024092 
L 329.709582 238.110878 
L 330.014251 237.17212 
L 330.318919 238.731986 
L 330.623587 237.980245 
L 330.928256 238.827825 
L 331.232924 237.378143 
L 331.537592 237.208458 
L 331.84226 238.923863 
L 332.146929 236.050437 
L 332.451597 237.812785 
L 332.756265 237.774893 
L 333.060934 239.410155 
L 333.365602 237.733097 
L 333.974939 238.156359 
L 334.279607 236.584497 
L 334.584275 238.721626 
L 334.888943 238.99627 
L 335.49828 237.268983 
L 335.802948 238.912027 
L 336.107617 238.813584 
L 336.412285 238.969975 
L 336.716953 238.517239 
L 337.021622 237.772192 
L 337.32629 238.4843 
L 337.630958 237.917184 
L 337.935627 239.138864 
L 338.240295 238.215675 
L 338.544963 239.340454 
L 338.849631 238.482883 
L 339.1543 239.840451 
L 339.458968 237.728918 
L 340.372973 238.770543 
L 340.677641 239.039897 
L 340.98231 238.486367 
L 341.286978 238.812721 
L 341.591646 239.833021 
L 341.896314 239.468507 
L 342.200983 238.711848 
L 342.505651 239.635767 
L 342.810319 239.821449 
L 343.114988 237.696121 
L 343.419656 239.126121 
L 343.724324 239.446637 
L 344.028993 239.059931 
L 344.333661 239.758571 
L 344.638329 237.400485 
L 344.942998 239.52051 
L 345.247666 238.115371 
L 345.552334 240.492183 
L 345.857002 238.857918 
L 346.161671 238.796836 
L 346.466339 240.189658 
L 346.771007 239.882476 
L 347.075676 239.822917 
L 347.685012 237.966767 
L 347.989681 239.207582 
L 348.599017 240.312037 
L 348.903686 239.28586 
L 349.208354 239.19617 
L 349.513022 240.898542 
L 349.81769 239.553186 
L 350.122359 239.657394 
L 350.427027 240.606756 
L 350.731695 239.24283 
L 351.036364 239.052934 
L 351.341032 239.327631 
L 351.6457 238.625957 
L 351.950369 239.891099 
L 352.559705 239.984705 
L 352.864373 239.674757 
L 353.169042 240.66562 
L 353.47371 239.889657 
L 353.778378 240.078879 
L 354.083047 239.214624 
L 354.387715 240.261559 
L 354.692383 240.860599 
L 354.997052 239.125915 
L 355.30172 239.282486 
L 355.606388 240.421791 
L 355.911057 240.393533 
L 356.215725 240.913803 
L 356.520393 239.230232 
L 356.825061 240.350302 
L 357.12973 239.562248 
L 357.434398 239.486526 
L 357.739066 240.265147 
L 358.043735 239.909474 
L 358.348403 241.174431 
L 358.653071 240.560012 
L 358.95774 240.370114 
L 359.262408 239.482484 
L 359.567076 240.691342 
L 359.871744 240.256466 
L 360.176413 240.376829 
L 360.481081 240.907034 
L 360.785749 240.115171 
L 361.090418 240.415769 
L 361.395086 241.376466 
L 361.699754 240.643818 
L 362.004423 239.447119 
L 362.613759 241.780604 
L 362.918428 240.940212 
L 363.223096 241.490036 
L 363.527764 241.111999 
L 363.832432 240.068407 
L 364.137101 241.050539 
L 364.746437 239.564536 
L 365.051106 240.96817 
L 365.355774 240.247907 
L 365.660442 241.567468 
L 365.965111 242.102578 
L 366.269779 240.426919 
L 366.574447 240.850382 
L 366.879115 240.459992 
L 367.488452 241.322068 
L 367.79312 241.005394 
L 368.097789 241.420427 
L 368.402457 241.479821 
L 369.011794 241.315065 
L 369.316462 241.606599 
L 369.62113 241.664293 
L 369.925799 240.930724 
L 370.839803 241.734767 
L 371.144472 240.960455 
L 371.753808 240.841111 
L 372.058477 241.141248 
L 372.363145 240.987347 
L 372.667813 241.471554 
L 372.972482 241.005551 
L 373.27715 242.116364 
L 373.581818 241.991184 
L 373.581818 241.991184 
" clip-path="url(#p165d75cb32)" style="fill: none; stroke: #1f77b4; stroke-width: 1.5; stroke-linecap: square"/>
   </g>
   <g id="line2d_16">
    <path d="M 69.218182 44.443636 
L 69.52285 129.277132 
L 69.827518 140.477356 
L 70.436855 152.350838 
L 71.046192 159.599195 
L 71.655528 164.063878 
L 72.264865 166.698459 
L 73.17887 169.013375 
L 73.788206 170.213195 
L 74.397543 170.733094 
L 75.00688 171.473881 
L 77.444226 173.703019 
L 78.053563 174.075479 
L 78.967568 174.966152 
L 82.928256 178.808965 
L 83.537592 180.050516 
L 84.451597 182.375842 
L 85.060934 183.857549 
L 85.974939 185.21843 
L 87.49828 186.529698 
L 89.32629 187.637957 
L 91.1543 188.714128 
L 91.458968 188.699835 
L 92.372973 189.146151 
L 92.677641 189.1735 
L 92.98231 189.383985 
L 93.286978 189.257025 
L 93.591646 189.443586 
L 94.505651 189.583096 
L 94.810319 189.772743 
L 95.724324 189.846786 
L 96.028993 190.076432 
L 98.466339 190.535885 
L 98.771007 190.651599 
L 99.075676 190.641615 
L 99.989681 191.098551 
L 100.294349 191.095524 
L 100.903686 191.415585 
L 102.427027 191.886601 
L 103.341032 192.110399 
L 103.6457 192.222891 
L 103.950369 192.727423 
L 104.255037 192.879291 
L 104.559705 192.437988 
L 104.864373 192.69059 
L 105.47371 192.779618 
L 105.778378 192.450559 
L 106.083047 192.875876 
L 106.387715 192.553929 
L 106.692383 192.568774 
L 106.997052 193.088067 
L 107.30172 193.328268 
L 107.606388 193.306953 
L 107.911057 192.909413 
L 108.215725 193.352015 
L 108.520393 192.9829 
L 108.825061 193.470826 
L 109.739066 193.743311 
L 110.043735 193.894024 
L 110.653071 193.890983 
L 110.95774 193.636411 
L 111.262408 194.035571 
L 111.567076 193.631562 
L 111.871744 194.389633 
L 112.176413 193.992968 
L 112.481081 194.178607 
L 112.785749 194.75054 
L 113.090418 194.773634 
L 113.395086 194.407555 
L 113.699754 194.9586 
L 114.309091 195.246551 
L 114.918428 195.416926 
L 115.223096 195.513113 
L 115.527764 195.183589 
L 115.832432 195.830213 
L 116.137101 195.37537 
L 116.441769 195.901948 
L 116.746437 195.595028 
L 117.051106 195.993521 
L 117.355774 196.089033 
L 117.660442 196.326015 
L 117.965111 196.294241 
L 118.879115 196.641437 
L 119.183784 197.121307 
L 119.488452 197.013371 
L 119.79312 196.649978 
L 120.097789 197.188904 
L 120.402457 197.264088 
L 120.707125 196.437879 
L 121.011794 196.815052 
L 121.316462 198.004447 
L 121.62113 196.753437 
L 121.925799 197.429077 
L 122.230467 197.552719 
L 122.535135 197.840523 
L 122.839803 197.296621 
L 123.144472 198.233974 
L 123.44914 197.808106 
L 123.753808 198.439015 
L 124.363145 198.961594 
L 124.667813 198.908391 
L 125.27715 199.705358 
L 125.581818 199.801203 
L 125.886486 199.721909 
L 126.191155 200.083965 
L 126.495823 198.800141 
L 127.10516 198.685366 
L 127.409828 197.367464 
L 127.714496 198.20619 
L 128.019165 198.15917 
L 128.323833 197.019497 
L 128.628501 198.411465 
L 128.93317 198.466675 
L 129.237838 197.566516 
L 129.542506 197.850187 
L 129.847174 199.115343 
L 130.151843 198.672205 
L 130.456511 197.776489 
L 130.761179 197.908986 
L 131.065848 197.883449 
L 131.370516 199.219639 
L 131.675184 198.027599 
L 131.979853 198.391685 
L 132.284521 196.803073 
L 132.893857 196.17509 
L 133.198526 196.95996 
L 133.503194 197.173344 
L 133.807862 199.465758 
L 134.112531 197.458102 
L 134.417199 197.977656 
L 134.721867 199.975098 
L 135.026536 197.824546 
L 135.331204 198.256097 
L 135.635872 200.638033 
L 135.940541 199.560857 
L 136.245209 200.033367 
L 136.549877 197.978575 
L 136.854545 200.062553 
L 137.159214 200.970097 
L 137.463882 198.622671 
L 137.76855 201.728154 
L 138.073219 201.47797 
L 138.377887 201.499911 
L 138.682555 198.938663 
L 138.987224 206.459812 
L 139.291892 199.448065 
L 139.59656 206.500904 
L 139.901229 206.854525 
L 140.205897 202.575437 
L 140.510565 207.155705 
L 140.815233 207.858172 
L 141.119902 207.91204 
L 141.42457 208.71469 
L 142.033907 208.680074 
L 142.338575 208.994985 
L 142.643243 208.844578 
L 142.947912 209.067936 
L 143.25258 210.748139 
L 143.557248 209.108584 
L 143.861916 210.884854 
L 144.166585 204.335176 
L 144.471253 204.676498 
L 144.775921 204.817673 
L 145.08059 210.069384 
L 145.385258 204.636604 
L 145.689926 208.931393 
L 145.994595 204.57686 
L 146.299263 210.726921 
L 146.603931 204.653028 
L 146.9086 209.58363 
L 147.213268 204.547607 
L 147.517936 205.164762 
L 147.822604 205.104818 
L 148.127273 209.048273 
L 148.736609 210.727027 
L 149.041278 212.843802 
L 149.345946 210.09617 
L 149.650614 210.714735 
L 149.955283 210.402835 
L 150.259951 210.381331 
L 150.564619 206.178248 
L 150.869287 212.572507 
L 151.173956 211.906673 
L 151.478624 212.116456 
L 151.783292 210.838083 
L 152.087961 213.629356 
L 152.392629 211.40603 
L 152.697297 211.362939 
L 153.001966 213.714169 
L 153.306634 212.1119 
L 153.611302 213.905852 
L 153.915971 212.822642 
L 154.525307 213.507628 
L 154.829975 211.787705 
L 155.134644 213.540335 
L 155.439312 214.024294 
L 156.048649 212.66895 
L 156.353317 212.631426 
L 156.657985 213.016299 
L 156.962654 212.530928 
L 157.267322 212.858003 
L 157.57199 214.012159 
L 157.876658 208.411595 
L 158.181327 213.673252 
L 158.485995 212.938964 
L 158.790663 214.545516 
L 159.095332 214.579036 
L 159.4 213.43669 
L 159.704668 213.882412 
L 160.009337 212.948742 
L 160.314005 213.445289 
L 160.618673 215.500885 
L 160.923342 215.186001 
L 161.22801 215.417953 
L 161.837346 214.828254 
L 162.446683 215.502538 
L 162.751351 215.913271 
L 163.05602 215.19303 
L 163.360688 215.101829 
L 164.274693 216.528229 
L 164.579361 216.288011 
L 164.884029 218.466498 
L 165.188698 218.335755 
L 166.102703 218.651404 
L 166.712039 218.879883 
L 167.016708 217.027552 
L 167.626044 217.199416 
L 167.930713 216.993327 
L 168.235381 219.296642 
L 168.540049 219.311938 
L 168.844717 219.204004 
L 169.149386 217.243179 
L 169.454054 217.587716 
L 169.758722 217.405614 
L 170.063391 219.62329 
L 170.368059 218.025955 
L 170.672727 217.701732 
L 170.977396 219.452051 
L 171.282064 219.843656 
L 171.586732 219.394469 
L 171.8914 219.964416 
L 172.196069 219.887907 
L 172.805405 220.086341 
L 173.110074 219.952338 
L 173.414742 220.242705 
L 173.71941 219.128284 
L 174.024079 220.584227 
L 174.328747 219.535809 
L 174.633415 220.209817 
L 174.938084 220.042668 
L 175.242752 220.067681 
L 175.54742 220.320371 
L 175.852088 220.253155 
L 176.156757 220.500126 
L 176.461425 220.55895 
L 176.766093 220.827282 
L 177.070762 220.62604 
L 177.37543 221.130442 
L 177.680098 220.813049 
L 177.984767 220.682896 
L 178.594103 220.869651 
L 179.20344 221.677083 
L 179.508108 221.183583 
L 179.812776 221.186547 
L 180.117445 221.001569 
L 180.422113 221.917335 
L 180.726781 221.523563 
L 181.336118 221.258542 
L 181.640786 221.721104 
L 181.945455 221.417345 
L 182.250123 221.601906 
L 182.554791 221.372586 
L 182.859459 221.941597 
L 183.164128 221.996543 
L 183.468796 221.400515 
L 183.773464 221.373662 
L 184.078133 221.579722 
L 184.382801 222.059837 
L 184.687469 221.812106 
L 185.296806 222.027474 
L 185.601474 221.782996 
L 185.906143 221.999743 
L 186.210811 221.962514 
L 186.515479 222.321919 
L 186.820147 221.598784 
L 187.429484 222.803845 
L 188.038821 222.255532 
L 188.343489 222.637566 
L 188.952826 222.751667 
L 189.257494 222.262889 
L 189.562162 222.384188 
L 189.86683 222.063584 
L 190.171499 222.176698 
L 190.476167 223.152539 
L 190.780835 222.507327 
L 191.085504 222.628438 
L 191.390172 223.342419 
L 191.999509 222.535266 
L 192.304177 223.890884 
L 192.608845 223.428548 
L 192.913514 222.409962 
L 193.218182 222.867529 
L 193.52285 222.866846 
L 193.827518 223.248787 
L 194.132187 222.867865 
L 194.436855 223.172045 
L 194.741523 223.831662 
L 195.046192 223.546857 
L 195.35086 223.601073 
L 195.655528 223.811324 
L 195.960197 223.747033 
L 196.264865 223.515204 
L 196.569533 224.066133 
L 196.874201 224.012386 
L 197.17887 223.436614 
L 197.483538 223.404407 
L 197.788206 223.087641 
L 198.092875 223.648168 
L 198.702211 223.250212 
L 199.00688 223.488706 
L 199.311548 223.555194 
L 199.616216 223.49051 
L 199.920885 223.032056 
L 200.225553 223.431797 
L 200.530221 223.342978 
L 201.139558 223.64396 
L 201.444226 223.600122 
L 201.748894 223.275486 
L 202.053563 223.245651 
L 202.662899 223.776158 
L 202.967568 223.57902 
L 203.272236 223.789862 
L 203.881572 223.682017 
L 204.186241 224.280874 
L 204.490909 223.959057 
L 204.795577 224.351652 
L 205.404914 223.939786 
L 205.709582 224.146529 
L 206.014251 223.963503 
L 206.318919 224.066927 
L 206.623587 224.972607 
L 206.928256 224.171157 
L 207.232924 224.972211 
L 207.537592 224.379269 
L 208.146929 224.353776 
L 208.756265 224.307919 
L 209.365602 224.50502 
L 209.67027 224.18038 
L 209.974939 224.274856 
L 210.279607 224.513623 
L 210.584275 224.313766 
L 210.888943 224.64933 
L 211.193612 224.707309 
L 211.802948 224.521279 
L 212.107617 224.677234 
L 212.412285 224.47339 
L 212.716953 224.718035 
L 213.021622 224.819424 
L 213.32629 225.678329 
L 213.630958 224.836629 
L 213.935627 225.199813 
L 214.544963 224.720712 
L 214.849631 224.954708 
L 215.458968 224.598318 
L 215.763636 225.000464 
L 216.068305 225.039923 
L 216.372973 225.339009 
L 216.677641 225.121921 
L 216.98231 225.260585 
L 217.286978 225.169934 
L 217.591646 225.372425 
L 217.896314 225.088651 
L 218.200983 225.453068 
L 218.505651 225.184818 
L 218.810319 225.434233 
L 220.028993 225.436235 
L 220.333661 225.972941 
L 220.638329 225.502254 
L 220.942998 225.415323 
L 221.247666 225.482761 
L 221.552334 225.39655 
L 221.857002 225.645651 
L 222.161671 225.455933 
L 222.466339 225.435604 
L 222.771007 225.529525 
L 223.380344 225.529434 
L 223.685012 225.673503 
L 224.294349 225.445555 
L 224.599017 225.771652 
L 224.903686 225.872591 
L 225.208354 225.705728 
L 225.513022 225.787837 
L 225.81769 226.025128 
L 226.427027 225.769526 
L 226.731695 225.362627 
L 227.036364 225.792395 
L 227.6457 225.566347 
L 227.950369 225.899676 
L 228.255037 225.658966 
L 228.864373 225.884106 
L 229.169042 226.556085 
L 229.47371 225.872707 
L 229.778378 226.310068 
L 230.083047 225.916229 
L 230.692383 225.930252 
L 231.30172 225.901989 
L 231.606388 226.103994 
L 231.911057 225.987105 
L 232.215725 225.716731 
L 232.520393 225.961161 
L 232.825061 226.00126 
L 233.12973 225.869025 
L 233.434398 225.98258 
L 233.739066 225.843633 
L 234.348403 226.015935 
L 234.95774 226.035781 
L 235.262408 226.182517 
L 235.567076 226.018572 
L 235.871744 226.21702 
L 236.176413 226.033988 
L 236.481081 226.114712 
L 236.785749 225.923037 
L 237.090418 226.1209 
L 237.395086 226.012847 
L 237.699754 226.537516 
L 238.004423 226.224796 
L 238.309091 226.218214 
L 238.613759 226.65857 
L 238.918428 226.145789 
L 239.223096 226.298585 
L 239.832432 226.264323 
L 240.137101 226.45939 
L 240.441769 226.173699 
L 240.746437 226.254792 
L 241.355774 226.229354 
L 241.660442 226.665537 
L 241.965111 226.085326 
L 242.269779 226.331649 
L 242.574447 225.944542 
L 243.183784 226.297368 
L 243.488452 226.161676 
L 243.79312 226.51941 
L 244.097789 226.577809 
L 244.402457 225.916265 
L 244.707125 226.421987 
L 245.011794 226.709763 
L 245.62113 226.049282 
L 246.230467 226.392923 
L 246.535135 226.318273 
L 247.144472 226.533953 
L 247.44914 226.361681 
L 247.753808 225.995426 
L 248.058477 226.391222 
L 248.667813 226.04589 
L 248.972482 226.921639 
L 249.27715 226.439385 
L 249.581818 226.25362 
L 249.886486 226.37456 
L 250.191155 226.149489 
L 250.495823 226.821172 
L 250.800491 226.098759 
L 251.10516 226.932603 
L 251.409828 226.146641 
L 251.714496 227.235138 
L 252.019165 226.429625 
L 252.628501 226.724516 
L 252.93317 227.053037 
L 253.237838 226.652711 
L 253.542506 226.687534 
L 254.151843 226.439636 
L 254.456511 226.519719 
L 254.761179 226.968972 
L 255.675184 226.745747 
L 255.979853 226.866533 
L 256.589189 226.79165 
L 256.893857 227.155751 
L 257.503194 227.123248 
L 257.807862 226.687926 
L 258.112531 227.161532 
L 258.417199 226.686091 
L 258.721867 227.074469 
L 259.026536 226.685841 
L 259.331204 226.779353 
L 259.635872 226.453276 
L 259.940541 226.618922 
L 260.245209 227.155715 
L 260.549877 226.625069 
L 260.854545 227.196498 
L 261.159214 226.746115 
L 261.463882 227.042338 
L 261.76855 227.578257 
L 262.377887 226.753823 
L 262.682555 227.155641 
L 262.987224 226.484304 
L 263.291892 227.270436 
L 263.59656 227.262693 
L 263.901229 227.12048 
L 264.205897 226.624861 
L 264.510565 227.228001 
L 264.815233 227.230784 
L 265.119902 227.006911 
L 265.42457 227.253912 
L 266.033907 226.941613 
L 266.643243 226.70775 
L 266.947912 226.944865 
L 267.25258 226.588103 
L 267.861916 226.77574 
L 268.166585 226.763747 
L 268.471253 227.060717 
L 268.775921 226.859731 
L 269.08059 227.265313 
L 269.385258 227.238333 
L 269.689926 227.351434 
L 269.994595 227.320836 
L 270.299263 226.707615 
L 270.603931 226.354853 
L 270.9086 227.068542 
L 271.213268 227.264504 
L 271.517936 226.675612 
L 271.822604 227.23641 
L 272.127273 226.834616 
L 272.431941 227.251475 
L 272.736609 226.610187 
L 273.041278 226.915622 
L 273.345946 227.481365 
L 273.650614 226.927484 
L 273.955283 226.78971 
L 274.869287 226.798762 
L 275.173956 226.937535 
L 275.478624 226.914327 
L 275.783292 227.345724 
L 276.392629 226.645745 
L 276.697297 227.377834 
L 277.001966 227.475588 
L 277.306634 227.355791 
L 277.611302 227.060717 
L 277.915971 227.415924 
L 278.220639 227.136129 
L 278.525307 227.421198 
L 279.134644 227.069011 
L 279.439312 227.154718 
L 280.048649 226.863686 
L 280.657985 227.108348 
L 280.962654 227.534747 
L 281.267322 227.167242 
L 281.57199 226.462803 
L 282.485995 227.503415 
L 282.790663 226.919683 
L 283.095332 227.397436 
L 283.4 227.12347 
L 283.704668 227.543853 
L 284.923342 226.974765 
L 285.22801 227.438309 
L 285.837346 227.460379 
L 286.142015 227.050313 
L 286.446683 227.214848 
L 286.751351 226.910075 
L 287.360688 227.522193 
L 287.665356 227.158807 
L 287.970025 227.485996 
L 288.274693 227.263184 
L 288.579361 227.655611 
L 289.188698 227.045461 
L 289.493366 225.712271 
L 289.798034 227.422442 
L 290.407371 227.18121 
L 290.712039 227.458115 
L 291.016708 227.180877 
L 291.321376 227.441371 
L 291.626044 226.953598 
L 292.235381 227.605579 
L 292.540049 227.039167 
L 292.844717 227.4275 
L 293.149386 227.244329 
L 293.454054 227.502171 
L 294.063391 227.142493 
L 294.368059 227.164942 
L 294.672727 227.426639 
L 295.282064 227.532556 
L 295.586732 227.291106 
L 295.8914 227.227447 
L 296.196069 227.425434 
L 296.500737 227.332548 
L 296.805405 227.107636 
L 297.110074 226.485968 
L 297.414742 227.064274 
L 298.633415 227.403816 
L 298.938084 227.280882 
L 299.242752 225.583328 
L 299.54742 227.349815 
L 299.852088 225.653049 
L 300.156757 226.564353 
L 300.461425 226.303306 
L 300.766093 227.243953 
L 301.070762 227.314755 
L 301.37543 227.212682 
L 301.680098 227.434053 
L 301.984767 226.693459 
L 302.289435 227.255612 
L 302.898771 227.426374 
L 303.20344 227.359551 
L 303.508108 226.949977 
L 303.812776 227.258306 
L 304.117445 227.403728 
L 304.422113 227.146069 
L 304.726781 227.705945 
L 305.336118 227.150726 
L 305.640786 227.380723 
L 305.945455 227.439751 
L 306.859459 227.167675 
L 307.164128 227.183127 
L 307.468796 227.385648 
L 307.773464 227.190601 
L 308.078133 227.261181 
L 308.687469 226.680701 
L 308.992138 227.288064 
L 309.296806 227.374489 
L 309.906143 227.697717 
L 310.515479 227.412433 
L 311.124816 227.55954 
L 311.734152 227.214782 
L 312.038821 227.735888 
L 312.343489 227.414908 
L 312.648157 227.555887 
L 312.952826 227.343338 
L 313.257494 227.32362 
L 313.562162 227.097352 
L 313.86683 227.637663 
L 314.171499 227.42803 
L 314.476167 227.422315 
L 314.780835 227.109207 
L 315.085504 227.417712 
L 315.390172 227.498304 
L 315.999509 227.27882 
L 316.304177 227.763834 
L 316.608845 227.245803 
L 317.218182 227.137598 
L 317.52285 227.492175 
L 317.827518 227.648189 
L 318.436855 227.23424 
L 318.741523 227.461021 
L 319.655528 227.318073 
L 319.960197 226.758947 
L 320.264865 227.465224 
L 320.874201 227.346493 
L 321.17887 227.544637 
L 321.483538 227.371772 
L 321.788206 227.55259 
L 322.092875 227.312419 
L 322.397543 227.216653 
L 322.702211 227.400141 
L 323.311548 227.232397 
L 323.920885 227.50682 
L 324.225553 227.255678 
L 324.530221 226.705092 
L 324.834889 227.325972 
L 325.139558 227.177465 
L 325.444226 227.249081 
L 326.053563 227.213649 
L 326.358231 227.200097 
L 326.662899 227.729425 
L 326.967568 227.236199 
L 327.576904 227.335891 
L 327.881572 227.470189 
L 328.186241 227.331608 
L 328.490909 227.336202 
L 328.795577 227.53528 
L 329.100246 226.723322 
L 329.404914 225.111067 
L 329.709582 227.2549 
L 330.014251 226.776914 
L 330.318919 224.976758 
L 330.623587 226.492626 
L 330.928256 226.630529 
L 331.232924 226.510219 
L 331.537592 226.925298 
L 331.84226 227.592339 
L 332.451597 227.114181 
L 333.060934 227.155679 
L 333.365602 226.348384 
L 333.67027 227.006054 
L 333.974939 227.122171 
L 334.279607 227.068218 
L 334.584275 227.435482 
L 334.888943 226.008254 
L 335.193612 226.919348 
L 335.49828 226.935986 
L 335.802948 226.608087 
L 336.107617 227.241782 
L 336.412285 226.706885 
L 336.716953 227.387368 
L 337.021622 227.252118 
L 337.32629 227.473584 
L 338.240295 226.835606 
L 338.544963 226.129427 
L 338.849631 226.888573 
L 339.1543 225.847716 
L 339.458968 227.171711 
L 339.763636 227.003944 
L 340.068305 227.219889 
L 340.677641 226.914258 
L 340.98231 227.055376 
L 341.286978 226.777257 
L 341.591646 227.131957 
L 341.896314 226.589838 
L 342.200983 225.599854 
L 342.505651 226.545783 
L 343.114988 226.320878 
L 343.419656 226.809281 
L 343.724324 227.069687 
L 344.028993 225.901339 
L 344.638329 227.1071 
L 344.942998 227.067674 
L 345.247666 226.70561 
L 345.552334 227.216882 
L 345.857002 227.315774 
L 346.161671 227.138074 
L 346.466339 227.31776 
L 346.771007 227.114788 
L 347.075676 226.663934 
L 347.380344 227.140832 
L 347.685012 226.85247 
L 348.294349 227.432585 
L 348.599017 227.075483 
L 348.903686 227.235342 
L 349.208354 225.281714 
L 349.513022 226.685924 
L 349.81769 227.012855 
L 350.122359 224.974471 
L 350.427027 226.810961 
L 350.731695 225.567643 
L 351.036364 225.716493 
L 351.341032 227.223495 
L 351.6457 226.893498 
L 351.950369 226.819646 
L 352.255037 226.01864 
L 352.559705 226.786561 
L 352.864373 226.771364 
L 353.169042 226.468294 
L 353.47371 226.403287 
L 353.778378 227.202921 
L 354.387715 226.394596 
L 354.997052 227.266154 
L 355.30172 225.695785 
L 355.606388 226.977733 
L 355.911057 227.131372 
L 356.215725 227.052113 
L 356.520393 226.152892 
L 356.825061 226.678428 
L 357.12973 225.482029 
L 357.434398 225.551078 
L 357.739066 227.129186 
L 358.043735 226.866281 
L 358.653071 225.286985 
L 359.262408 227.125956 
L 359.567076 227.148028 
L 360.176413 226.610545 
L 360.481081 226.802565 
L 360.785749 227.14816 
L 361.090418 226.76462 
L 361.395086 226.080154 
L 361.699754 227.128164 
L 362.004423 227.091602 
L 362.309091 226.835817 
L 362.613759 226.85853 
L 362.918428 226.627191 
L 363.223096 226.844375 
L 363.527764 226.757837 
L 363.832432 227.069491 
L 364.441769 226.928009 
L 364.746437 226.290561 
L 365.051106 226.106866 
L 365.355774 226.786303 
L 365.660442 226.779383 
L 365.965111 226.410439 
L 366.269779 225.372979 
L 366.574447 226.960548 
L 366.879115 226.758672 
L 367.183784 226.803734 
L 367.488452 226.175473 
L 367.79312 226.761333 
L 368.097789 226.845718 
L 368.402457 226.537107 
L 368.707125 226.766761 
L 369.011794 226.651221 
L 369.316462 226.216004 
L 369.62113 226.081752 
L 370.230467 226.690418 
L 370.535135 226.733036 
L 370.839803 226.295944 
L 371.144472 226.764238 
L 371.44914 226.561538 
L 371.753808 226.58452 
L 372.058477 226.082621 
L 372.363145 225.932552 
L 372.667813 226.242175 
L 372.972482 226.201895 
L 373.27715 226.364365 
L 373.581818 226.715442 
L 373.581818 226.715442 
" clip-path="url(#p165d75cb32)" style="fill: none; stroke: #ff7f0e; stroke-width: 1.5; stroke-linecap: square"/>
   </g>
   <g id="patch_3">
    <path d="M 54 252 
L 54 34.56 
" style="fill: none; stroke: #000000; stroke-width: 0.8; stroke-linejoin: miter; stroke-linecap: square"/>
   </g>
   <g id="patch_4">
    <path d="M 388.8 252 
L 388.8 34.56 
" style="fill: none; stroke: #000000; stroke-width: 0.8; stroke-linejoin: miter; stroke-linecap: square"/>
   </g>
   <g id="patch_5">
    <path d="M 54 252 
L 388.8 252 
" style="fill: none; stroke: #000000; stroke-width: 0.8; stroke-linejoin: miter; stroke-linecap: square"/>
   </g>
   <g id="patch_6">
    <path d="M 54 34.56 
L 388.8 34.56 
" style="fill: none; stroke: #000000; stroke-width: 0.8; stroke-linejoin: miter; stroke-linecap: square"/>
   </g>
   <g id="text_17">
    <!-- Training and validation loss -->
    <g transform="translate(139.59 28.56) scale(0.12 -0.12)">
     <defs>
      <path id="DejaVuSans-54" d="M -19 4666 
L 3928 4666 
L 3928 4134 
L 2272 4134 
L 2272 0 
L 1638 0 
L 1638 4134 
L -19 4134 
L -19 4666 
z
" transform="scale(0.015625)"/>
      <path id="DejaVuSans-72" d="M 2631 2963 
Q 2534 3019 2420 3045 
Q 2306 3072 2169 3072 
Q 1681 3072 1420 2755 
Q 1159 2438 1159 1844 
L 1159 0 
L 581 0 
L 581 3500 
L 1159 3500 
L 1159 2956 
Q 1341 3275 1631 3429 
Q 1922 3584 2338 3584 
Q 2397 3584 2469 3576 
Q 2541 3569 2628 3553 
L 2631 2963 
z
" transform="scale(0.015625)"/>
      <path id="DejaVuSans-61" d="M 2194 1759 
Q 1497 1759 1228 1600 
Q 959 1441 959 1056 
Q 959 750 1161 570 
Q 1363 391 1709 391 
Q 2188 391 2477 730 
Q 2766 1069 2766 1631 
L 2766 1759 
L 2194 1759 
z
M 3341 1997 
L 3341 0 
L 2766 0 
L 2766 531 
Q 2569 213 2275 61 
Q 1981 -91 1556 -91 
Q 1019 -91 701 211 
Q 384 513 384 1019 
Q 384 1609 779 1909 
Q 1175 2209 1959 2209 
L 2766 2209 
L 2766 2266 
Q 2766 2663 2505 2880 
Q 2244 3097 1772 3097 
Q 1472 3097 1187 3025 
Q 903 2953 641 2809 
L 641 3341 
Q 956 3463 1253 3523 
Q 1550 3584 1831 3584 
Q 2591 3584 2966 3190 
Q 3341 2797 3341 1997 
z
" transform="scale(0.015625)"/>
      <path id="DejaVuSans-69" d="M 603 3500 
L 1178 3500 
L 1178 0 
L 603 0 
L 603 3500 
z
M 603 4863 
L 1178 4863 
L 1178 4134 
L 603 4134 
L 603 4863 
z
" transform="scale(0.015625)"/>
      <path id="DejaVuSans-67" d="M 2906 1791 
Q 2906 2416 2648 2759 
Q 2391 3103 1925 3103 
Q 1463 3103 1205 2759 
Q 947 2416 947 1791 
Q 947 1169 1205 825 
Q 1463 481 1925 481 
Q 2391 481 2648 825 
Q 2906 1169 2906 1791 
z
M 3481 434 
Q 3481 -459 3084 -895 
Q 2688 -1331 1869 -1331 
Q 1566 -1331 1297 -1286 
Q 1028 -1241 775 -1147 
L 775 -588 
Q 1028 -725 1275 -790 
Q 1522 -856 1778 -856 
Q 2344 -856 2625 -561 
Q 2906 -266 2906 331 
L 2906 616 
Q 2728 306 2450 153 
Q 2172 0 1784 0 
Q 1141 0 747 490 
Q 353 981 353 1791 
Q 353 2603 747 3093 
Q 1141 3584 1784 3584 
Q 2172 3584 2450 3431 
Q 2728 3278 2906 2969 
L 2906 3500 
L 3481 3500 
L 3481 434 
z
" transform="scale(0.015625)"/>
      <path id="DejaVuSans-20" transform="scale(0.015625)"/>
      <path id="DejaVuSans-64" d="M 2906 2969 
L 2906 4863 
L 3481 4863 
L 3481 0 
L 2906 0 
L 2906 525 
Q 2725 213 2448 61 
Q 2172 -91 1784 -91 
Q 1150 -91 751 415 
Q 353 922 353 1747 
Q 353 2572 751 3078 
Q 1150 3584 1784 3584 
Q 2172 3584 2448 3432 
Q 2725 3281 2906 2969 
z
M 947 1747 
Q 947 1113 1208 752 
Q 1469 391 1925 391 
Q 2381 391 2643 752 
Q 2906 1113 2906 1747 
Q 2906 2381 2643 2742 
Q 2381 3103 1925 3103 
Q 1469 3103 1208 2742 
Q 947 2381 947 1747 
z
" transform="scale(0.015625)"/>
      <path id="DejaVuSans-76" d="M 191 3500 
L 800 3500 
L 1894 563 
L 2988 3500 
L 3597 3500 
L 2284 0 
L 1503 0 
L 191 3500 
z
" transform="scale(0.015625)"/>
      <path id="DejaVuSans-6c" d="M 603 4863 
L 1178 4863 
L 1178 0 
L 603 0 
L 603 4863 
z
" transform="scale(0.015625)"/>
      <path id="DejaVuSans-74" d="M 1172 4494 
L 1172 3500 
L 2356 3500 
L 2356 3053 
L 1172 3053 
L 1172 1153 
Q 1172 725 1289 603 
Q 1406 481 1766 481 
L 2356 481 
L 2356 0 
L 1766 0 
Q 1100 0 847 248 
Q 594 497 594 1153 
L 594 3053 
L 172 3053 
L 172 3500 
L 594 3500 
L 594 4494 
L 1172 4494 
z
" transform="scale(0.015625)"/>
     </defs>
     <use xlink:href="#DejaVuSans-54"/>
     <use xlink:href="#DejaVuSans-72" x="46.333984"/>
     <use xlink:href="#DejaVuSans-61" x="87.447266"/>
     <use xlink:href="#DejaVuSans-69" x="148.726562"/>
     <use xlink:href="#DejaVuSans-6e" x="176.509766"/>
     <use xlink:href="#DejaVuSans-69" x="239.888672"/>
     <use xlink:href="#DejaVuSans-6e" x="267.671875"/>
     <use xlink:href="#DejaVuSans-67" x="331.050781"/>
     <use xlink:href="#DejaVuSans-20" x="394.527344"/>
     <use xlink:href="#DejaVuSans-61" x="426.314453"/>
     <use xlink:href="#DejaVuSans-6e" x="487.59375"/>
     <use xlink:href="#DejaVuSans-64" x="550.972656"/>
     <use xlink:href="#DejaVuSans-20" x="614.449219"/>
     <use xlink:href="#DejaVuSans-76" x="646.236328"/>
     <use xlink:href="#DejaVuSans-61" x="705.416016"/>
     <use xlink:href="#DejaVuSans-6c" x="766.695312"/>
     <use xlink:href="#DejaVuSans-69" x="794.478516"/>
     <use xlink:href="#DejaVuSans-64" x="822.261719"/>
     <use xlink:href="#DejaVuSans-61" x="885.738281"/>
     <use xlink:href="#DejaVuSans-74" x="947.017578"/>
     <use xlink:href="#DejaVuSans-69" x="986.226562"/>
     <use xlink:href="#DejaVuSans-6f" x="1014.009766"/>
     <use xlink:href="#DejaVuSans-6e" x="1075.191406"/>
     <use xlink:href="#DejaVuSans-20" x="1138.570312"/>
     <use xlink:href="#DejaVuSans-6c" x="1170.357422"/>
     <use xlink:href="#DejaVuSans-6f" x="1198.140625"/>
     <use xlink:href="#DejaVuSans-73" x="1259.322266"/>
     <use xlink:href="#DejaVuSans-73" x="1311.421875"/>
    </g>
   </g>
   <g id="legend_1">
    <g id="patch_7">
     <path d="M 275.30625 71.91625 
L 381.8 71.91625 
Q 383.8 71.91625 383.8 69.91625 
L 383.8 41.56 
Q 383.8 39.56 381.8 39.56 
L 275.30625 39.56 
Q 273.30625 39.56 273.30625 41.56 
L 273.30625 69.91625 
Q 273.30625 71.91625 275.30625 71.91625 
z
" style="fill: #ffffff; opacity: 0.8; stroke: #cccccc; stroke-linejoin: miter"/>
    </g>
    <g id="line2d_17">
     <path d="M 277.30625 47.658437 
L 287.30625 47.658437 
L 297.30625 47.658437 
" style="fill: none; stroke: #1f77b4; stroke-width: 1.5; stroke-linecap: square"/>
    </g>
    <g id="text_18">
     <!-- Loss Training -->
     <g transform="translate(305.30625 51.158437) scale(0.1 -0.1)">
      <use xlink:href="#DejaVuSans-4c"/>
      <use xlink:href="#DejaVuSans-6f" x="53.962891"/>
      <use xlink:href="#DejaVuSans-73" x="115.144531"/>
      <use xlink:href="#DejaVuSans-73" x="167.244141"/>
      <use xlink:href="#DejaVuSans-20" x="219.34375"/>
      <use xlink:href="#DejaVuSans-54" x="251.130859"/>
      <use xlink:href="#DejaVuSans-72" x="297.464844"/>
      <use xlink:href="#DejaVuSans-61" x="338.578125"/>
      <use xlink:href="#DejaVuSans-69" x="399.857422"/>
      <use xlink:href="#DejaVuSans-6e" x="427.640625"/>
      <use xlink:href="#DejaVuSans-69" x="491.019531"/>
      <use xlink:href="#DejaVuSans-6e" x="518.802734"/>
      <use xlink:href="#DejaVuSans-67" x="582.181641"/>
     </g>
    </g>
    <g id="line2d_18">
     <path d="M 277.30625 62.336562 
L 287.30625 62.336562 
L 297.30625 62.336562 
" style="fill: none; stroke: #ff7f0e; stroke-width: 1.5; stroke-linecap: square"/>
    </g>
    <g id="text_19">
     <!-- Loss Validation -->
     <g transform="translate(305.30625 65.836562) scale(0.1 -0.1)">
      <defs>
       <path id="DejaVuSans-56" d="M 1831 0 
L 50 4666 
L 709 4666 
L 2188 738 
L 3669 4666 
L 4325 4666 
L 2547 0 
L 1831 0 
z
" transform="scale(0.015625)"/>
      </defs>
      <use xlink:href="#DejaVuSans-4c"/>
      <use xlink:href="#DejaVuSans-6f" x="53.962891"/>
      <use xlink:href="#DejaVuSans-73" x="115.144531"/>
      <use xlink:href="#DejaVuSans-73" x="167.244141"/>
      <use xlink:href="#DejaVuSans-20" x="219.34375"/>
      <use xlink:href="#DejaVuSans-56" x="251.130859"/>
      <use xlink:href="#DejaVuSans-61" x="311.789062"/>
      <use xlink:href="#DejaVuSans-6c" x="373.068359"/>
      <use xlink:href="#DejaVuSans-69" x="400.851562"/>
      <use xlink:href="#DejaVuSans-64" x="428.634766"/>
      <use xlink:href="#DejaVuSans-61" x="492.111328"/>
      <use xlink:href="#DejaVuSans-74" x="553.390625"/>
      <use xlink:href="#DejaVuSans-69" x="592.599609"/>
      <use xlink:href="#DejaVuSans-6f" x="620.382812"/>
      <use xlink:href="#DejaVuSans-6e" x="681.564453"/>
     </g>
    </g>
   </g>
  </g>
 </g>
 <defs>
  <clipPath id="p165d75cb32">
   <rect x="54" y="34.56" width="334.8" height="217.44"/>
  </clipPath>
 </defs>
</svg>
